SplineFontDB: 3.0
FontName: Molle
FullName: Molle
FamilyName: Molle
Weight: Book
Copyright: Copyright (c) 2011, Sorkin Type Co (www.sorkintype.com)\nwith Reserved Font Name "Spinnaker".
Version: 1.001; ttfautohint (v0.92) -l 12 -r 12 -G 200 -x 10 -w "g"
ItalicAngle: -22
UnderlinePosition: 186
UnderlineWidth: 124
Ascent: 1638
Descent: 410
sfntRevision: 0x00010042
LayerCount: 2
Layer: 0 1 "Back"  1
Layer: 1 1 "Fore"  0
XUID: [1021 631 1661839179 13284986]
FSType: 0
OS2Version: 3
OS2_WeightWidthSlopeOnly: 0
OS2_UseTypoMetrics: 1
CreationTime: 1347307620
ModificationTime: 1347587873
PfmFamily: 17
TTFWeight: 400
TTFWidth: 5
LineGap: 0
VLineGap: 0
Panose: 2 0 5 7 0 0 0 1 0 2
OS2TypoAscent: 1852
OS2TypoAOffset: 0
OS2TypoDescent: -701
OS2TypoDOffset: 0
OS2TypoLinegap: 0
OS2WinAscent: 1852
OS2WinAOffset: 0
OS2WinDescent: 701
OS2WinDOffset: 0
HheadAscent: 1852
HheadAOffset: 0
HheadDescent: -701
HheadDOffset: 0
OS2SubXSize: 1434
OS2SubYSize: 1331
OS2SubXOff: 0
OS2SubYOff: 287
OS2SupXSize: 1434
OS2SupYSize: 1331
OS2SupXOff: 0
OS2SupYOff: 977
OS2StrikeYSize: 202
OS2StrikeYPos: 534
OS2Vendor: 'STC '
OS2CodePages: 20000111.40000000
OS2UnicodeRanges: 8000002f.1000004a.00000000.00000000
Lookup: 6 0 0 "'calt' Contextual Alternates in Latin lookup 0"  {"'calt' Contextual Alternates in Latin lookup 0 contextual 0"  "'calt' Contextual Alternates in Latin lookup 0 contextual 1"  "'calt' Contextual Alternates in Latin lookup 0 contextual 2"  "'calt' Contextual Alternates in Latin lookup 0 contextual 3"  } ['calt' ('latn' <'dflt' > ) ]
Lookup: 1 0 0 "Single Substitution lookup 1"  {"Single Substitution lookup 1 subtable"  } []
DEI: 91125
ChainSub2: coverage "'calt' Contextual Alternates in Latin lookup 0 contextual 3"  0 0 0 1
 1 0 1
  Coverage: 10 underscore
  FCoverage: 51 a b c d e f g h i j k l m n o p q r s t u v w x y z
 1
  SeqLookup: 0 "Single Substitution lookup 1" 
EndFPST
ChainSub2: coverage "'calt' Contextual Alternates in Latin lookup 0 contextual 2"  0 0 0 1
 1 0 1

StartChar: exclam
Encoding: 33 33 26
Width: 1014
GlyphClass: 2
Flags: W
LayerCount: 2
Fore
SplineSet
333 408 m 1,0,1
 386 751 386 751 530 1016 c 0,2,3
 579 1107 579 1107 628 1165.5 c 128,-1,4
 677 1224 677 1224 725 1273.5 c 128,-1,5
 773 1323 773 1323 828 1364 c 0,6,7
 957 1460 957 1460 1062 1460 c 0,8,9
 1115 1460 1115 1460 1162 1402 c 0,10,11
 1215 1337 1215 1337 1215 1257 c 0,12,13
 1215 1190 1215 1190 1114 1124 c 0,14,15
 1068 1094 1068 1094 1008 1062 c 128,-1,16
 948 1030 948 1030 883.5 990 c 128,-1,17
 819 950 819 950 754 898.5 c 128,-1,18
 689 847 689 847 634 778 c 0,19,20
 508 622 508 622 474 411 c 1,21,22
 464 411 464 411 441 407.5 c 128,-1,23
 418 404 418 404 394 402 c 0,24,25
 333 395 333 395 333 408 c 1,0,1
193 -14.5 m 128,-1,27
 180 9 180 9 180 44 c 128,-1,28
 180 79 180 79 204 118 c 128,-1,29
 228 157 228 157 268 188 c 0,30,31
 359 257 359 257 458 257 c 128,-1,32
 557 257 557 257 602.5 216 c 128,-1,33
 648 175 648 175 648 109 c 0,34,35
 648 34 648 34 532 -29 c 0,36,37
 426 -87 426 -87 336 -87 c 0,38,39
 273 -87 273 -87 239.5 -62.5 c 128,-1,26
 206 -38 206 -38 193 -14.5 c 128,-1,27
EndSplineSet
EndChar

StartChar: quotedbl
Encoding: 34 34 27
Width: 1063
GlyphClass: 2
Flags: W
LayerCount: 2
Fore
SplineSet
800 1014 m 1,0,1
 814 1050 814 1050 832.5 1145.5 c 128,-1,2
 851 1241 851 1241 864.5 1291.5 c 128,-1,3
 878 1342 878 1342 900 1382 c 0,4,5
 948 1472 948 1472 1027 1472 c 0,6,7
 1077 1472 1077 1472 1106.5 1439 c 128,-1,8
 1136 1406 1136 1406 1136 1362.5 c 128,-1,9
 1136 1319 1136 1319 1119.5 1278 c 128,-1,10
 1103 1237 1103 1237 1077 1195.5 c 128,-1,11
 1051 1154 1051 1154 1019.5 1115.5 c 128,-1,12
 988 1077 988 1077 958 1048 c 0,13,14
 890 982 890 982 863 982 c 0,15,16
 847 982 847 982 826 995.5 c 128,-1,17
 805 1009 805 1009 800 1014 c 1,0,1
501.5 1000 m 128,-1,19
 476 982 476 982 467 982 c 128,-1,20
 458 982 458 982 449.5 985 c 128,-1,21
 441 988 441 988 432 993 c 0,22,23
 409 1005 409 1005 400 1014 c 1,24,25
 414 1050 414 1050 432.5 1145.5 c 128,-1,26
 451 1241 451 1241 464.5 1291.5 c 128,-1,27
 478 1342 478 1342 500 1382 c 0,28,29
 548 1472 548 1472 627 1472 c 0,30,31
 677 1472 677 1472 706.5 1439 c 128,-1,32
 736 1406 736 1406 736 1362.5 c 128,-1,33
 736 1319 736 1319 719.5 1278 c 128,-1,34
 703 1237 703 1237 677 1195.5 c 128,-1,35
 651 1154 651 1154 619.5 1115.5 c 128,-1,36
 588 1077 588 1077 557.5 1047.5 c 128,-1,18
 527 1018 527 1018 501.5 1000 c 128,-1,19
EndSplineSet
EndChar

StartChar: numbersign
Encoding: 35 35 28
Width: 1707
GlyphClass: 2
Flags: W
LayerCount: 2
Fore
SplineSet
622 371 m 1,0,1
 463 -4 463 -4 415 -4 c 0,2,3
 331 -4 331 -4 230 34 c 1,4,5
 280 109 280 109 416 381 c 1,6,7
 283 392 283 392 273 420 c 0,8,9
 254 473 254 473 276 575 c 1,10,11
 338 564 338 564 501 555 c 1,12,13
 563 684 563 684 623 814 c 1,14,15
 433 825 433 825 421 858 c 0,16,17
 404 905 404 905 424 997 c 1,18,19
 486 984 486 984 696 975 c 1,20,21
 851 1328 851 1328 871 1417 c 1,22,-1
 895 1409 l 2,23,24
 961 1387 961 1387 961 1371 c 0,25,26
 961 1288 961 1288 852 970 c 1,27,28
 1020 966 1020 966 1194 966 c 1,29,30
 1335 1324 1335 1324 1356 1417 c 1,31,-1
 1380 1409 l 2,32,33
 1446 1387 1446 1387 1446 1371 c 0,34,35
 1446 1282 1446 1282 1352 969 c 1,36,37
 1545 973 1545 973 1619 984 c 1,38,-1
 1619 958 l 2,39,40
 1619 881 1619 881 1603 876 c 1,41,42
 1540 851 1540 851 1309 831 c 1,43,44
 1265 689 1265 689 1215 546 c 1,45,46
 1422 550 1422 550 1506 562 c 1,47,-1
 1506 533 l 2,48,49
 1506 443 1506 443 1488.5 437 c 128,-1,50
 1471 431 1471 431 1438.5 424 c 128,-1,51
 1406 417 1406 417 1363 411 c 0,52,53
 1267 398 1267 398 1159 390 c 1,54,55
 1014 -4 1014 -4 965 -4 c 0,56,57
 871 -4 871 -4 780 34 c 1,58,59
 814 87 814 87 944 377 c 1,60,61
 811 371 811 371 731.5 371 c 128,-1,62
 652 371 652 371 622 371 c 1,0,1
1134 818 m 1,63,64
 979 809 979 809 795 809 c 1,65,66
 742 666 742 666 695 548 c 1,67,68
 851 544 851 544 1018 544 c 1,69,-1
 1134 818 l 1,63,64
EndSplineSet
EndChar

StartChar: dollar
Encoding: 36 36 29
Width: 1368
GlyphClass: 2
Flags: W
LayerCount: 2
Fore
SplineSet
509 3 m 1,0,1
 369 -255 369 -255 324 -255 c 0,2,3
 265 -255 265 -255 200 -168 c 1,4,5
 242 -131 242 -131 348 48 c 1,6,7
 230 106 230 106 162.5 224 c 128,-1,8
 95 342 95 342 95 507 c 0,9,10
 95 527 95 527 140 546 c 0,11,12
 151 551 151 551 160 553 c 1,13,14
 195 463 195 463 291 397 c 0,15,16
 381 336 381 336 494 317 c 1,17,18
 605 529 605 529 725 784 c 1,19,20
 652 852 652 852 627 889 c 0,21,22
 576 962 576 962 576 1032.5 c 128,-1,23
 576 1103 576 1103 610.5 1159.5 c 128,-1,24
 645 1216 645 1216 702 1259 c 0,25,26
 820 1347 820 1347 989 1370 c 1,27,28
 1065 1555 1065 1555 1079 1613 c 1,29,30
 1161 1586 1161 1586 1161 1568 c 0,31,32
 1161 1525 1161 1525 1110 1376 c 1,33,34
 1215 1372 1215 1372 1274 1343.5 c 128,-1,35
 1333 1315 1333 1315 1356.5 1289.5 c 128,-1,36
 1380 1264 1380 1264 1380 1240 c 128,-1,37
 1380 1216 1380 1216 1368.5 1199.5 c 128,-1,38
 1357 1183 1357 1183 1340 1169 c 0,39,40
 1308 1143 1308 1143 1270 1130 c 1,41,42
 1233 1198 1233 1198 1132 1237 c 0,43,44
 1100 1249 1100 1249 1067 1255 c 1,45,46
 1006 1093 1006 1093 918 881 c 1,47,48
 1047 788 1047 788 1094 732 c 1,49,50
 1192 619 1192 619 1192 502 c 0,51,52
 1192 361 1192 361 1100 241 c 0,53,54
 1016 131 1016 131 870 64 c 0,55,56
 730 0 730 0 572 0 c 0,57,58
 539 0 539 0 509 3 c 1,0,1
809 963 m 1,59,60
 896 1154 896 1154 938 1250 c 1,61,62
 803 1220 803 1220 756 1140 c 0,63,64
 739 1110 739 1110 739 1076 c 0,65,66
 739 1022 739 1022 809 963 c 1,59,60
666 317 m 1,67,68
 823 346 823 346 870 462 c 0,69,70
 887 503 887 503 887 546 c 0,71,72
 887 616 887 616 831 681 c 1,73,74
 731 451 731 451 666 317 c 1,67,68
EndSplineSet
EndChar

StartChar: percent
Encoding: 37 37 30
Width: 1733
GlyphClass: 2
Flags: W
LayerCount: 2
Fore
SplineSet
105 49 m 1,0,1
 218 129 218 129 520 428 c 0,2,3
 966 868 966 868 1247 1220 c 0,4,5
 1321 1312 1321 1312 1373 1388 c 1,6,7
 1400 1379 1400 1379 1424.5 1352 c 128,-1,8
 1449 1325 1449 1325 1449 1320 c 0,9,10
 1449 1258 1449 1258 1215 956 c 0,11,12
 1007 686 1007 686 725 378 c 0,13,14
 444 71 444 71 300 -33 c 0,15,16
 252 -68 252 -68 235 -68 c 128,-1,17
 218 -68 218 -68 198.5 -54 c 128,-1,18
 179 -40 179 -40 160 -22 c 0,19,20
 114 22 114 22 105 49 c 1,0,1
628 808 m 128,-1,22
 561 782 561 782 501 782 c 128,-1,23
 441 782 441 782 403.5 797.5 c 128,-1,24
 366 813 366 813 340 840 c 1,25,26
 284 895 284 895 284 967 c 128,-1,27
 284 1039 284 1039 307.5 1095 c 128,-1,28
 331 1151 331 1151 370 1198 c 1,29,30
 455 1297 455 1297 576 1325 c 1,31,32
 586 1345 586 1345 605 1348.5 c 128,-1,33
 624 1352 624 1352 649 1352 c 128,-1,34
 674 1352 674 1352 711 1341 c 128,-1,35
 748 1330 748 1330 783 1300 c 0,36,37
 859 1236 859 1236 859 1149 c 128,-1,38
 859 1062 859 1062 828.5 995.5 c 128,-1,39
 798 929 798 929 746.5 881.5 c 128,-1,21
 695 834 695 834 628 808 c 128,-1,22
539 972 m 0,40,41
 592 972 592 972 644 1030 c 1,42,43
 694 1088 694 1088 700 1136 c 0,44,45
 709 1222 709 1222 650 1252 c 1,46,47
 569 1227 569 1227 522.5 1171.5 c 128,-1,48
 476 1116 476 1116 476 1044 c 128,-1,49
 476 972 476 972 539 972 c 0,40,41
1238 579 m 1,50,51
 1249 613 1249 613 1270 617 c 1,52,53
 1296 620 1296 620 1328.5 620 c 128,-1,54
 1361 620 1361 620 1407 607.5 c 128,-1,55
 1453 595 1453 595 1493 559 c 0,56,57
 1576 484 1576 484 1576 345 c 0,58,59
 1576 183 1576 183 1454 66 c 0,60,61
 1330 -52 1330 -52 1154 -52 c 0,62,63
 1036 -52 1036 -52 970.5 8 c 128,-1,64
 905 68 905 68 905 183 c 128,-1,65
 905 298 905 298 1002 418.5 c 128,-1,66
 1099 539 1099 539 1238 579 c 1,50,51
1138 267 m 0,67,68
 1138 185 1138 185 1207 185 c 0,69,70
 1261 185 1261 185 1312 241 c 0,71,72
 1374 310 1374 310 1374 386 c 0,73,74
 1374 440 1374 440 1337 472 c 1,75,76
 1206 454 1206 454 1155 346 c 0,77,78
 1138 310 1138 310 1138 267 c 0,67,68
EndSplineSet
EndChar

StartChar: ampersand
Encoding: 38 38 31
Width: 1717
GlyphClass: 2
Flags: W
LayerCount: 2
Fore
SplineSet
883 104 m 1,0,1
 693 -1 693 -1 535 -1 c 0,2,3
 345 -1 345 -1 225 99 c 0,4,5
 98 204 98 204 98 384 c 0,6,7
 98 568 98 568 348 708 c 0,8,9
 486 785 486 785 631.5 836 c 128,-1,10
 777 887 777 887 866 917 c 1,11,12
 983 1237 983 1237 1173 1340 c 0,13,14
 1241 1377 1241 1377 1302 1377 c 128,-1,15
 1363 1377 1363 1377 1397.5 1365 c 128,-1,16
 1432 1353 1432 1353 1456 1332 c 0,17,18
 1507 1289 1507 1289 1507 1225.5 c 128,-1,19
 1507 1162 1507 1162 1474.5 1113 c 128,-1,20
 1442 1064 1442 1064 1386 1023 c 0,21,22
 1294 955 1294 955 1104 882 c 1,23,24
 1103 859 1103 859 1103 814 c 0,25,26
 1103 670 1103 670 1151 537 c 1,27,28
 1341 667 1341 667 1394 807 c 1,29,30
 1404 805 1404 805 1415 803 c 128,-1,31
 1426 801 1426 801 1435 796 c 0,32,33
 1455 786 1455 786 1455 758 c 128,-1,34
 1455 730 1455 730 1439.5 687 c 128,-1,35
 1424 644 1424 644 1396 596 c 0,36,37
 1334 491 1334 491 1239 390 c 1,38,39
 1289 343 1289 343 1337.5 343 c 128,-1,40
 1386 343 1386 343 1424 351 c 128,-1,41
 1462 359 1462 359 1498 372 c 0,42,43
 1579 399 1579 399 1615 433 c 1,44,45
 1652 418 1652 418 1652 384 c 0,46,47
 1652 362 1652 362 1621.5 307 c 128,-1,48
 1591 252 1591 252 1560 212 c 128,-1,49
 1529 172 1529 172 1488.5 133.5 c 128,-1,50
 1448 95 1448 95 1396 65 c 0,51,52
 1282 -1 1282 -1 1133 -1 c 128,-1,53
 984 -1 984 -1 883 104 c 1,0,1
1116 1004 m 1,54,55
 1382 1105 1382 1105 1382 1202 c 0,56,57
 1382 1258 1382 1258 1331 1273 c 0,58,59
 1317 1277 1317 1277 1291.5 1277 c 128,-1,60
 1266 1277 1266 1277 1235.5 1256 c 128,-1,61
 1205 1235 1205 1235 1182 1198 c 0,62,63
 1135 1124 1135 1124 1116 1004 c 1,54,55
510 586.5 m 128,-1,65
 483 548 483 548 483 490.5 c 128,-1,66
 483 433 483 433 526.5 395 c 128,-1,67
 570 357 570 357 637 357 c 128,-1,68
 704 357 704 357 774 371 c 1,69,70
 773 379 773 379 773 388 c 2,71,-1
 773 405 l 2,72,73
 773 581 773 581 823 777 c 1,74,75
 663 715 663 715 600 670 c 128,-1,64
 537 625 537 625 510 586.5 c 128,-1,65
EndSplineSet
EndChar

StartChar: quotesingle
Encoding: 39 39 32
Width: 663
GlyphClass: 2
Flags: W
LayerCount: 2
Fore
SplineSet
501.5 1000 m 128,-1,1
 476 982 476 982 467 982 c 128,-1,2
 458 982 458 982 449.5 985 c 128,-1,3
 441 988 441 988 432 993 c 0,4,5
 409 1005 409 1005 400 1014 c 1,6,7
 414 1050 414 1050 432.5 1145.5 c 128,-1,8
 451 1241 451 1241 464.5 1291.5 c 128,-1,9
 478 1342 478 1342 500 1382 c 0,10,11
 548 1472 548 1472 627 1472 c 0,12,13
 677 1472 677 1472 706.5 1439 c 128,-1,14
 736 1406 736 1406 736 1362.5 c 128,-1,15
 736 1319 736 1319 719.5 1278 c 128,-1,16
 703 1237 703 1237 677 1195.5 c 128,-1,17
 651 1154 651 1154 619.5 1115.5 c 128,-1,18
 588 1077 588 1077 557.5 1047.5 c 128,-1,0
 527 1018 527 1018 501.5 1000 c 128,-1,1
EndSplineSet
EndChar

StartChar: parenleft
Encoding: 40 40 33
Width: 1052
GlyphClass: 2
Flags: W
LayerCount: 2
Fore
SplineSet
211.5 -110.5 m 128,-1,1
 200 -70 200 -70 200 15.5 c 128,-1,2
 200 101 200 101 235 232.5 c 128,-1,3
 270 364 270 364 330.5 498.5 c 128,-1,4
 391 633 391 633 474 766 c 128,-1,5
 557 899 557 899 653 1019.5 c 128,-1,6
 749 1140 749 1140 854 1243 c 128,-1,7
 959 1346 959 1346 1064 1422 c 0,8,9
 1290 1583 1290 1583 1461 1583 c 0,10,11
 1509 1583 1509 1583 1526 1516 c 0,12,13
 1531 1498 1531 1498 1532 1482 c 1,14,15
 1345 1482 1345 1482 1132 1301 c 0,16,17
 936 1134 936 1134 770 862 c 0,18,19
 606 595 606 595 533 322 c 0,20,21
 488 154 488 154 488 35.5 c 128,-1,22
 488 -83 488 -83 511 -163 c 1,23,24
 461 -206 461 -206 375 -226 c 0,25,26
 348 -233 348 -233 325.5 -233 c 128,-1,27
 303 -233 303 -233 281 -219 c 128,-1,28
 259 -205 259 -205 241 -178 c 128,-1,0
 223 -151 223 -151 211.5 -110.5 c 128,-1,1
EndSplineSet
EndChar

StartChar: parenright
Encoding: 41 41 34
Width: 1167
GlyphClass: 2
Flags: W
LayerCount: 2
Fore
SplineSet
864 1561 m 1,0,1
 899 1579 899 1579 924 1579 c 0,2,3
 969 1579 969 1579 980 1555 c 0,4,5
 1025 1456 1025 1456 1033 1363 c 128,-1,6
 1041 1270 1041 1270 1041 1200.5 c 128,-1,7
 1041 1131 1041 1131 1028.5 1013.5 c 128,-1,8
 1016 896 1016 896 975 739 c 128,-1,9
 934 582 934 582 873 433.5 c 128,-1,10
 812 285 812 285 734.5 153 c 128,-1,11
 657 21 657 21 568 -78 c 0,12,13
 373 -293 373 -293 181 -293 c 0,14,15
 120 -293 120 -293 64 -220 c 0,16,17
 18 -159 18 -159 15 -116 c 1,18,19
 207 -74 207 -74 401 128 c 0,20,21
 578 312 578 312 712 586 c 0,22,23
 905 979 905 979 905 1315 c 0,24,25
 905 1458 905 1458 864 1561 c 1,0,1
EndSplineSet
EndChar

StartChar: asterisk
Encoding: 42 42 35
Width: 1003
GlyphClass: 2
Flags: W
LayerCount: 2
Fore
SplineSet
853 1188 m 1,0,1
 950 1101 950 1101 1011 1051 c 1,2,3
 996 1022 996 1022 970 1008 c 0,4,5
 923 983 923 983 901 995 c 0,6,7
 843 1027 843 1027 754 1086 c 1,8,9
 683 906 683 906 647 863 c 0,10,11
 622 834 622 834 579 834 c 0,12,13
 555 834 555 834 540 845 c 1,14,15
 575 933 575 933 616 1073 c 1,16,17
 416 984 416 984 390 984 c 128,-1,18
 364 984 364 984 351.5 993.5 c 128,-1,19
 339 1003 339 1003 332 1016 c 0,20,21
 317 1043 317 1043 317 1067 c 1,22,23
 439 1128 439 1128 589 1211 c 1,24,25
 440 1336 440 1336 440 1405 c 0,26,27
 440 1445 440 1445 496 1490 c 0,28,29
 512 1503 512 1503 529 1512 c 1,30,31
 546 1474 546 1474 688 1341 c 1,32,33
 733 1528 733 1528 733 1583 c 1,34,35
 741 1583 741 1583 759 1583 c 128,-1,36
 777 1583 777 1583 800 1579.5 c 128,-1,37
 823 1576 823 1576 838 1564 c 0,38,39
 866 1543 866 1543 866 1505 c 0,40,41
 866 1451 866 1451 841 1351 c 1,42,43
 1037 1463 1037 1463 1095 1512 c 1,44,45
 1147 1462 1147 1462 1147 1429 c 0,46,47
 1147 1363 1147 1363 1005 1274 c 0,48,49
 937 1232 937 1232 853 1188 c 1,0,1
EndSplineSet
EndChar

StartChar: plus
Encoding: 43 43 36
Width: 1436
GlyphClass: 2
Flags: W
LayerCount: 2
Fore
SplineSet
861 633 m 1,0,1
 1062 639 1062 639 1177 657 c 1,2,3
 1181 640 1181 640 1181 620 c 0,4,5
 1181 553 1181 553 1131 533 c 1,6,7
 1040 499 1040 499 803 478 c 1,8,9
 702 223 702 223 652 140 c 0,10,11
 628 101 628 101 553 101 c 0,12,13
 524 101 524 101 514 108 c 1,14,15
 523 139 523 139 536 179.5 c 128,-1,16
 549 220 549 220 563.5 266 c 128,-1,17
 578 312 578 312 594 362.5 c 128,-1,18
 610 413 610 413 626 466 c 1,19,20
 546 463 546 463 474 463 c 0,21,22
 291 463 291 463 291 579 c 0,23,24
 291 614 291 614 304 659 c 1,25,26
 396 631 396 631 675 631 c 1,27,28
 763 938 763 938 756 1014 c 1,29,30
 764 1014 764 1014 784 1014 c 128,-1,31
 804 1014 804 1014 833 1010.5 c 128,-1,32
 862 1007 862 1007 884 995 c 0,33,34
 930 971 930 971 930 901 c 128,-1,35
 930 831 930 831 861 633 c 1,0,1
EndSplineSet
EndChar

StartChar: comma
Encoding: 44 44 37
Width: 828
GlyphClass: 2
Flags: W
LayerCount: 2
Fore
SplineSet
268 -15 m 1,0,1
 240 16 240 16 240 62 c 128,-1,2
 240 108 240 108 259 142.5 c 128,-1,3
 278 177 278 177 310 202 c 0,4,5
 380 257 380 257 468.5 257 c 128,-1,6
 557 257 557 257 602.5 216 c 128,-1,7
 648 175 648 175 648 115 c 128,-1,8
 648 55 648 55 619.5 -0.5 c 128,-1,9
 591 -56 591 -56 543.5 -108.5 c 128,-1,10
 496 -161 496 -161 435.5 -207 c 128,-1,11
 375 -253 375 -253 310 -287 c 0,12,13
 170 -361 170 -361 68 -361 c 0,14,15
 31 -361 31 -361 -10 -288 c 0,16,17
 -20 -270 -20 -270 -24 -256 c 1,18,19
 126 -166 126 -166 222 -73 c 0,20,21
 256 -40 256 -40 268 -15 c 1,0,1
EndSplineSet
EndChar

StartChar: hyphen
Encoding: 45 45 38
Width: 1093
GlyphClass: 2
Flags: W
LayerCount: 2
Fore
SplineSet
401 658 m 1,0,1
 560 631 560 631 688 631 c 0,2,3
 910 631 910 631 979.5 642 c 128,-1,4
 1049 653 1049 653 1056.5 646 c 128,-1,5
 1064 639 1064 639 1064 618 c 128,-1,6
 1064 597 1064 597 1038.5 570.5 c 128,-1,7
 1013 544 1013 544 970.5 521 c 128,-1,8
 928 498 928 498 873.5 479.5 c 128,-1,9
 819 461 819 461 761 448 c 0,10,11
 641 421 641 421 556 421 c 0,12,13
 414 421 414 421 382 510 c 0,14,15
 374 533 374 533 374 553 c 0,16,17
 374 612 374 612 401 658 c 1,0,1
EndSplineSet
EndChar

StartChar: period
Encoding: 46 46 39
Width: 828
GlyphClass: 2
Flags: W
LayerCount: 2
Fore
SplineSet
193 -14.5 m 128,-1,1
 180 9 180 9 180 44 c 128,-1,2
 180 79 180 79 204 118 c 128,-1,3
 228 157 228 157 268 188 c 0,4,5
 359 257 359 257 458 257 c 128,-1,6
 557 257 557 257 602.5 216 c 128,-1,7
 648 175 648 175 648 109 c 0,8,9
 648 34 648 34 534 -29 c 0,10,11
 429 -87 429 -87 336 -87 c 0,12,13
 273 -87 273 -87 239.5 -62.5 c 128,-1,0
 206 -38 206 -38 193 -14.5 c 128,-1,1
EndSplineSet
EndChar

StartChar: slash
Encoding: 47 47 40
Width: 1151
GlyphClass: 2
Flags: W
LayerCount: 2
Fore
SplineSet
1266 1613 m 1,0,1
 1343 1587 1343 1587 1343 1569.5 c 128,-1,2
 1343 1552 1343 1552 1314 1491.5 c 128,-1,3
 1285 1431 1285 1431 1234 1340 c 128,-1,4
 1183 1249 1183 1249 1115 1134.5 c 128,-1,5
 1047 1020 1047 1020 969.5 894 c 128,-1,6
 892 768 892 768 808.5 637.5 c 128,-1,7
 725 507 725 507 643.5 384.5 c 128,-1,8
 562 262 562 262 487 154 c 128,-1,9
 412 46 412 46 350 -34 c 1,10,11
 218 -208 218 -208 183 -208 c 0,12,13
 129 -208 129 -208 45 -148 c 0,14,15
 23 -133 23 -133 14 -121 c 1,16,17
 173 20 173 20 693 756 c 0,18,19
 1010 1204 1010 1204 1130.5 1394.5 c 128,-1,20
 1251 1585 1251 1585 1266 1613 c 1,0,1
EndSplineSet
EndChar

StartChar: zero
Encoding: 48 48 41
Width: 1353
GlyphClass: 2
Flags: W
LayerCount: 2
Fore
SplineSet
78 387 m 0,0,1
 78 611 78 611 259 876 c 0,2,3
 372 1042 372 1042 529 1170 c 0,4,5
 785 1378 785 1378 1036 1378 c 0,6,7
 1197 1378 1197 1378 1287 1272.5 c 128,-1,8
 1377 1167 1377 1167 1377 978 c 0,9,10
 1377 757 1377 757 1262 533 c 0,11,12
 1141 298 1141 298 947 154 c 0,13,14
 731 -6 731 -6 478 -6 c 0,15,16
 277 -6 277 -6 177.5 97.5 c 128,-1,17
 78 201 78 201 78 387 c 0,0,1
430 698 m 128,-1,19
 406 609 406 609 406 516 c 128,-1,20
 406 423 406 423 460.5 370 c 128,-1,21
 515 317 515 317 601 317 c 128,-1,22
 687 317 687 317 758.5 346.5 c 128,-1,23
 830 376 830 376 897 426.5 c 128,-1,24
 964 477 964 477 1022.5 545 c 128,-1,25
 1081 613 1081 613 1125 690 c 0,26,27
 1219 853 1219 853 1219 1008 c 0,28,29
 1219 1190 1219 1190 1103 1248 c 0,30,31
 1065 1267 1065 1267 1001.5 1267 c 128,-1,32
 938 1267 938 1267 863 1236 c 128,-1,33
 788 1205 788 1205 720.5 1151 c 128,-1,34
 653 1097 653 1097 595.5 1024.5 c 128,-1,35
 538 952 538 952 496 869.5 c 128,-1,18
 454 787 454 787 430 698 c 128,-1,19
EndSplineSet
EndChar

StartChar: one
Encoding: 49 49 42
Width: 914
GlyphClass: 2
Flags: W
LayerCount: 2
Fore
SplineSet
143 79 m 128,-1,1
 110 128 110 128 110 191.5 c 128,-1,2
 110 255 110 255 137.5 314.5 c 128,-1,3
 165 374 165 374 211.5 439 c 128,-1,4
 258 504 258 504 319 574 c 128,-1,5
 380 644 380 644 448 715 c 128,-1,6
 516 786 516 786 585.5 857 c 128,-1,7
 655 928 655 928 718 996 c 0,8,9
 863 1150 863 1150 922 1246 c 1,10,11
 726 1108 726 1108 461 1000 c 0,12,13
 340 950 340 950 310.5 950 c 128,-1,14
 281 950 281 950 265.5 961.5 c 128,-1,15
 250 973 250 973 238 990 c 0,16,17
 217 1020 217 1020 206 1060 c 1,18,19
 479 1147 479 1147 819 1315 c 0,20,21
 890 1350 890 1350 950 1384 c 1,22,23
 1007 1373 1007 1373 1044 1313 c 0,24,25
 1055 1296 1055 1296 1055 1266.5 c 128,-1,26
 1055 1237 1055 1237 1015.5 1165.5 c 128,-1,27
 976 1094 976 1094 916 999 c 128,-1,28
 856 904 856 904 786.5 788.5 c 128,-1,29
 717 673 717 673 656 542 c 0,30,31
 514 238 514 238 509 -29 c 1,32,33
 470 -32 470 -32 432 -32 c 128,-1,34
 394 -32 394 -32 340 -27 c 128,-1,35
 286 -22 286 -22 231 4 c 128,-1,0
 176 30 176 30 143 79 c 128,-1,1
EndSplineSet
EndChar

StartChar: two
Encoding: 50 50 43
Width: 1333
GlyphClass: 2
Flags: W
LayerCount: 2
Fore
SplineSet
1145 35 m 1,0,1
 1031 74 1031 74 827 74 c 0,2,3
 465 74 465 74 134 -27 c 0,4,5
 113 -34 113 -34 95 -34 c 128,-1,6
 77 -34 77 -34 54.5 -24.5 c 128,-1,7
 32 -15 32 -15 11 14 c 0,8,9
 -32 72 -32 72 -32 167 c 0,10,11
 -32 249 -32 249 -3 283 c 128,-1,12
 26 317 26 317 89 353.5 c 128,-1,13
 152 390 152 390 239 434 c 128,-1,14
 326 478 326 478 429.5 528.5 c 128,-1,15
 533 579 533 579 637 634.5 c 128,-1,16
 741 690 741 690 838.5 750.5 c 128,-1,17
 936 811 936 811 1011 874 c 0,18,19
 1177 1013 1177 1013 1177 1135 c 0,20,21
 1177 1232 1177 1232 1056 1254 c 0,22,23
 1023 1260 1023 1260 977.5 1260 c 128,-1,24
 932 1260 932 1260 871 1248 c 128,-1,25
 810 1236 810 1236 753.5 1216 c 128,-1,26
 697 1196 697 1196 648.5 1170.5 c 128,-1,27
 600 1145 600 1145 564 1118 c 0,28,29
 487 1059 487 1059 487 1006.5 c 128,-1,30
 487 954 487 954 554 919 c 1,31,32
 529 883 529 883 508 871.5 c 128,-1,33
 487 860 487 860 473 860 c 128,-1,34
 459 860 459 860 426 867.5 c 128,-1,35
 393 875 393 875 362 890 c 0,36,37
 287 929 287 929 287 978.5 c 128,-1,38
 287 1028 287 1028 321.5 1076 c 128,-1,39
 356 1124 356 1124 414 1168 c 128,-1,40
 472 1212 472 1212 548.5 1250 c 128,-1,41
 625 1288 625 1288 708 1316 c 0,42,43
 886 1377 886 1377 1040 1377 c 0,44,45
 1201 1377 1201 1377 1290 1296 c 0,46,47
 1368 1224 1368 1224 1368 1110 c 0,48,49
 1368 849 1368 849 958 567 c 0,50,51
 778 442 778 442 549 334 c 1,52,53
 647 344 647 344 717.5 344 c 128,-1,54
 788 344 788 344 834 342 c 128,-1,55
 880 340 880 340 927 335 c 0,56,57
 1024 325 1024 325 1089 303.5 c 128,-1,58
 1154 282 1154 282 1178 253 c 0,59,60
 1204 220 1204 220 1204 184 c 0,61,62
 1204 110 1204 110 1145 35 c 1,0,1
EndSplineSet
EndChar

StartChar: three
Encoding: 51 51 44
Width: 1268
GlyphClass: 2
Flags: W
LayerCount: 2
Fore
SplineSet
1015 729 m 1,0,1
 1147 619 1147 619 1147 460 c 0,2,3
 1147 332 1147 332 1068 225.5 c 128,-1,4
 989 119 989 119 875 48 c 0,5,6
 622 -111 622 -111 228 -111 c 0,7,8
 85 -111 85 -111 20 -18 c 1,9,10
 -17 37 -17 37 -17 92 c 128,-1,11
 -17 147 -17 147 -10 180 c 1,12,13
 28 178 28 178 83 178 c 128,-1,14
 138 178 138 178 228.5 187 c 128,-1,15
 319 196 319 196 418.5 221.5 c 128,-1,16
 518 247 518 247 602 286 c 0,17,18
 774 367 774 367 814 486 c 0,19,20
 824 513 824 513 824 545 c 128,-1,21
 824 577 824 577 810 614 c 1,22,23
 647 541 647 541 513 541 c 0,24,25
 470 541 470 541 440 630 c 0,26,27
 417 699 417 699 417 750 c 1,28,29
 622 778 622 778 824 863 c 0,30,31
 987 932 987 932 1059 1026 c 0,32,33
 1097 1076 1097 1076 1097 1123.5 c 128,-1,34
 1097 1171 1097 1171 1080 1195.5 c 128,-1,35
 1063 1220 1063 1220 1036 1234 c 0,36,37
 986 1260 986 1260 916.5 1260 c 128,-1,38
 847 1260 847 1260 780 1244 c 128,-1,39
 713 1228 713 1228 651.5 1201 c 128,-1,40
 590 1174 590 1174 538 1139 c 0,41,42
 431 1068 431 1068 394 992 c 0,43,44
 382 966 382 966 382 949.5 c 128,-1,45
 382 933 382 933 385 922 c 1,46,47
 357 884 357 884 334.5 884 c 128,-1,48
 312 884 312 884 294.5 893.5 c 128,-1,49
 277 903 277 903 263 920 c 0,50,51
 230 958 230 958 230 997.5 c 128,-1,52
 230 1037 230 1037 262 1079.5 c 128,-1,53
 294 1122 294 1122 349 1164 c 128,-1,54
 404 1206 404 1206 476.5 1244.5 c 128,-1,55
 549 1283 549 1283 630 1312 c 0,56,57
 807 1377 807 1377 969.5 1377 c 128,-1,58
 1132 1377 1132 1377 1214.5 1311 c 128,-1,59
 1297 1245 1297 1245 1297 1124 c 0,60,61
 1297 976 1297 976 1126 818 c 0,62,63
 1075 771 1075 771 1015 729 c 1,0,1
EndSplineSet
EndChar

StartChar: four
Encoding: 52 52 45
Width: 1515
GlyphClass: 2
Flags: W
LayerCount: 2
Fore
SplineSet
1462 504 m 1,0,1
 1392 526 1392 526 1155 526 c 2,2,-1
 1112 526 l 2,3,4
 1091 526 1091 526 1069 525 c 1,5,6
 924 219 924 219 895 -33 c 1,7,8
 846 -37 846 -37 811 -37 c 128,-1,9
 776 -37 776 -37 730 -34.5 c 128,-1,10
 684 -32 684 -32 634 -14 c 0,11,12
 528 25 528 25 528 137 c 0,13,14
 528 270 528 270 700 496 c 1,15,16
 502 470 502 470 368 427 c 0,17,18
 340 418 340 418 321.5 418 c 128,-1,19
 303 418 303 418 280 422 c 128,-1,20
 257 426 257 426 228.5 445 c 128,-1,21
 200 464 200 464 177 492.5 c 128,-1,22
 154 521 154 521 138 552 c 0,23,24
 107 611 107 611 95 673 c 1,25,26
 406 906 406 906 942 1185 c 0,27,28
 1188 1312 1188 1312 1360 1384 c 1,29,30
 1417 1373 1417 1373 1454 1313 c 0,31,32
 1465 1296 1465 1296 1465 1270.5 c 128,-1,33
 1465 1245 1465 1245 1439.5 1190 c 128,-1,34
 1414 1135 1414 1135 1372.5 1063 c 128,-1,35
 1331 991 1331 991 1278.5 904.5 c 128,-1,36
 1226 818 1226 818 1171 720 c 1,37,38
 1510 705 1510 705 1510 605 c 0,39,40
 1510 566 1510 566 1462 504 c 1,0,1
403 689 m 1,41,42
 421 690 421 690 466.5 694 c 128,-1,43
 512 698 512 698 576 702 c 0,44,45
 711 712 711 712 886 718 c 1,46,47
 952 791 952 791 1018 862.5 c 128,-1,48
 1084 934 1084 934 1143 1000 c 0,49,50
 1280 1151 1280 1151 1327 1228 c 1,51,52
 1108 1143 1108 1143 672 868 c 0,53,54
 508 765 508 765 403 689 c 1,41,42
EndSplineSet
EndChar

StartChar: five
Encoding: 53 53 46
Width: 1137
GlyphClass: 2
Flags: W
LayerCount: 2
Fore
SplineSet
685 1251 m 1,0,-1
 628 1008 l 1,1,2
 920 877 920 877 994 646 c 0,3,4
 1018 574 1018 574 1018 483 c 128,-1,5
 1018 392 1018 392 976.5 301 c 128,-1,6
 935 210 935 210 860 143 c 0,7,8
 698 0 698 0 437 0 c 0,9,10
 134 0 134 0 25 139 c 0,11,12
 4 165 4 165 4 185.5 c 128,-1,13
 4 206 4 206 5 228.5 c 128,-1,14
 6 251 6 251 20 296 c 1,15,16
 47 375 47 375 102 452 c 1,17,18
 267 373 267 373 386 373 c 0,19,20
 533 373 533 373 625 430 c 0,21,22
 720 489 720 489 720 594 c 0,23,24
 720 693 720 693 584 802 c 0,25,26
 526 848 526 848 469.5 886 c 128,-1,27
 413 924 413 924 397 938 c 1,28,29
 397 975 397 975 444.5 1085 c 128,-1,30
 492 1195 492 1195 513 1238 c 0,31,32
 560 1333 560 1333 575 1348 c 128,-1,33
 590 1363 590 1363 622 1367.5 c 128,-1,34
 654 1372 654 1372 702 1374 c 0,35,36
 782 1379 782 1379 990 1379 c 1,37,-1
 1108 1378 l 1,38,39
 1266 1378 1266 1378 1295 1385 c 1,40,41
 1296 1376 1296 1376 1296 1365 c 128,-1,42
 1296 1354 1296 1354 1294 1333.5 c 128,-1,43
 1292 1313 1292 1313 1282 1288 c 0,44,45
 1258 1227 1258 1227 1218 1227 c 0,46,47
 1128 1227 1128 1227 964.5 1236 c 128,-1,48
 801 1245 801 1245 755.5 1247 c 128,-1,49
 710 1249 710 1249 685 1251 c 1,0,-1
EndSplineSet
EndChar

StartChar: six
Encoding: 54 54 47
Width: 1243
GlyphClass: 2
Flags: W
LayerCount: 2
Fore
SplineSet
494 749 m 1,0,1
 660 817 660 817 768.5 817 c 128,-1,2
 877 817 877 817 949 785 c 128,-1,3
 1021 753 1021 753 1063.5 677.5 c 128,-1,4
 1106 602 1106 602 1106 500.5 c 128,-1,5
 1106 399 1106 399 1062 308 c 128,-1,6
 1018 217 1018 217 940 146 c 0,7,8
 766 -12 766 -12 526 -12 c 0,9,10
 229 -12 229 -12 151 220 c 0,11,12
 126 294 126 294 126 378.5 c 128,-1,13
 126 463 126 463 148 546.5 c 128,-1,14
 170 630 170 630 210 714 c 128,-1,15
 250 798 250 798 306 880 c 128,-1,16
 362 962 362 962 430 1035.5 c 128,-1,17
 498 1109 498 1109 576 1172 c 128,-1,18
 654 1235 654 1235 738 1280 c 1,19,20
 916 1378 916 1378 1084 1378 c 0,21,22
 1206 1378 1206 1378 1284 1318 c 0,23,24
 1323 1288 1323 1288 1323 1261 c 0,25,26
 1323 1229 1323 1229 1297.5 1200 c 128,-1,27
 1272 1171 1272 1171 1259 1158 c 1,28,29
 1179 1267 1179 1267 1074.5 1267 c 128,-1,30
 970 1267 970 1267 883 1222 c 128,-1,31
 796 1177 796 1177 722 1104 c 0,32,33
 573 957 573 957 494 749 c 1,0,1
454 600 m 1,34,35
 448 559 448 559 448 521 c 128,-1,36
 448 483 448 483 462 446 c 128,-1,37
 476 409 476 409 504 380 c 0,38,39
 565 317 565 317 665 317 c 0,40,41
 761 317 761 317 828 382 c 0,42,43
 892 445 892 445 892 514 c 0,44,45
 892 661 892 661 709 661 c 0,46,47
 592 661 592 661 454 600 c 1,34,35
EndSplineSet
EndChar

StartChar: seven
Encoding: 55 55 48
Width: 1053
GlyphClass: 2
Flags: W
LayerCount: 2
Fore
SplineSet
386 1129 m 1,0,1
 297 1166 297 1166 297 1251 c 0,2,3
 297 1304 297 1304 402 1338 c 1,4,5
 501 1369 501 1369 651 1369 c 0,6,7
 1000 1369 1000 1369 1236 1328 c 0,8,9
 1292 1319 1292 1319 1325 1307 c 1,10,11
 1348 1296 1348 1296 1348 1191 c 0,12,13
 1348 1180 1348 1180 1348 1168 c 1,14,15
 1054 1058 1054 1058 837 820 c 0,16,17
 655 621 655 621 560 372 c 0,18,19
 495 201 495 201 495 70 c 0,20,21
 495 38 495 38 500 11 c 1,22,23
 405 -2 405 -2 365 -2 c 128,-1,24
 325 -2 325 -2 283.5 -1.5 c 128,-1,25
 242 -1 242 -1 190 18 c 0,26,27
 83 57 83 57 83 176 c 0,28,29
 83 358 83 358 258 579 c 0,30,31
 416 780 416 780 680 959 c 0,32,33
 937 1134 937 1134 1196 1221 c 1,34,35
 1001 1239 1001 1239 841 1239 c 0,36,37
 417 1239 417 1239 386 1129 c 1,0,1
EndSplineSet
EndChar

StartChar: eight
Encoding: 56 56 49
Width: 1341
GlyphClass: 2
Flags: W
LayerCount: 2
Fore
SplineSet
1006 803 m 1,0,1
 1178 651 1178 651 1178 516 c 0,2,3
 1178 295 1178 295 984 148 c 0,4,5
 789 0 789 0 487 0 c 0,6,7
 307 0 307 0 190 90 c 0,8,9
 68 184 68 184 68 339 c 0,10,11
 68 568 68 568 436 732 c 0,12,13
 540 779 540 779 648 819 c 1,14,15
 563 892 563 892 532 935 c 0,16,17
 472 1017 472 1017 472 1086 c 128,-1,18
 472 1155 472 1155 512 1209 c 128,-1,19
 552 1263 552 1263 621 1300 c 0,20,21
 762 1377 762 1377 982 1377 c 0,22,23
 1144 1377 1144 1377 1256 1306 c 0,24,25
 1374 1230 1374 1230 1374 1112 c 0,26,27
 1374 976 1374 976 1146 866 c 0,28,29
 1079 833 1079 833 1006 803 c 1,0,1
883 904 m 1,30,31
 1040 962 1040 962 1097 997 c 128,-1,32
 1154 1032 1154 1032 1178.5 1060.5 c 128,-1,33
 1203 1089 1203 1089 1203 1124.5 c 128,-1,34
 1203 1160 1203 1160 1182 1187.5 c 128,-1,35
 1161 1215 1161 1215 1128 1232 c 0,36,37
 1063 1267 1063 1267 996.5 1267 c 128,-1,38
 930 1267 930 1267 883 1256.5 c 128,-1,39
 836 1246 836 1246 796 1226 c 0,40,41
 706 1180 706 1180 706 1112 c 0,42,43
 706 1068 706 1068 744 1027 c 0,44,45
 798 970 798 970 883 904 c 1,30,31
473.5 527 m 128,-1,47
 448 491 448 491 448 456 c 128,-1,48
 448 421 448 421 459.5 397 c 128,-1,49
 471 373 471 373 494 355 c 0,50,51
 541 317 541 317 615.5 317 c 128,-1,52
 690 317 690 317 740 336 c 128,-1,53
 790 355 790 355 824 384 c 0,54,55
 894 444 894 444 894 507 c 128,-1,56
 894 570 894 570 859 617 c 128,-1,57
 824 664 824 664 773 711 c 1,58,59
 618 648 618 648 558.5 605.5 c 128,-1,46
 499 563 499 563 473.5 527 c 128,-1,47
EndSplineSet
EndChar

StartChar: nine
Encoding: 57 57 50
Width: 1205
GlyphClass: 2
Flags: W
LayerCount: 2
Fore
SplineSet
811 627 m 1,0,1
 683 565 683 565 582.5 565 c 128,-1,2
 482 565 482 565 426 585.5 c 128,-1,3
 370 606 370 606 334 642 c 0,4,5
 265 711 265 711 265 827 c 0,6,7
 265 1016 265 1016 420 1191 c 0,8,9
 519 1304 519 1304 656 1352 c 0,10,11
 726 1377 726 1377 811 1377 c 128,-1,12
 896 1377 896 1377 965 1347 c 128,-1,13
 1034 1317 1034 1317 1079 1262 c 0,14,15
 1169 1152 1169 1152 1169 954 c 0,16,17
 1169 731 1169 731 1056 508 c 0,18,19
 861 124 861 124 479 -3 c 0,20,21
 344 -48 344 -48 226 -48 c 128,-1,22
 108 -48 108 -48 57 -22 c 0,23,24
 -60 38 -60 38 -60 178 c 0,25,26
 -60 210 -60 210 -53 243 c 1,27,28
 -48 243 -48 243 -44 243 c 0,29,30
 358 243 358 243 656 479 c 0,31,32
 745 549 745 549 811 627 c 1,0,1
557 814 m 0,33,34
 590 804 590 804 635.5 804 c 128,-1,35
 681 804 681 804 728.5 813.5 c 128,-1,36
 776 823 776 823 821 839 c 0,37,38
 915 872 915 872 975 918 c 1,39,40
 993 981 993 981 993 1032.5 c 128,-1,41
 993 1084 993 1084 980.5 1123 c 128,-1,42
 968 1162 968 1162 942 1190 c 0,43,44
 887 1251 887 1251 783 1251 c 0,45,46
 660 1251 660 1251 559 1144 c 1,47,48
 462 1043 462 1043 462 939 c 0,49,50
 462 845 462 845 557 814 c 0,33,34
EndSplineSet
EndChar

StartChar: colon
Encoding: 58 58 51
Width: 828
GlyphClass: 2
Flags: W
LayerCount: 2
Fore
SplineSet
444.5 530.5 m 128,-1,1
 431 555 431 555 431 587 c 128,-1,2
 431 619 431 619 455.5 654 c 128,-1,3
 480 689 480 689 516 718 c 0,4,5
 596 782 596 782 654 782 c 0,6,7
 696 782 696 782 737 752 c 0,8,9
 813 695 813 695 813 644 c 0,10,11
 813 582 813 582 737 516.5 c 128,-1,12
 661 451 661 451 590 451 c 0,13,14
 527 451 527 451 492.5 478.5 c 128,-1,0
 458 506 458 506 444.5 530.5 c 128,-1,1
193 -14.5 m 128,-1,16
 180 9 180 9 180 44 c 128,-1,17
 180 79 180 79 204 118 c 128,-1,18
 228 157 228 157 268 188 c 0,19,20
 359 257 359 257 458 257 c 128,-1,21
 557 257 557 257 602.5 216 c 128,-1,22
 648 175 648 175 648 109 c 0,23,24
 648 34 648 34 534 -29 c 0,25,26
 429 -87 429 -87 336 -87 c 0,27,28
 273 -87 273 -87 239.5 -62.5 c 128,-1,15
 206 -38 206 -38 193 -14.5 c 128,-1,16
EndSplineSet
EndChar

StartChar: semicolon
Encoding: 59 59 52
Width: 828
GlyphClass: 2
Flags: W
LayerCount: 2
Fore
SplineSet
444.5 530.5 m 128,-1,1
 431 555 431 555 431 587 c 128,-1,2
 431 619 431 619 455.5 654 c 128,-1,3
 480 689 480 689 516 718 c 0,4,5
 596 782 596 782 654 782 c 0,6,7
 696 782 696 782 737 752 c 0,8,9
 813 695 813 695 813 644 c 0,10,11
 813 582 813 582 737 516.5 c 128,-1,12
 661 451 661 451 590 451 c 0,13,14
 527 451 527 451 492.5 478.5 c 128,-1,0
 458 506 458 506 444.5 530.5 c 128,-1,1
268 -15 m 1,15,16
 240 16 240 16 240 62 c 128,-1,17
 240 108 240 108 259 142.5 c 128,-1,18
 278 177 278 177 310 202 c 0,19,20
 380 257 380 257 468.5 257 c 128,-1,21
 557 257 557 257 602.5 216 c 128,-1,22
 648 175 648 175 648 115 c 128,-1,23
 648 55 648 55 619.5 -0.5 c 128,-1,24
 591 -56 591 -56 543.5 -108.5 c 128,-1,25
 496 -161 496 -161 435.5 -207 c 128,-1,26
 375 -253 375 -253 310 -287 c 0,27,28
 170 -361 170 -361 68 -361 c 0,29,30
 31 -361 31 -361 -10 -288 c 0,31,32
 -20 -270 -20 -270 -24 -256 c 1,33,34
 126 -166 126 -166 222 -73 c 0,35,36
 256 -40 256 -40 268 -15 c 1,15,16
EndSplineSet
EndChar

StartChar: less
Encoding: 60 60 53
Width: 1085
GlyphClass: 2
Flags: W
LayerCount: 2
Fore
SplineSet
157 442 m 128,-1,1
 124 494 124 494 124 525 c 128,-1,2
 124 556 124 556 156.5 594.5 c 128,-1,3
 189 633 189 633 243 678 c 128,-1,4
 297 723 297 723 367 773 c 128,-1,5
 437 823 437 823 511.5 871 c 128,-1,6
 586 919 586 919 660.5 962.5 c 128,-1,7
 735 1006 735 1006 798 1038 c 0,8,9
 935 1110 935 1110 969 1110 c 0,10,11
 998 1110 998 1110 1036 1052 c 0,12,13
 1045 1039 1045 1039 1049 1031 c 1,14,15
 976 997 976 997 813.5 882.5 c 128,-1,16
 651 768 651 768 598.5 728.5 c 128,-1,17
 546 689 546 689 506 656 c 0,18,19
 416 583 416 583 417.5 565.5 c 128,-1,20
 419 548 419 548 438 524 c 128,-1,21
 457 500 457 500 488 470 c 0,22,23
 546 415 546 415 640.5 342.5 c 128,-1,24
 735 270 735 270 857 186 c 1,25,26
 853 155 853 155 811 109 c 0,27,28
 734 22 734 22 702 22 c 128,-1,29
 670 22 670 22 612.5 49.5 c 128,-1,30
 555 77 555 77 490 121.5 c 128,-1,31
 425 166 425 166 360 221.5 c 128,-1,32
 295 277 295 277 242.5 333.5 c 128,-1,0
 190 390 190 390 157 442 c 128,-1,1
EndSplineSet
EndChar

StartChar: equal
Encoding: 61 61 54
Width: 1436
GlyphClass: 2
Flags: W
LayerCount: 2
Fore
SplineSet
349 829 m 1,0,1
 449 801 449 801 756 801 c 128,-1,2
 1063 801 1063 801 1222 827 c 1,3,4
 1226 812 1226 812 1226 801.5 c 128,-1,5
 1226 791 1226 791 1225 778 c 128,-1,6
 1224 765 1224 765 1217 746 c 0,7,8
 1202 707 1202 707 1172 693 c 0,9,10
 1054 642 1054 642 697 627 c 0,11,12
 601 623 601 623 517 623 c 0,13,14
 336 623 336 623 336 744 c 0,15,16
 336 782 336 782 349 829 c 1,0,1
282 461 m 1,17,18
 382 433 382 433 689 433 c 128,-1,19
 996 433 996 433 1155 459 c 1,20,21
 1159 444 1159 444 1159 433 c 128,-1,22
 1159 422 1159 422 1158 409 c 128,-1,23
 1157 396 1157 396 1150 378 c 0,24,25
 1136 337 1136 337 1105 325 c 0,26,27
 910 255 910 255 450 255 c 0,28,29
 269 255 269 255 269 376 c 0,30,31
 269 414 269 414 282 461 c 1,17,18
EndSplineSet
EndChar

StartChar: greater
Encoding: 62 62 55
Width: 1085
GlyphClass: 2
Flags: W
LayerCount: 2
Fore
SplineSet
719 635 m 0,0,1
 719 704 719 704 354 1058 c 1,2,3
 375 1087 375 1087 400 1098.5 c 128,-1,4
 425 1110 425 1110 438 1110 c 128,-1,5
 451 1110 451 1110 482.5 1093 c 128,-1,6
 514 1076 514 1076 555.5 1047 c 128,-1,7
 597 1018 597 1018 645 979 c 128,-1,8
 693 940 693 940 741 896.5 c 128,-1,9
 789 853 789 853 833 807.5 c 128,-1,10
 877 762 877 762 911 720 c 0,11,12
 986 626 986 626 986 576 c 0,13,14
 986 484 986 484 636 248 c 0,15,16
 423 105 423 105 274 40 c 0,17,18
 231 22 231 22 208.5 22 c 128,-1,19
 186 22 186 22 158.5 41.5 c 128,-1,20
 131 61 131 61 106 89 c 0,21,22
 57 146 57 146 37 200 c 1,23,24
 194 272 194 272 521 479 c 0,25,26
 719 604 719 604 719 635 c 0,0,1
EndSplineSet
EndChar

StartChar: question
Encoding: 63 63 56
Width: 1130
GlyphClass: 2
Flags: W
LayerCount: 2
Fore
SplineSet
669 1138 m 1,0,1
 681 1116 681 1116 681 1100.5 c 128,-1,2
 681 1085 681 1085 663.5 1068 c 128,-1,3
 646 1051 646 1051 618 1034 c 0,4,5
 552 993 552 993 483 993 c 0,6,7
 336 993 336 993 336 1128 c 0,8,9
 336 1236 336 1236 462 1350 c 1,10,11
 577 1456 577 1456 756 1528 c 1,12,13
 938 1600 938 1600 1092 1600 c 0,14,15
 1291 1600 1291 1600 1358 1470 c 0,16,17
 1380 1426 1380 1426 1380 1369 c 128,-1,18
 1380 1312 1380 1312 1351.5 1257 c 128,-1,19
 1323 1202 1323 1202 1276.5 1147.5 c 128,-1,20
 1230 1093 1230 1093 1170.5 1040 c 128,-1,21
 1111 987 1111 987 1049 937 c 128,-1,22
 987 887 987 887 927.5 841 c 128,-1,23
 868 795 868 795 822 754 c 0,24,25
 718 664 718 664 718 617 c 0,26,27
 718 554 718 554 772 530 c 0,28,29
 830 504 830 504 899 561 c 1,30,31
 913 558 913 558 920.5 542 c 128,-1,32
 928 526 928 526 908.5 503 c 128,-1,33
 889 480 889 480 849 454.5 c 128,-1,34
 809 429 809 429 764 412 c 0,35,36
 675 377 675 377 602 377 c 128,-1,37
 529 377 529 377 483.5 390.5 c 128,-1,38
 438 404 438 404 404 429 c 0,39,40
 330 483 330 483 330 559.5 c 128,-1,41
 330 636 330 636 369 696.5 c 128,-1,42
 408 757 408 757 471.5 809.5 c 128,-1,43
 535 862 535 862 616 908 c 128,-1,44
 697 954 697 954 782 997.5 c 128,-1,45
 867 1041 867 1041 948 1084 c 128,-1,46
 1029 1127 1029 1127 1092 1172 c 0,47,48
 1234 1274 1234 1274 1234 1378 c 0,49,50
 1234 1438 1234 1438 1193.5 1471 c 128,-1,51
 1153 1504 1153 1504 1091.5 1504 c 128,-1,52
 1030 1504 1030 1504 965.5 1492 c 128,-1,53
 901 1480 901 1480 837.5 1459 c 128,-1,54
 774 1438 774 1438 715 1408 c 128,-1,55
 656 1378 656 1378 612 1343 c 0,56,57
 513 1266 513 1266 513 1186 c 0,58,59
 513 1055 513 1055 669 1138 c 1,0,1
193 -14.5 m 128,-1,61
 180 9 180 9 180 44 c 128,-1,62
 180 79 180 79 204 118 c 128,-1,63
 228 157 228 157 268 188 c 0,64,65
 359 257 359 257 458 257 c 128,-1,66
 557 257 557 257 602.5 216 c 128,-1,67
 648 175 648 175 648 109 c 0,68,69
 648 34 648 34 532 -29 c 0,70,71
 426 -87 426 -87 336 -87 c 0,72,73
 273 -87 273 -87 239.5 -62.5 c 128,-1,60
 206 -38 206 -38 193 -14.5 c 128,-1,61
EndSplineSet
EndChar

StartChar: at
Encoding: 64 64 57
Width: 1500
GlyphClass: 2
Flags: W
LayerCount: 2
Fore
SplineSet
1027 406 m 0,0,1
 1027 339 1027 339 1070 339 c 128,-1,2
 1113 339 1113 339 1157.5 367 c 128,-1,3
 1202 395 1202 395 1238 442 c 0,4,5
 1318 550 1318 550 1318 681 c 0,6,7
 1318 804 1318 804 1234 870 c 0,8,9
 1157 931 1157 931 1018 931 c 0,10,11
 848 931 848 931 656 840 c 0,12,13
 460 746 460 746 334 606 c 1,14,15
 196 450 196 450 196 288 c 0,16,17
 196 182 196 182 246 110 c 0,18,19
 357 -50 357 -50 612 -50 c 0,20,21
 699 -50 699 -50 789 -29 c 1,22,23
 821 -75 821 -75 796.5 -96.5 c 128,-1,24
 772 -118 772 -118 737 -136.5 c 128,-1,25
 702 -155 702 -155 664 -168 c 0,26,27
 590 -192 590 -192 498.5 -192 c 128,-1,28
 407 -192 407 -192 318.5 -164.5 c 128,-1,29
 230 -137 230 -137 164 -83 c 0,30,31
 22 33 22 33 22 236 c 0,32,33
 22 415 22 415 178 601 c 1,34,35
 327 777 327 777 560 891 c 0,36,37
 801 1009 801 1009 1036 1009 c 0,38,39
 1329 1009 1329 1009 1417 822 c 0,40,41
 1447 759 1447 759 1447 679 c 128,-1,42
 1447 599 1447 599 1428.5 529.5 c 128,-1,43
 1410 460 1410 460 1377 398 c 128,-1,44
 1344 336 1344 336 1296.5 284 c 128,-1,45
 1249 232 1249 232 1192 194 c 0,46,47
 1072 114 1072 114 930 114 c 0,48,49
 826 114 826 114 790 176 c 0,50,51
 778 198 778 198 779 228 c 1,52,53
 676 114 676 114 541 114 c 0,54,55
 452 114 452 114 398 168 c 0,56,57
 346 220 346 220 346 290.5 c 128,-1,58
 346 361 346 361 368.5 415 c 128,-1,59
 391 469 391 469 430.5 519 c 128,-1,60
 470 569 470 569 525 611.5 c 128,-1,61
 580 654 580 654 645 685 c 0,62,63
 785 752 785 752 931 752 c 0,64,65
 982 752 982 752 1001 719 c 1,66,67
 1006 725 1006 725 1009.5 731 c 128,-1,68
 1013 737 1013 737 1021 746 c 0,69,70
 1047 777 1047 777 1128 757 c 1,71,72
 1027 515 1027 515 1027 406 c 0,0,1
584 412 m 0,73,74
 584 371 584 371 597 355 c 128,-1,75
 610 339 610 339 646.5 339 c 128,-1,76
 683 339 683 339 725 370 c 128,-1,77
 767 401 767 401 808 448 c 1,78,79
 865 516 865 516 957 654 c 1,80,81
 786 650 786 650 682 573 c 0,82,83
 584 501 584 501 584 412 c 0,73,74
EndSplineSet
EndChar

StartChar: A
Encoding: 65 65 58
Width: 2139
GlyphClass: 2
Flags: W
LayerCount: 2
Fore
SplineSet
1388 762 m 1,0,1
 1239 834 1239 834 1121 871 c 1,2,3
 866 563 866 563 820 274 c 0,4,5
 813 227 813 227 813 179.5 c 128,-1,6
 813 132 813 132 822 84 c 1,7,8
 722 10 722 10 616 -26 c 0,9,10
 579 -39 579 -39 556 -39 c 128,-1,11
 533 -39 533 -39 508.5 -27 c 128,-1,12
 484 -15 484 -15 464 10 c 1,13,14
 416 66 416 66 416 159 c 128,-1,15
 416 252 416 252 449.5 347 c 128,-1,16
 483 442 483 442 542 539 c 0,17,18
 653 722 653 722 862 920 c 1,19,20
 780 925 780 925 699 925 c 128,-1,21
 618 925 618 925 530 904 c 0,22,23
 344 860 344 860 308 736 c 0,24,25
 301 714 301 714 301 678.5 c 128,-1,26
 301 643 301 643 325 587 c 1,27,28
 305 550 305 550 232 557 c 0,29,30
 156 564 156 564 113 598 c 0,31,32
 32 662 32 662 32 739 c 0,33,34
 32 889 32 889 242 980 c 0,35,36
 437 1065 437 1065 717 1065 c 0,37,38
 842 1065 842 1065 991 1033 c 1,39,40
 1366 1345 1366 1345 1760 1490 c 0,41,42
 1950 1560 1950 1560 2096 1560 c 0,43,44
 2164 1560 2164 1560 2197.5 1529.5 c 128,-1,45
 2231 1499 2231 1499 2231 1452.5 c 128,-1,46
 2231 1406 2231 1406 2206.5 1337 c 128,-1,47
 2182 1268 2182 1268 2145 1183.5 c 128,-1,48
 2108 1099 2108 1099 2065.5 1002 c 128,-1,49
 2023 905 2023 905 1986 804 c 0,50,51
 1900 569 1900 569 1900 406 c 0,52,53
 1900 287 1900 287 2005 287 c 0,54,55
 2035 287 2035 287 2071 302 c 1,56,57
 2090 289 2090 289 2102 267.5 c 128,-1,58
 2114 246 2114 246 2114 230 c 128,-1,59
 2114 214 2114 214 2101.5 184 c 128,-1,60
 2089 154 2089 154 2066 123.5 c 128,-1,61
 2043 93 2043 93 2010.5 65 c 128,-1,62
 1978 37 1978 37 1939 15 c 0,63,64
 1793 -68 1793 -68 1623 -10 c 1,65,66
 1482 37 1482 37 1422 184 c 0,67,68
 1392 260 1392 260 1392 357 c 128,-1,69
 1392 454 1392 454 1422 539.5 c 128,-1,70
 1452 625 1452 625 1500.5 707.5 c 128,-1,71
 1549 790 1549 790 1611.5 867 c 128,-1,72
 1674 944 1674 944 1739.5 1014.5 c 128,-1,73
 1805 1085 1805 1085 1867.5 1147 c 128,-1,74
 1930 1209 1930 1209 1978 1262 c 1,75,76
 2087 1379 2087 1379 2087 1423 c 0,77,78
 2087 1446 2087 1446 2045 1446 c 0,79,80
 1863 1446 1863 1446 1630 1310 c 0,81,82
 1405 1178 1405 1178 1208 969 c 1,83,84
 1367 912 1367 912 1401 866 c 0,85,86
 1440 814 1440 814 1388 762 c 1,0,1
EndSplineSet
EndChar

StartChar: B
Encoding: 66 66 59
Width: 1767
GlyphClass: 2
Flags: W
LayerCount: 2
Fore
SplineSet
1448 805 m 1,0,1
 1696 689 1696 689 1696 470 c 0,2,3
 1696 274 1696 274 1542 145 c 0,4,5
 1337 -27 1337 -27 983 -27 c 0,6,7
 720 -27 720 -27 496 73 c 0,8,9
 277 171 277 171 162 346 c 0,10,11
 79 473 79 473 79 554 c 0,12,13
 79 585 79 585 159 607 c 1,14,15
 240 493 240 493 447 412 c 1,16,17
 510 496 510 496 617 651 c 128,-1,18
 724 806 724 806 784 892.5 c 128,-1,19
 844 979 844 979 904 1059 c 0,20,21
 1037 1236 1037 1236 1135 1327 c 1,22,23
 1165 1357 1165 1357 1226 1329 c 0,24,25
 1242 1322 1242 1322 1252 1313 c 1,26,27
 1169 1229 1169 1229 1028 979 c 1,28,29
 1120 957 1120 957 1189 957 c 128,-1,30
 1258 957 1258 957 1326 972.5 c 128,-1,31
 1394 988 1394 988 1450 1018 c 0,32,33
 1579 1085 1579 1085 1579 1183 c 0,34,35
 1579 1374 1579 1374 1288 1446 c 0,36,37
 1174 1475 1174 1475 1060.5 1475 c 128,-1,38
 947 1475 947 1475 847 1459.5 c 128,-1,39
 747 1444 747 1444 669 1411 c 0,40,41
 497 1338 497 1338 497 1204 c 0,42,43
 497 1091 497 1091 581 1014 c 1,44,45
 490 917 490 917 436 917 c 0,46,47
 374 917 374 917 320 984 c 0,48,49
 265 1053 265 1053 265 1135 c 128,-1,50
 265 1217 265 1217 299.5 1279 c 128,-1,51
 334 1341 334 1341 393 1389.5 c 128,-1,52
 452 1438 452 1438 529.5 1474 c 128,-1,53
 607 1510 607 1510 694 1534 c 0,54,55
 863 1581 863 1581 998 1581 c 128,-1,56
 1133 1581 1133 1581 1223.5 1569.5 c 128,-1,57
 1314 1558 1314 1558 1396 1534 c 128,-1,58
 1478 1510 1478 1510 1548 1474 c 128,-1,59
 1618 1438 1618 1438 1670 1389 c 0,60,61
 1779 1285 1779 1285 1779 1140 c 0,62,63
 1779 1024 1779 1024 1682 932 c 1,64,65
 1595 847 1595 847 1448 805 c 1,0,1
678 345 m 1,66,67
 795 322 795 322 867 322 c 128,-1,68
 939 322 939 322 989 325.5 c 128,-1,69
 1039 329 1039 329 1097.5 345 c 128,-1,70
 1156 361 1156 361 1198 390 c 0,71,72
 1290 452 1290 452 1290 560 c 0,73,74
 1290 665 1290 665 1183 732 c 0,75,76
 1085 793 1085 793 930 799 c 1,77,78
 897 737 897 737 864 675 c 128,-1,79
 831 613 831 613 799 554 c 0,80,81
 731 430 731 430 678 345 c 1,66,67
EndSplineSet
EndChar

StartChar: C
Encoding: 67 67 60
Width: 1361
GlyphClass: 2
Flags: W
LayerCount: 2
Fore
SplineSet
1286 1264 m 1,0,1
 1340 1329 1340 1329 1340 1384 c 0,2,3
 1340 1425 1340 1425 1311.5 1443.5 c 128,-1,4
 1283 1462 1283 1462 1219 1462 c 128,-1,5
 1155 1462 1155 1462 1063 1429.5 c 128,-1,6
 971 1397 971 1397 886.5 1341 c 128,-1,7
 802 1285 802 1285 728.5 1209.5 c 128,-1,8
 655 1134 655 1134 601 1047 c 0,9,10
 485 860 485 860 485 682 c 0,11,12
 485 503 485 503 610 386 c 0,13,14
 755 250 755 250 989 250 c 0,15,16
 1229 250 1229 250 1412 394 c 0,17,18
 1486 453 1486 453 1540 536 c 1,19,20
 1585 539 1585 539 1585 499 c 0,21,22
 1585 483 1585 483 1575 460 c 0,23,24
 1495 271 1495 271 1318 140 c 0,25,26
 1055 -54 1055 -54 729 -54 c 0,27,28
 527 -54 527 -54 372 33 c 0,29,30
 205 126 205 126 139 312 c 0,31,32
 105 408 105 408 105 518 c 128,-1,33
 105 628 105 628 134 725 c 128,-1,34
 163 822 163 822 215.5 914 c 128,-1,35
 268 1006 268 1006 340 1090 c 128,-1,36
 412 1174 412 1174 498.5 1247.5 c 128,-1,37
 585 1321 585 1321 681.5 1380.5 c 128,-1,38
 778 1440 778 1440 880 1482 c 1,39,40
 1093 1572 1093 1572 1285 1572 c 0,41,42
 1480 1572 1480 1572 1550 1462 c 0,43,44
 1575 1424 1575 1424 1575 1376 c 128,-1,45
 1575 1328 1575 1328 1560 1293.5 c 128,-1,46
 1545 1259 1545 1259 1522 1234 c 0,47,48
 1474 1182 1474 1182 1431 1182 c 0,49,50
 1391 1182 1391 1182 1310 1243 c 0,51,52
 1292 1257 1292 1257 1286 1264 c 1,0,1
EndSplineSet
EndChar

StartChar: D
Encoding: 68 68 61
Width: 1833
GlyphClass: 2
Flags: W
LayerCount: 2
Fore
SplineSet
1091 1588 m 0,0,1
 1920 1588 1920 1588 1920 981 c 0,2,3
 1920 745 1920 745 1782 514 c 0,4,5
 1639 276 1639 276 1399 131 c 0,6,7
 1137 -28 1137 -28 821 -28 c 0,8,9
 545 -28 545 -28 334 104 c 0,10,11
 103 248 103 248 57 503 c 0,12,13
 56 510 56 510 56 519 c 128,-1,14
 56 528 56 528 60 539 c 128,-1,15
 64 550 64 550 75 560 c 0,16,17
 94 576 94 576 133 585 c 1,18,19
 232 449 232 449 414 381 c 1,20,21
 481 467 481 467 592 625.5 c 128,-1,22
 703 784 703 784 767 874 c 128,-1,23
 831 964 831 964 894 1048 c 0,24,25
 1034 1234 1034 1234 1135 1327 c 1,26,27
 1165 1357 1165 1357 1226 1329 c 0,28,29
 1242 1322 1242 1322 1252 1313 c 1,30,31
 1176 1235 1176 1235 1094.5 1092.5 c 128,-1,32
 1013 950 1013 950 961.5 853 c 128,-1,33
 910 756 910 756 860 661 c 0,34,35
 735 423 735 423 673 326 c 1,36,37
 721 322 721 322 801.5 322 c 128,-1,38
 882 322 882 322 992 356 c 128,-1,39
 1102 390 1102 390 1202 448.5 c 128,-1,40
 1302 507 1302 507 1388 585 c 128,-1,41
 1474 663 1474 663 1537 752 c 0,42,43
 1672 941 1672 941 1672 1119 c 0,44,45
 1672 1482 1672 1482 1068 1482 c 0,46,47
 868 1482 868 1482 698 1414 c 0,48,49
 502 1335 502 1335 502 1214 c 0,50,51
 502 1101 502 1101 586 1024 c 1,52,53
 495 927 495 927 441 927 c 0,54,55
 381 927 381 927 334 1004 c 0,56,57
 288 1080 288 1080 288 1164.5 c 128,-1,58
 288 1249 288 1249 325 1309.5 c 128,-1,59
 362 1370 362 1370 424.5 1416.5 c 128,-1,60
 487 1463 487 1463 568.5 1495.5 c 128,-1,61
 650 1528 650 1528 739 1548 c 0,62,63
 910 1588 910 1588 1091 1588 c 0,0,1
EndSplineSet
EndChar

StartChar: E
Encoding: 69 69 62
Width: 1328
GlyphClass: 2
Flags: W
LayerCount: 2
Fore
SplineSet
1224 435 m 1,0,1
 1273 390 1273 390 1273 372 c 0,2,3
 1273 290 1273 290 1185 196 c 0,4,5
 1044 44 1044 44 832 -9 c 0,6,7
 760 -27 760 -27 659.5 -27 c 128,-1,8
 559 -27 559 -27 457 2 c 128,-1,9
 355 31 355 31 284 84 c 0,10,11
 140 193 140 193 140 374 c 0,12,13
 140 647 140 647 376 822 c 0,14,15
 595 984 595 984 890 994 c 1,16,17
 725 1099 725 1099 725 1241 c 0,18,19
 725 1380 725 1380 962 1474 c 0,20,21
 1179 1559 1179 1559 1418 1559 c 0,22,23
 1593 1559 1593 1559 1652 1457 c 0,24,25
 1671 1423 1671 1423 1671 1384 c 128,-1,26
 1671 1345 1671 1345 1660.5 1310.5 c 128,-1,27
 1650 1276 1650 1276 1632 1248 c 0,28,29
 1590 1185 1590 1185 1534 1185 c 0,30,31
 1499 1185 1499 1185 1451 1225 c 0,32,33
 1439 1235 1439 1235 1433 1242 c 1,34,35
 1477 1294 1477 1294 1477 1366 c 0,36,37
 1477 1449 1477 1449 1365 1449 c 0,38,39
 1237 1449 1237 1449 1093 1404 c 0,40,41
 917 1348 917 1348 917 1263 c 0,42,43
 917 1129 917 1129 1164 1034 c 0,44,45
 1250 1001 1250 1001 1364 977 c 1,46,47
 1326 832 1326 832 1314 817.5 c 128,-1,48
 1302 803 1302 803 1297 805 c 0,49,50
 1154 854 1154 854 1010 854 c 0,51,52
 781 854 781 854 642 740 c 1,53,54
 528 648 528 648 528 515 c 0,55,56
 528 420 528 420 614 360 c 0,57,58
 702 299 702 299 846 299 c 0,59,60
 1038 299 1038 299 1224 435 c 1,0,1
EndSplineSet
EndChar

StartChar: F
Encoding: 70 70 63
Width: 1404
GlyphClass: 2
Flags: W
LayerCount: 2
Fore
SplineSet
1419 1372 m 128,-1,1
 1442 1327 1442 1327 1442 1248.5 c 128,-1,2
 1442 1170 1442 1170 1397 1023 c 1,3,4
 1511 1006 1511 1006 1605 975 c 0,5,6
 1634 965 1634 965 1634 909 c 0,7,8
 1634 897 1634 897 1632 883 c 1,9,10
 1499 906 1499 906 1357 909 c 1,11,12
 1221 550 1221 550 984 266 c 1,13,14
 814 64 814 64 635 -17 c 0,15,16
 542 -59 542 -59 464.5 -59 c 128,-1,17
 387 -59 387 -59 343 -34.5 c 128,-1,18
 299 -10 299 -10 270 30 c 0,19,20
 215 109 215 109 215 204.5 c 128,-1,21
 215 300 215 300 235 369 c 128,-1,22
 255 438 255 438 283 496 c 0,23,24
 336 605 336 605 395 659 c 0,25,26
 431 692 431 692 497 651 c 1,27,28
 471 580 471 580 471 523 c 0,29,30
 471 358 471 358 567 358 c 0,31,32
 736 358 736 358 964 645 c 0,33,34
 1053 758 1053 758 1135 902 c 1,35,36
 915 883 915 883 812 828 c 0,37,38
 779 810 779 810 765 789 c 1,39,40
 702 835 702 835 702 880 c 128,-1,41
 702 925 702 925 753 960 c 0,42,43
 870 1041 870 1041 1171 1041 c 2,44,-1
 1188 1041 l 2,45,46
 1197 1041 1197 1041 1205 1040 c 1,47,48
 1277 1195 1277 1195 1277 1258.5 c 128,-1,49
 1277 1322 1277 1322 1241.5 1356.5 c 128,-1,50
 1206 1391 1206 1391 1148 1414 c 0,51,52
 1036 1457 1036 1457 871 1457 c 0,53,54
 687 1457 687 1457 506 1406 c 0,55,56
 296 1347 296 1347 296 1252 c 0,57,58
 296 1198 296 1198 335 1127 c 1,59,60
 275 1064 275 1064 184 1064 c 0,61,62
 139 1064 139 1064 96 1136 c 0,63,64
 56 1203 56 1203 56 1256.5 c 128,-1,65
 56 1310 56 1310 95.5 1357 c 128,-1,66
 135 1404 135 1404 200 1439.5 c 128,-1,67
 265 1475 265 1475 349.5 1500 c 128,-1,68
 434 1525 434 1525 525 1540 c 0,69,70
 698 1570 698 1570 819 1570 c 128,-1,71
 940 1570 940 1570 1009.5 1563.5 c 128,-1,72
 1079 1557 1079 1557 1142.5 1543 c 128,-1,73
 1206 1529 1206 1529 1260.5 1506 c 128,-1,74
 1315 1483 1315 1483 1355.5 1450 c 128,-1,0
 1396 1417 1396 1417 1419 1372 c 128,-1,1
EndSplineSet
EndChar

StartChar: G
Encoding: 71 71 64
Width: 1694
GlyphClass: 2
Flags: W
LayerCount: 2
Fore
SplineSet
1658 897 m 1,0,1
 1668 845 1668 845 1668 765.5 c 128,-1,2
 1668 686 1668 686 1630.5 586.5 c 128,-1,3
 1593 487 1593 487 1526.5 395.5 c 128,-1,4
 1460 304 1460 304 1369.5 225.5 c 128,-1,5
 1279 147 1279 147 1174 89 c 0,6,7
 948 -35 948 -35 718 -35 c 0,8,9
 296 -35 296 -35 170 261 c 0,10,11
 128 360 128 360 128 474 c 128,-1,12
 128 588 128 588 158.5 686.5 c 128,-1,13
 189 785 189 785 244.5 879.5 c 128,-1,14
 300 974 300 974 376 1063 c 128,-1,15
 452 1152 452 1152 543.5 1230.5 c 128,-1,16
 635 1309 635 1309 738.5 1374 c 128,-1,17
 842 1439 842 1439 951 1486 c 0,18,19
 1182 1584 1182 1584 1391 1584 c 0,20,21
 1773 1584 1773 1584 1773 1405 c 0,22,23
 1773 1354 1773 1354 1697 1296 c 1,24,25
 1613 1412 1613 1412 1464 1458 c 0,26,27
 1413 1473 1413 1473 1339 1473 c 128,-1,28
 1265 1473 1265 1473 1168 1443 c 128,-1,29
 1071 1413 1071 1413 980 1360 c 128,-1,30
 889 1307 889 1307 809 1233.5 c 128,-1,31
 729 1160 729 1160 670 1072 c 1,32,33
 541 884 541 884 541 693 c 128,-1,34
 541 502 541 502 635.5 405.5 c 128,-1,35
 730 309 730 309 906 309 c 0,36,37
 1032 309 1032 309 1170 372 c 0,38,39
 1397 477 1397 477 1482 667 c 0,40,41
 1512 733 1512 733 1516 807 c 1,42,43
 1297 692 1297 692 1105 692 c 0,44,45
 914 692 914 692 846 786 c 0,46,47
 822 819 822 819 822 859 c 128,-1,48
 822 899 822 899 850.5 931 c 128,-1,49
 879 963 879 963 926.5 990 c 128,-1,50
 974 1017 974 1017 1034 1038 c 128,-1,51
 1094 1059 1094 1059 1158 1074 c 0,52,53
 1289 1105 1289 1105 1392 1105 c 0,54,55
 1554 1105 1554 1105 1620 998 c 1,56,57
 1675 1036 1675 1036 1734 1089 c 1,58,59
 1780 1050 1780 1050 1780 1020 c 0,60,61
 1780 1010 1780 1010 1751.5 977.5 c 128,-1,62
 1723 945 1723 945 1658 897 c 1,0,1
1503 925 m 1,63,64
 1475 996 1475 996 1380 996 c 0,65,66
 1232 996 1232 996 1105 946 c 0,67,68
 1043 922 1043 922 1043 895 c 0,69,70
 1043 837 1043 837 1181 837 c 0,71,72
 1334 837 1334 837 1503 925 c 1,63,64
EndSplineSet
EndChar

StartChar: H
Encoding: 72 72 65
Width: 1908
GlyphClass: 2
Flags: W
LayerCount: 2
Fore
SplineSet
1354 202 m 1,0,1
 1355 415 1355 415 1504 760 c 1,2,3
 1404 787 1404 787 1309.5 820 c 128,-1,4
 1215 853 1215 853 1122 881 c 1,5,6
 918 308 918 308 654 62 c 0,7,8
 495 -86 495 -86 332 -86 c 0,9,10
 121 -86 121 -86 68 128 c 0,11,12
 51 193 51 193 51 274.5 c 128,-1,13
 51 356 51 356 74.5 447 c 128,-1,14
 98 538 98 538 142.5 624.5 c 128,-1,15
 187 711 187 711 251.5 789 c 128,-1,16
 316 867 316 867 398 926 c 0,17,18
 578 1053 578 1053 793 1053 c 0,19,20
 888 1053 888 1053 1013 1025 c 1,21,22
 1163 1357 1163 1357 1183 1581 c 1,23,24
 1243 1581 1243 1581 1272 1553 c 0,25,26
 1295 1531 1295 1531 1244 1302 c 0,27,28
 1214 1164 1214 1164 1158 988 c 1,29,30
 1454 907 1454 907 1562 887 c 1,31,32
 1712 1199 1712 1199 1886 1452 c 0,33,34
 1936 1525 1936 1525 1976 1575 c 0,35,36
 1989 1590 1989 1590 2005.5 1590 c 128,-1,37
 2022 1590 2022 1590 2037 1584 c 0,38,39
 2063 1575 2063 1575 2093 1551 c 1,40,41
 1986 1417 1986 1417 1842 1064 c 0,42,43
 1799 961 1799 961 1765 862 c 1,44,45
 1803 860 1803 860 1841 860 c 128,-1,46
 1879 860 1879 860 1918 863 c 1,47,48
 1912 782 1912 782 1876 736 c 0,49,50
 1857 713 1857 713 1813.5 713 c 128,-1,51
 1770 713 1770 713 1719 719 c 1,52,53
 1677 574 1677 574 1677 519.5 c 128,-1,54
 1677 465 1677 465 1680.5 432.5 c 128,-1,55
 1684 400 1684 400 1696 374 c 0,56,57
 1721 317 1721 317 1783 317 c 0,58,59
 1896 317 1896 317 2020 448 c 0,60,61
 2059 488 2059 488 2091 536 c 1,62,63
 2136 539 2136 539 2136 499 c 0,64,65
 2136 458 2136 458 2086.5 380 c 128,-1,66
 2037 302 2037 302 1992 246 c 128,-1,67
 1947 190 1947 190 1895 138 c 128,-1,68
 1843 86 1843 86 1789 46 c 0,69,70
 1671 -43 1671 -43 1586 -43 c 0,71,72
 1354 -43 1354 -43 1354 202 c 1,0,1
319 530 m 0,73,74
 319 331 319 331 452 331 c 0,75,76
 590 331 590 331 794 628 c 0,77,78
 885 761 885 761 964 921 c 1,79,80
 888 937 888 937 786.5 937 c 128,-1,81
 685 937 685 937 592 899.5 c 128,-1,82
 499 862 499 862 438 804 c 0,83,84
 319 689 319 689 319 530 c 0,73,74
EndSplineSet
EndChar

StartChar: I
Encoding: 73 73 66
Width: 1189
GlyphClass: 2
Flags: W
LayerCount: 2
Fore
SplineSet
586.5 1306 m 128,-1,1
 569 1278 569 1278 569 1238.5 c 128,-1,2
 569 1199 569 1199 608 1121 c 1,3,4
 575 1084 575 1084 492 1060 c 0,5,6
 470 1054 470 1054 449.5 1054 c 128,-1,7
 429 1054 429 1054 406 1075 c 128,-1,8
 383 1096 383 1096 365 1126 c 0,9,10
 325 1193 325 1193 325 1240.5 c 128,-1,11
 325 1288 325 1288 356.5 1330.5 c 128,-1,12
 388 1373 388 1373 440.5 1408.5 c 128,-1,13
 493 1444 493 1444 560.5 1471.5 c 128,-1,14
 628 1499 628 1499 700 1518 c 0,15,16
 849 1557 849 1557 992 1557 c 0,17,18
 1288 1557 1288 1557 1288 1260 c 0,19,20
 1288 1007 1288 1007 1122 656 c 0,21,22
 949 290 949 290 720 94 c 0,23,24
 551 -50 551 -50 392 -50 c 0,25,26
 232 -50 232 -50 143 54 c 0,27,28
 61 150 61 150 61 307 c 0,29,30
 61 445 61 445 174 592 c 0,31,32
 240 678 240 678 279.5 684 c 128,-1,33
 319 690 319 690 350 681 c 1,34,35
 324 610 324 610 324 565.5 c 128,-1,36
 324 521 324 521 335 485.5 c 128,-1,37
 346 450 346 450 368 424 c 0,38,39
 416 367 416 367 496 367 c 128,-1,40
 576 367 576 367 647.5 414.5 c 128,-1,41
 719 462 719 462 789 539.5 c 128,-1,42
 859 617 859 617 923 715 c 128,-1,43
 987 813 987 813 1036 914 c 0,44,45
 1143 1135 1143 1135 1143 1276 c 0,46,47
 1143 1406 1143 1406 1019 1428 c 0,48,49
 980 1435 980 1435 938.5 1435 c 128,-1,50
 897 1435 897 1435 857 1430.5 c 128,-1,51
 817 1426 817 1426 776.5 1416 c 128,-1,52
 736 1406 736 1406 698.5 1391 c 128,-1,53
 661 1376 661 1376 632.5 1355 c 128,-1,0
 604 1334 604 1334 586.5 1306 c 128,-1,1
EndSplineSet
EndChar

StartChar: J
Encoding: 74 74 67
Width: 1208
GlyphClass: 2
Flags: W
LayerCount: 2
Fore
SplineSet
528 1214 m 0,0,1
 528 1170 528 1170 567 1099 c 1,2,3
 528 1055 528 1055 475 1055 c 0,4,5
 429 1055 429 1055 364 1113 c 1,6,7
 303 1169 303 1169 303 1215 c 128,-1,8
 303 1261 303 1261 334 1305.5 c 128,-1,9
 365 1350 365 1350 416.5 1388.5 c 128,-1,10
 468 1427 468 1427 536.5 1458 c 128,-1,11
 605 1489 605 1489 680 1511 c 0,12,13
 835 1557 835 1557 951.5 1557 c 128,-1,14
 1068 1557 1068 1557 1128 1539 c 128,-1,15
 1188 1521 1188 1521 1224 1484 c 1,16,17
 1288 1415 1288 1415 1288 1269 c 128,-1,18
 1288 1123 1288 1123 1264 986.5 c 128,-1,19
 1240 850 1240 850 1197 708.5 c 128,-1,20
 1154 567 1154 567 1094 427 c 128,-1,21
 1034 287 1034 287 961.5 159.5 c 128,-1,22
 889 32 889 32 806.5 -77.5 c 128,-1,23
 724 -187 724 -187 636 -267 c 0,24,25
 447 -439 447 -439 277 -439 c 0,26,27
 158 -439 158 -439 80 -364 c 1,28,29
 2 -291 2 -291 2 -198.5 c 128,-1,30
 2 -106 2 -106 33.5 -29 c 128,-1,31
 65 48 65 48 121.5 117.5 c 128,-1,32
 178 187 178 187 255.5 246.5 c 128,-1,33
 333 306 333 306 424 351 c 0,34,35
 618 446 618 446 827 460 c 1,36,37
 1039 778 1039 778 1111 1070 c 0,38,39
 1136 1171 1136 1171 1136 1264 c 128,-1,40
 1136 1357 1136 1357 1092 1398 c 128,-1,41
 1048 1439 1048 1439 952 1439 c 0,42,43
 825 1439 825 1439 688 1384 c 1,44,45
 528 1318 528 1318 528 1214 c 0,0,1
346 76 m 0,46,47
 346 31 346 31 387 31 c 0,48,49
 474 31 474 31 635 210 c 0,50,51
 685 265 685 265 736 332 c 1,52,53
 557 300 557 300 448 222 c 0,54,55
 346 150 346 150 346 76 c 0,46,47
EndSplineSet
EndChar

StartChar: K
Encoding: 75 75 68
Width: 1637
GlyphClass: 2
Flags: W
LayerCount: 2
Fore
SplineSet
1693 1567 m 1,0,1
 1832 1544 1832 1544 1832 1479 c 0,2,3
 1832 1368 1832 1368 1430 1110 c 0,4,5
 1268 1006 1268 1006 1080 907 c 1,6,7
 1116 871 1116 871 1144.5 794 c 128,-1,8
 1173 717 1173 717 1189.5 666 c 128,-1,9
 1206 615 1206 615 1226 565 c 128,-1,10
 1246 515 1246 515 1270 470 c 128,-1,11
 1294 425 1294 425 1326 390 c 0,12,13
 1396 315 1396 315 1492 315 c 0,14,15
 1567 315 1567 315 1666 383 c 0,16,17
 1762 449 1762 449 1820 536 c 1,18,19
 1865 539 1865 539 1865 499 c 0,20,21
 1865 453 1865 453 1808.5 364 c 128,-1,22
 1752 275 1752 275 1703.5 220.5 c 128,-1,23
 1655 166 1655 166 1598.5 120 c 128,-1,24
 1542 74 1542 74 1480 40 c 1,25,26
 1346 -31 1346 -31 1232.5 -31 c 128,-1,27
 1119 -31 1119 -31 1052.5 -5 c 128,-1,28
 986 21 986 21 941 65.5 c 128,-1,29
 896 110 896 110 870 168.5 c 128,-1,30
 844 227 844 227 829 291.5 c 128,-1,31
 814 356 814 356 807 423.5 c 128,-1,32
 800 491 800 491 794 552 c 0,33,34
 778 701 778 701 750 752 c 1,35,36
 700 732 700 732 663 722 c 1,37,38
 628 624 628 624 594.5 530 c 128,-1,39
 561 436 561 436 529 352.5 c 128,-1,40
 497 269 497 269 466.5 198 c 128,-1,41
 436 127 436 127 407 76 c 0,42,43
 346 -32 346 -32 298 -32 c 0,44,45
 190 -32 190 -32 60 14 c 0,46,47
 25 26 25 26 10 38 c 1,48,49
 74 95 74 95 170 261 c 128,-1,50
 266 427 266 427 332 549 c 128,-1,51
 398 671 398 671 465 797 c 128,-1,52
 532 923 532 923 597.5 1045 c 128,-1,53
 663 1167 663 1167 720 1268 c 0,54,55
 849 1495 849 1495 905 1546 c 0,56,57
 937 1575 937 1575 996 1546 c 0,58,59
 1012 1538 1012 1538 1026 1526 c 1,60,61
 912 1371 912 1371 753 965 c 1,62,63
 1086 1053 1086 1053 1376 1238 c 0,64,65
 1552 1350 1552 1350 1638 1462 c 0,66,67
 1681 1517 1681 1517 1693 1567 c 1,0,1
EndSplineSet
EndChar

StartChar: L
Encoding: 76 76 69
Width: 1514
GlyphClass: 2
Flags: W
LayerCount: 2
Fore
SplineSet
258 39 m 1,0,1
 158 14 158 14 118.5 14 c 128,-1,2
 79 14 79 14 54 26.5 c 128,-1,3
 29 39 29 39 9 60 c 0,4,5
 -35 106 -35 106 -35 152.5 c 128,-1,6
 -35 199 -35 199 -16 232 c 128,-1,7
 3 265 3 265 34 290 c 0,8,9
 103 344 103 344 167 344 c 128,-1,10
 231 344 231 344 275 338 c 1,11,12
 402 425 402 425 534 646 c 0,13,14
 591 743 591 743 646 849.5 c 128,-1,15
 701 956 701 956 758.5 1059.5 c 128,-1,16
 816 1163 816 1163 878 1256.5 c 128,-1,17
 940 1350 940 1350 1012 1422 c 0,18,19
 1169 1577 1169 1577 1356 1577 c 0,20,21
 1504 1577 1504 1577 1582 1492 c 0,22,23
 1651 1416 1651 1416 1651 1293 c 0,24,25
 1651 1098 1651 1098 1500 928 c 1,26,27
 1407 825 1407 825 1304 783 c 0,28,29
 1251 762 1251 762 1206 762 c 128,-1,30
 1161 762 1161 762 1132 784 c 0,31,32
 1067 835 1067 835 1067 925 c 0,33,34
 1067 952 1067 952 1076 973 c 1,35,36
 1099 970 1099 970 1125.5 970 c 128,-1,37
 1152 970 1152 970 1193 978 c 128,-1,38
 1234 986 1234 986 1282.5 1009 c 128,-1,39
 1331 1032 1331 1032 1373 1066 c 128,-1,40
 1415 1100 1415 1100 1446 1141 c 0,41,42
 1512 1228 1512 1228 1512 1315 c 0,43,44
 1512 1418 1512 1418 1432 1458 c 0,45,46
 1405 1472 1405 1472 1352 1472 c 128,-1,47
 1299 1472 1299 1472 1242 1439 c 128,-1,48
 1185 1406 1185 1406 1137.5 1349.5 c 128,-1,49
 1090 1293 1090 1293 1050.5 1217 c 128,-1,50
 1011 1141 1011 1141 976.5 1055.5 c 128,-1,51
 942 970 942 970 910.5 879 c 128,-1,52
 879 788 879 788 848.5 701 c 128,-1,53
 818 614 818 614 786.5 536 c 128,-1,54
 755 458 755 458 720 398 c 0,55,56
 642 266 642 266 551 255 c 1,57,58
 828 163 828 163 1064 130 c 0,59,60
 1114 123 1114 123 1151 123 c 128,-1,61
 1188 123 1188 123 1223 130 c 128,-1,62
 1258 137 1258 137 1288 152 c 0,63,64
 1356 185 1356 185 1382 241 c 1,65,66
 1452 236 1452 236 1452 186.5 c 128,-1,67
 1452 137 1452 137 1437 86.5 c 128,-1,68
 1422 36 1422 36 1395.5 -10 c 128,-1,69
 1369 -56 1369 -56 1332.5 -96 c 128,-1,70
 1296 -136 1296 -136 1252 -165 c 0,71,72
 1160 -227 1160 -227 1065.5 -227 c 128,-1,73
 971 -227 971 -227 896.5 -209 c 128,-1,74
 822 -191 822 -191 756.5 -163.5 c 128,-1,75
 691 -136 691 -136 631 -103 c 128,-1,76
 571 -70 571 -70 512 -40 c 1,77,78
 371 29 371 29 258 39 c 1,0,1
EndSplineSet
EndChar

StartChar: M
Encoding: 77 77 70
Width: 2407
GlyphClass: 2
Flags: W
LayerCount: 2
Fore
SplineSet
1152 1379 m 1,0,1
 1078 1453 1078 1453 958 1453 c 0,2,3
 788 1453 788 1453 658 1358 c 1,4,5
 520 1259 520 1259 520 1118 c 0,6,7
 520 1008 520 1008 623 910 c 1,8,9
 585 858 585 858 504 822 c 0,10,11
 482 812 482 812 459 812 c 128,-1,12
 436 812 436 812 406.5 826 c 128,-1,13
 377 840 377 840 354 866 c 0,14,15
 302 925 302 925 302 1007 c 128,-1,16
 302 1089 302 1089 331 1159 c 128,-1,17
 360 1229 360 1229 410 1289.5 c 128,-1,18
 460 1350 460 1350 526.5 1399 c 128,-1,19
 593 1448 593 1448 668 1484 c 1,20,21
 825 1557 825 1557 974.5 1557 c 128,-1,22
 1124 1557 1124 1557 1224 1503 c 0,23,24
 1456 1378 1456 1378 1456 939 c 0,25,26
 1456 806 1456 806 1435 643 c 1,27,28
 1605 836 1605 836 2094 1238 c 0,29,30
 2161 1292 2161 1292 2219 1342 c 1,31,32
 2273 1479 2273 1479 2308 1522 c 0,33,34
 2365 1593 2365 1593 2406 1593 c 128,-1,35
 2447 1593 2447 1593 2462 1572.5 c 128,-1,36
 2477 1552 2477 1552 2477 1533.5 c 128,-1,37
 2477 1515 2477 1515 2466.5 1495 c 128,-1,38
 2456 1475 2456 1475 2440 1452 c 0,39,40
 2407 1406 2407 1406 2368 1363 c 1,41,42
 2269 826 2269 826 2269 280 c 0,43,44
 2269 85 2269 85 2108 14 c 0,45,46
 2035 -18 2035 -18 1950 -18 c 0,47,48
 1822 -18 1822 -18 1730 43 c 0,49,50
 1694 67 1694 67 1674 98 c 1,51,52
 1783 189 1783 189 1993 712 c 0,53,54
 2077 922 2077 922 2148 1140 c 1,55,-1
 1951 943 l 2,56,57
 1576 568 1576 568 1408 339 c 1,58,59
 1393 221 1393 221 1324 90 c 1,60,61
 1281 11 1281 11 1253.5 -15 c 128,-1,62
 1226 -41 1226 -41 1212 -41 c 0,63,64
 1118 -41 1118 -41 1013 15 c 128,-1,65
 908 71 908 71 908 120 c 0,66,67
 908 186 908 186 1032 329 c 0,68,69
 1066 369 1066 369 1101 404 c 1,70,71
 1255 741 1255 741 1255 1044 c 0,72,73
 1255 1080 1255 1080 1249.5 1151 c 128,-1,74
 1244 1222 1244 1222 1207 1300 c 1,75,76
 1067 840 1067 840 806 448 c 0,77,78
 622 173 622 173 429 59 c 0,79,80
 329 0 329 0 229 0 c 128,-1,81
 129 0 129 0 66 31 c 0,82,83
 -65 96 -65 96 -65 250 c 0,84,85
 -65 350 -65 350 -14 433 c 0,86,87
 14 478 14 478 49 499 c 1,88,89
 184 403 184 403 321 403 c 0,90,91
 523 403 523 403 722 624 c 0,92,93
 897 819 897 819 1068 1191 c 0,94,95
 1114 1291 1114 1291 1152 1379 c 1,0,1
EndSplineSet
EndChar

StartChar: N
Encoding: 78 78 71
Width: 1766
GlyphClass: 2
Flags: W
LayerCount: 2
Fore
SplineSet
1551 294 m 0,0,1
 1574 287 1574 287 1602.5 287 c 128,-1,2
 1631 287 1631 287 1667 302 c 1,3,4
 1686 289 1686 289 1698 267.5 c 128,-1,5
 1710 246 1710 246 1710 230 c 128,-1,6
 1710 214 1710 214 1697.5 184 c 128,-1,7
 1685 154 1685 154 1662 123.5 c 128,-1,8
 1639 93 1639 93 1606.5 65 c 128,-1,9
 1574 37 1574 37 1535 15 c 0,10,11
 1389 -68 1389 -68 1219 -10 c 1,12,13
 1078 37 1078 37 1018 184 c 0,14,15
 988 260 988 260 988 347.5 c 128,-1,16
 988 435 988 435 1014.5 501 c 128,-1,17
 1041 567 1041 567 1084 630.5 c 128,-1,18
 1127 694 1127 694 1182 754.5 c 128,-1,19
 1237 815 1237 815 1294 873 c 128,-1,20
 1351 931 1351 931 1406 986 c 128,-1,21
 1461 1041 1461 1041 1504 1094 c 0,22,23
 1600 1211 1600 1211 1600 1293 c 0,24,25
 1600 1397 1600 1397 1508 1426 c 0,26,27
 1481 1434 1481 1434 1426 1434 c 128,-1,28
 1371 1434 1371 1434 1288.5 1396 c 128,-1,29
 1206 1358 1206 1358 1124.5 1292 c 128,-1,30
 1043 1226 1043 1226 965 1137 c 128,-1,31
 887 1048 887 1048 817.5 945 c 128,-1,32
 748 842 748 842 691 731 c 0,33,34
 523 403 523 403 523 158 c 0,35,36
 523 130 523 130 525 104 c 1,37,38
 496 71 496 71 424 36 c 0,39,40
 291 -27 291 -27 256.5 -27 c 128,-1,41
 222 -27 222 -27 198 -13.5 c 128,-1,42
 174 0 174 0 154 27 c 0,43,44
 107 88 107 88 107 182.5 c 128,-1,45
 107 277 107 277 137.5 379 c 128,-1,46
 168 481 168 481 214 588 c 128,-1,47
 260 695 260 695 313 802.5 c 128,-1,48
 366 910 366 910 412 1010 c 0,49,50
 519 1243 519 1243 519 1354 c 0,51,52
 519 1451 519 1451 506 1484 c 0,53,54
 481 1544 481 1544 434 1546 c 1,55,56
 437 1613 437 1613 506 1613 c 256,57,58
 575 1613 575 1613 623 1562 c 0,59,60
 696 1486 696 1486 696 1330 c 0,61,62
 696 1149 696 1149 601 930 c 1,63,64
 838 1229 838 1229 1032 1378 c 0,65,66
 1266 1558 1266 1558 1475 1558 c 0,67,68
 1675 1558 1675 1558 1735 1400 c 0,69,70
 1755 1347 1755 1347 1755 1273.5 c 128,-1,71
 1755 1200 1755 1200 1734.5 1132 c 128,-1,72
 1714 1064 1714 1064 1682.5 999.5 c 128,-1,73
 1651 935 1651 935 1615 871 c 128,-1,74
 1579 807 1579 807 1548 737 c 0,75,76
 1475 576 1475 576 1475 415 c 0,77,78
 1475 319 1475 319 1551 294 c 0,0,1
EndSplineSet
EndChar

StartChar: O
Encoding: 79 79 72
Width: 1532
GlyphClass: 2
Flags: W
LayerCount: 2
Fore
SplineSet
1645 1186 m 0,0,1
 1645 1050 1645 1050 1540 936 c 1,2,3
 1545 923 1545 923 1545 912 c 0,4,5
 1545 672 1545 672 1412 443 c 0,6,7
 1284 221 1284 221 1074 84 c 0,8,9
 855 -60 855 -60 616 -60 c 0,10,11
 368 -60 368 -60 215 78 c 0,12,13
 56 221 56 221 56 470 c 0,14,15
 56 742 56 742 227 1001 c 0,16,17
 388 1245 388 1245 652 1400 c 0,18,19
 920 1558 920 1558 1197 1558 c 0,20,21
 1394 1558 1394 1558 1514 1466 c 0,22,23
 1645 1365 1645 1365 1645 1186 c 0,0,1
1447 858 m 1,24,25
 1340 786 1340 786 1240 786 c 0,26,27
 1199 786 1199 786 1176 812 c 1,28,29
 1138 852 1138 852 1126 881 c 1,30,31
 1313 976 1313 976 1382 1124 c 0,32,33
 1406 1176 1406 1176 1406 1233 c 0,34,35
 1406 1338 1406 1338 1347 1393 c 128,-1,36
 1288 1448 1288 1448 1173.5 1448 c 128,-1,37
 1059 1448 1059 1448 973 1417 c 128,-1,38
 887 1386 887 1386 811.5 1332.5 c 128,-1,39
 736 1279 736 1279 674 1205.5 c 128,-1,40
 612 1132 612 1132 568 1046 c 1,41,42
 474 867 474 867 474 677 c 128,-1,43
 474 487 474 487 558.5 392 c 128,-1,44
 643 297 643 297 799 297 c 0,45,46
 1015 297 1015 297 1206 474 c 0,47,48
 1384 638 1384 638 1447 858 c 1,24,25
EndSplineSet
EndChar

StartChar: P
Encoding: 80 80 73
Width: 1525
GlyphClass: 2
Flags: W
LayerCount: 2
Fore
SplineSet
445 1004 m 1,0,1
 354 907 354 907 300 907 c 0,2,3
 240 907 240 907 193 984 c 0,4,5
 147 1060 147 1060 147 1145 c 128,-1,6
 147 1230 147 1230 187.5 1293.5 c 128,-1,7
 228 1357 228 1357 295 1406 c 128,-1,8
 362 1455 362 1455 448.5 1491 c 128,-1,9
 535 1527 535 1527 628 1550 c 0,10,11
 812 1597 812 1597 937.5 1597 c 128,-1,12
 1063 1597 1063 1597 1148 1586.5 c 128,-1,13
 1233 1576 1233 1576 1312 1552 c 128,-1,14
 1391 1528 1391 1528 1461 1490.5 c 128,-1,15
 1531 1453 1531 1453 1584 1400 c 0,16,17
 1696 1285 1696 1285 1696 1113 c 0,18,19
 1696 935 1696 935 1584 748 c 0,20,21
 1476 567 1476 567 1304 448 c 1,22,23
 1121 323 1121 323 935 323 c 0,24,25
 844 323 844 323 775 368 c 1,26,27
 742 391 742 391 741 421.5 c 128,-1,28
 740 452 740 452 742 477 c 0,29,30
 750 580 750 580 787 719 c 1,31,32
 860 689 860 689 943 689 c 128,-1,33
 1026 689 1026 689 1081 706.5 c 128,-1,34
 1136 724 1136 724 1191.5 756 c 128,-1,35
 1247 788 1247 788 1298.5 832 c 128,-1,36
 1350 876 1350 876 1390 930 c 0,37,38
 1477 1048 1477 1048 1477 1154 c 128,-1,39
 1477 1260 1477 1260 1428.5 1321.5 c 128,-1,40
 1380 1383 1380 1383 1304 1420 c 0,41,42
 1161 1491 1161 1491 951 1491 c 0,43,44
 770 1491 770 1491 581 1418 c 0,45,46
 449 1366 449 1366 391 1286 c 0,47,48
 361 1244 361 1244 361 1194 c 0,49,50
 361 1081 361 1081 445 1004 c 1,0,1
71 66 m 1,51,52
 122 120 122 120 191 253.5 c 128,-1,53
 260 387 260 387 309 485 c 128,-1,54
 358 583 358 583 411.5 686 c 128,-1,55
 465 789 465 789 521.5 890.5 c 128,-1,56
 578 992 578 992 636 1082 c 0,57,58
 765 1280 765 1280 872 1360 c 0,59,60
 884 1370 884 1370 898.5 1370 c 128,-1,61
 913 1370 913 1370 928 1365 c 0,62,63
 961 1354 961 1354 986 1331 c 1,64,65
 861 1231 861 1231 728 806 c 0,66,67
 690 687 690 687 654 568.5 c 128,-1,68
 618 450 618 450 584.5 340 c 128,-1,69
 551 230 551 230 518 146 c 0,70,71
 447 -39 447 -39 391 -39 c 0,72,73
 214 -39 214 -39 114 33 c 0,74,75
 89 51 89 51 71 66 c 1,51,52
EndSplineSet
EndChar

StartChar: Q
Encoding: 81 81 74
Width: 1668
GlyphClass: 2
Flags: W
LayerCount: 2
Fore
SplineSet
983 -45 m 1,0,1
 820 -114 820 -114 683.5 -114 c 128,-1,2
 547 -114 547 -114 444.5 -82 c 128,-1,3
 342 -50 342 -50 267 14 c 0,4,5
 108 148 108 148 108 396 c 0,6,7
 108 656 108 656 272 934 c 0,8,9
 437 1213 437 1213 698 1390 c 0,10,11
 981 1582 981 1582 1281 1582 c 0,12,13
 1463 1582 1463 1582 1564 1500 c 0,14,15
 1660 1422 1660 1422 1660 1299 c 0,16,17
 1660 1020 1660 1020 1313 744 c 0,18,19
 1174 633 1174 633 1019 562 c 1,20,21
 1031 477 1031 477 1109 324 c 1,22,23
 1273 410 1273 410 1400 560 c 1,24,25
 1525 710 1525 710 1535 838 c 1,26,27
 1579 841 1579 841 1603 796 c 0,28,29
 1610 782 1610 782 1610 730.5 c 128,-1,30
 1610 679 1610 679 1582 589 c 128,-1,31
 1554 499 1554 499 1504 414 c 0,32,33
 1405 243 1405 243 1237 108 c 1,34,35
 1480 -246 1480 -246 1671 -246 c 0,36,37
 1729 -246 1729 -246 1789 -219 c 1,38,39
 1815 -248 1815 -248 1815 -264 c 128,-1,40
 1815 -280 1815 -280 1802 -299 c 128,-1,41
 1789 -318 1789 -318 1754 -352 c 128,-1,42
 1719 -386 1719 -386 1672 -415 c 0,43,44
 1560 -483 1560 -483 1440 -483 c 0,45,46
 1149 -483 1149 -483 983 -45 c 1,0,1
899 253 m 1,47,48
 854 464 854 464 854 597 c 1,49,50
 1119 703 1119 703 1307 888 c 0,51,52
 1505 1083 1505 1083 1505 1276 c 0,53,54
 1505 1412 1505 1412 1372 1458 c 0,55,56
 1329 1472 1329 1472 1248 1472 c 128,-1,57
 1167 1472 1167 1472 1067.5 1439.5 c 128,-1,58
 968 1407 968 1407 883 1348 c 128,-1,59
 798 1289 798 1289 729.5 1206 c 128,-1,60
 661 1123 661 1123 612 1023 c 0,61,62
 512 816 512 816 512 571 c 0,63,64
 512 409 512 409 599.5 329 c 128,-1,65
 687 249 687 249 843 249 c 0,66,67
 871 249 871 249 899 253 c 1,47,48
EndSplineSet
EndChar

StartChar: R
Encoding: 82 82 75
Width: 1847
GlyphClass: 2
Flags: W
LayerCount: 2
Fore
SplineSet
75 287 m 0,0,1
 75 364 75 364 99 464.5 c 128,-1,2
 123 565 123 565 169.5 672 c 128,-1,3
 216 779 216 779 282.5 887 c 128,-1,4
 349 995 349 995 434 1095 c 128,-1,5
 519 1195 519 1195 621 1282 c 128,-1,6
 723 1369 723 1369 839 1434 c 0,7,8
 1088 1572 1088 1572 1356 1572 c 0,9,10
 1604 1572 1604 1572 1752 1460 c 0,11,12
 1909 1341 1909 1341 1909 1132 c 0,13,14
 1909 933 1909 933 1778 762 c 1,15,16
 1657 606 1657 606 1468 521 c 1,17,18
 1521 393 1521 393 1547 353 c 0,19,20
 1600 273 1600 273 1649.5 273 c 128,-1,21
 1699 273 1699 273 1755 298 c 128,-1,22
 1811 323 1811 323 1862 362 c 0,23,24
 1967 441 1967 441 2030 536 c 1,25,26
 2075 539 2075 539 2075 499 c 0,27,28
 2075 462 2075 462 2024 373.5 c 128,-1,29
 1973 285 1973 285 1928.5 227 c 128,-1,30
 1884 169 1884 169 1830 116.5 c 128,-1,31
 1776 64 1776 64 1714 24 c 0,32,33
 1578 -62 1578 -62 1436 -62 c 0,34,35
 1139 -62 1139 -62 1139 344 c 0,36,37
 1139 400 1139 400 1143 456 c 1,38,39
 996 469 996 469 934 597 c 0,40,41
 912 641 912 641 906 701 c 1,42,43
 664 248 664 248 497 86 c 0,44,45
 386 -22 386 -22 296 -22 c 0,46,47
 197 -22 197 -22 136 60 c 128,-1,48
 75 142 75 142 75 287 c 0,0,1
380 432 m 0,49,50
 380 342 380 342 414 342 c 0,51,52
 477 342 477 342 824 866 c 0,53,54
 967 1082 967 1082 1095 1300 c 0,55,56
 1127 1355 1127 1355 1202 1315 c 0,57,58
 1219 1306 1219 1306 1227 1300 c 1,59,60
 1171 1213 1171 1213 1043 965 c 1,61,62
 1124 1018 1124 1018 1162.5 1018 c 128,-1,63
 1201 1018 1201 1018 1229.5 997 c 128,-1,64
 1258 976 1258 976 1284 940 c 0,65,66
 1328 878 1328 878 1378 754 c 1,67,68
 1514 811 1514 811 1608 934 c 0,69,70
 1705 1061 1705 1061 1705 1188 c 0,71,72
 1705 1467 1705 1467 1325 1467 c 0,73,74
 1044 1467 1044 1467 821 1291 c 0,75,76
 638 1147 638 1147 516 904 c 1,77,78
 416 708 416 708 387 518 c 0,79,80
 380 469 380 469 380 432 c 0,49,50
1175 822 m 0,81,82
 1175 908 1175 908 1139 908 c 128,-1,83
 1103 908 1103 908 1089 886.5 c 128,-1,84
 1075 865 1075 865 1075 850.5 c 128,-1,85
 1075 836 1075 836 1077 818 c 128,-1,86
 1079 800 1079 800 1102 770 c 128,-1,87
 1125 740 1125 740 1169 727 c 1,88,89
 1175 787 1175 787 1175 822 c 0,81,82
EndSplineSet
EndChar

StartChar: S
Encoding: 83 83 76
Width: 1368
GlyphClass: 2
Flags: W
LayerCount: 2
Fore
SplineSet
214 72 m 0,0,1
 138 153 138 153 102 256.5 c 128,-1,2
 66 360 66 360 66 448 c 128,-1,3
 66 536 66 536 75.5 547 c 128,-1,4
 85 558 85 558 97 566 c 0,5,6
 118 580 118 580 148 588 c 1,7,8
 230 378 230 378 451 318 c 0,9,10
 522 298 522 298 594.5 298 c 128,-1,11
 667 298 667 298 723.5 310.5 c 128,-1,12
 780 323 780 323 822 350 c 0,13,14
 913 410 913 410 913 531 c 0,15,16
 913 623 913 623 840 736 c 1,17,18
 809 786 809 786 773 835.5 c 128,-1,19
 737 885 737 885 706 936 c 0,20,21
 633 1053 633 1053 633 1136.5 c 128,-1,22
 633 1220 633 1220 656.5 1275.5 c 128,-1,23
 680 1331 680 1331 721 1375.5 c 128,-1,24
 762 1420 762 1420 817.5 1454 c 128,-1,25
 873 1488 873 1488 938 1511 c 0,26,27
 1068 1557 1068 1557 1214 1557 c 0,28,29
 1352 1557 1352 1557 1431 1528.5 c 128,-1,30
 1510 1500 1510 1500 1543.5 1470 c 128,-1,31
 1577 1440 1577 1440 1577 1411 c 128,-1,32
 1577 1382 1577 1382 1568 1362.5 c 128,-1,33
 1559 1343 1559 1343 1545 1324 c 0,34,35
 1515 1285 1515 1285 1486 1265 c 1,36,37
 1417 1375 1417 1375 1256 1420 c 0,38,39
 1204 1434 1204 1434 1146.5 1434 c 128,-1,40
 1089 1434 1089 1434 1032 1420 c 128,-1,41
 975 1406 975 1406 932 1380 c 1,42,43
 835 1324 835 1324 835 1234 c 0,44,45
 835 1185 835 1185 869.5 1136 c 128,-1,46
 904 1087 904 1087 955.5 1034 c 128,-1,47
 1007 981 1007 981 1067 923 c 128,-1,48
 1127 865 1127 865 1178 799 c 0,49,50
 1299 645 1299 645 1299 495.5 c 128,-1,51
 1299 346 1299 346 1243 236.5 c 128,-1,52
 1187 127 1187 127 1092 54 c 1,53,54
 902 -95 902 -95 613 -95 c 0,55,56
 369 -95 369 -95 214 72 c 0,0,1
EndSplineSet
EndChar

StartChar: T
Encoding: 84 84 77
Width: 1199
GlyphClass: 2
Flags: W
LayerCount: 2
Fore
SplineSet
174 244 m 0,0,1
 174 298 174 298 205.5 346.5 c 128,-1,2
 237 395 237 395 289 442.5 c 128,-1,3
 341 490 341 490 408.5 539 c 128,-1,4
 476 588 476 588 548 645 c 128,-1,5
 620 702 620 702 691.5 768.5 c 128,-1,6
 763 835 763 835 822 918 c 0,7,8
 956 1104 956 1104 983 1331 c 1,9,10
 673 1303 673 1303 569 1274.5 c 128,-1,11
 465 1246 465 1246 412.5 1208 c 128,-1,12
 360 1170 360 1170 360 1123 c 128,-1,13
 360 1076 360 1076 367.5 1046.5 c 128,-1,14
 375 1017 375 1017 384 993 c 128,-1,15
 393 969 393 969 400.5 950 c 128,-1,16
 408 931 408 931 408 916 c 0,17,18
 408 889 408 889 340 857 c 0,19,20
 278 828 278 828 249.5 828 c 128,-1,21
 221 828 221 828 195 848.5 c 128,-1,22
 169 869 169 869 144 902 c 0,23,24
 83 983 83 983 83 1059 c 128,-1,25
 83 1135 83 1135 121 1188 c 128,-1,26
 159 1241 159 1241 223.5 1280 c 128,-1,27
 288 1319 288 1319 375 1345 c 128,-1,28
 462 1371 462 1371 560 1389 c 128,-1,29
 658 1407 658 1407 761.5 1418 c 128,-1,30
 865 1429 865 1429 964 1437.5 c 128,-1,31
 1063 1446 1063 1446 1151.5 1454 c 128,-1,32
 1240 1462 1240 1462 1308 1473 c 0,33,34
 1455 1497 1455 1497 1463 1537 c 128,-1,35
 1471 1577 1471 1577 1485 1611.5 c 128,-1,36
 1499 1646 1499 1646 1518 1673 c 0,37,38
 1560 1733 1560 1733 1609 1733 c 128,-1,39
 1658 1733 1658 1733 1689 1684 c 0,40,41
 1719 1637 1719 1637 1719 1584.5 c 128,-1,42
 1719 1532 1719 1532 1695 1501 c 128,-1,43
 1671 1470 1671 1470 1628.5 1446.5 c 128,-1,44
 1586 1423 1586 1423 1527 1406 c 128,-1,45
 1468 1389 1468 1389 1399 1377 c 0,46,47
 1290 1358 1290 1358 1095 1341 c 1,48,49
 1097 1297 1097 1297 1097 1256.5 c 128,-1,50
 1097 1216 1097 1216 1095.5 1156.5 c 128,-1,51
 1094 1097 1094 1097 1086.5 1008 c 128,-1,52
 1079 919 1079 919 1067.5 831 c 128,-1,53
 1056 743 1056 743 1042 666 c 0,54,55
 1014 506 1014 506 986.5 440 c 128,-1,56
 959 374 959 374 922 313 c 128,-1,57
 885 252 885 252 840.5 197 c 128,-1,58
 796 142 796 142 746 94.5 c 128,-1,59
 696 47 696 47 644 12 c 0,60,61
 534 -63 534 -63 445 -63 c 0,62,63
 357 -63 357 -63 265 38 c 0,64,65
 174 138 174 138 174 244 c 0,0,1
EndSplineSet
EndChar

StartChar: U
Encoding: 85 85 78
Width: 1566
GlyphClass: 2
Flags: W
LayerCount: 2
Fore
SplineSet
1439 218 m 1,0,1
 1474 195 1474 195 1474 175 c 128,-1,2
 1474 155 1474 155 1458.5 127 c 128,-1,3
 1443 99 1443 99 1417 69 c 128,-1,4
 1391 39 1391 39 1356.5 10 c 128,-1,5
 1322 -19 1322 -19 1283 -42 c 0,6,7
 1198 -94 1198 -94 1127.5 -94 c 128,-1,8
 1057 -94 1057 -94 1010 -71 c 0,9,10
 899 -16 899 -16 899 145 c 0,11,12
 899 183 899 183 906 226 c 1,13,14
 845 142 845 142 708 68 c 0,15,16
 547 -20 547 -20 386 -20 c 0,17,18
 186 -20 186 -20 124 145 c 0,19,20
 103 199 103 199 103 277.5 c 128,-1,21
 103 356 103 356 140.5 443.5 c 128,-1,22
 178 531 178 531 234 619.5 c 128,-1,23
 290 708 290 708 356 798 c 128,-1,24
 422 888 422 888 478 980 c 0,25,26
 609 1194 609 1194 609 1338.5 c 128,-1,27
 609 1483 609 1483 503 1498 c 1,28,29
 517 1556 517 1556 563.5 1556 c 128,-1,30
 610 1556 610 1556 644.5 1536 c 128,-1,31
 679 1516 679 1516 703 1480 c 0,32,33
 753 1405 753 1405 753 1283 c 0,34,35
 753 1131 753 1131 633 868 c 128,-1,36
 513 605 513 605 513 489 c 128,-1,37
 513 373 513 373 604 373 c 0,38,39
 758 373 758 373 998 604 c 0,40,41
 1239 835 1239 835 1414 1150 c 0,42,43
 1539 1376 1539 1376 1589 1584 c 1,44,45
 1602 1586 1602 1586 1614 1586 c 0,46,47
 1689 1586 1689 1586 1689 1511 c 0,48,49
 1689 1406 1689 1406 1592 1180 c 0,50,51
 1550 1083 1550 1083 1502 978 c 128,-1,52
 1454 873 1454 873 1412 770 c 0,53,54
 1315 534 1315 534 1315 398 c 0,55,56
 1315 299 1315 299 1353 244.5 c 128,-1,57
 1391 190 1391 190 1439 218 c 1,0,1
EndSplineSet
EndChar

StartChar: V
Encoding: 86 86 79
Width: 1456
GlyphClass: 2
Flags: W
LayerCount: 2
Fore
SplineSet
1438 1589 m 1,0,1
 1479 1624 1479 1624 1513.5 1624 c 128,-1,2
 1548 1624 1548 1624 1571.5 1607.5 c 128,-1,3
 1595 1591 1595 1591 1610 1564 c 0,4,5
 1639 1512 1639 1512 1639 1432.5 c 128,-1,6
 1639 1353 1639 1353 1613 1259.5 c 128,-1,7
 1587 1166 1587 1166 1543 1068.5 c 128,-1,8
 1499 971 1499 971 1441 872 c 128,-1,9
 1383 773 1383 773 1318.5 678 c 128,-1,10
 1254 583 1254 583 1187 493.5 c 128,-1,11
 1120 404 1120 404 1058 326 c 128,-1,12
 996 248 996 248 943.5 184 c 128,-1,13
 891 120 891 120 855 74 c 1,14,15
 764 -110 764 -110 654 -110 c 0,16,17
 581 -110 581 -110 480 -39 c 0,18,19
 375 35 375 35 375 98 c 0,20,21
 375 150 375 150 452 218 c 0,22,23
 471 236 471 236 486 245 c 1,24,25
 590 431 590 431 656 750 c 0,26,27
 693 931 693 931 693 1083 c 0,28,29
 693 1329 693 1329 590 1418 c 0,30,31
 542 1459 542 1459 482 1459 c 128,-1,32
 422 1459 422 1459 373 1432 c 128,-1,33
 324 1405 324 1405 282 1358 c 0,34,35
 187 1251 187 1251 187 1118 c 0,36,37
 187 1008 187 1008 290 910 c 1,38,39
 252 858 252 858 172 822 c 0,40,41
 149 812 149 812 126 812 c 128,-1,42
 103 812 103 812 73.5 826 c 128,-1,43
 44 840 44 840 20 866 c 1,44,45
 -31 925 -31 925 -31 1003 c 128,-1,46
 -31 1081 -31 1081 -9.5 1148 c 128,-1,47
 12 1215 12 1215 50 1276 c 128,-1,48
 88 1337 88 1337 139 1389 c 128,-1,49
 190 1441 190 1441 248 1480 c 0,50,51
 372 1561 372 1561 486.5 1561 c 128,-1,52
 601 1561 601 1561 680.5 1519 c 128,-1,53
 760 1477 760 1477 817.5 1404.5 c 128,-1,54
 875 1332 875 1332 912 1234 c 0,55,56
 990 1029 990 1029 990 753 c 0,57,58
 990 655 990 655 980 559 c 1,59,60
 1208 774 1208 774 1328 952 c 0,61,62
 1489 1191 1489 1191 1489 1400 c 0,63,64
 1489 1519 1489 1519 1438 1589 c 1,0,1
EndSplineSet
EndChar

StartChar: W
Encoding: 87 87 80
Width: 2109
GlyphClass: 2
Flags: W
LayerCount: 2
Fore
SplineSet
1246 -30 m 0,0,1
 1019 -30 1019 -30 1019 259 c 0,2,3
 1019 391 1019 391 1067 589 c 1,4,5
 779 169 779 169 480 37 c 0,6,7
 374 -10 374 -10 266 -10 c 0,8,9
 138 -10 138 -10 96 102 c 0,10,11
 83 135 83 135 83 192 c 128,-1,12
 83 249 83 249 103 331.5 c 128,-1,13
 123 414 123 414 155.5 498.5 c 128,-1,14
 188 583 188 583 229.5 668.5 c 128,-1,15
 271 754 271 754 314.5 835.5 c 128,-1,16
 358 917 358 917 399 993 c 0,17,18
 541 1256 541 1256 541 1344.5 c 128,-1,19
 541 1433 541 1433 433 1433 c 0,20,21
 312 1433 312 1433 182 1306 c 0,22,23
 150 1274 150 1274 132 1249 c 1,24,25
 73 1280 73 1280 73 1313 c 128,-1,26
 73 1346 73 1346 91.5 1374.5 c 128,-1,27
 110 1403 110 1403 141.5 1429.5 c 128,-1,28
 173 1456 173 1456 213.5 1479 c 128,-1,29
 254 1502 254 1502 298 1520 c 0,30,31
 391 1557 391 1557 465 1557 c 0,32,33
 468 1557 468 1557 470 1557 c 0,34,35
 653 1557 653 1557 712 1425 c 0,36,37
 741 1362 741 1362 741 1280 c 128,-1,38
 741 1198 741 1198 726.5 1113 c 128,-1,39
 712 1028 712 1028 687.5 938.5 c 128,-1,40
 663 849 663 849 640 770 c 0,41,42
 581 572 581 572 581 535 c 0,43,44
 581 456 581 456 640 456 c 0,45,46
 725 456 725 456 884 624 c 0,47,48
 1055 806 1055 806 1212 1083 c 1,49,50
 1247 1168 1247 1168 1295.5 1294.5 c 128,-1,51
 1344 1421 1344 1421 1358 1455.5 c 128,-1,52
 1372 1490 1372 1490 1392 1509 c 128,-1,53
 1412 1528 1412 1528 1434 1538 c 1,54,55
 1469 1556 1469 1556 1506 1556 c 128,-1,56
 1543 1556 1543 1556 1550 1532 c 128,-1,57
 1557 1508 1557 1508 1549 1473 c 0,58,59
 1533 1404 1533 1404 1485 1322 c 1,60,61
 1394 944 1394 944 1394 638 c 0,62,63
 1394 395 1394 395 1465 395 c 0,64,65
 1589 395 1589 395 1758 610 c 0,66,67
 1921 817 1921 817 2013 1078 c 0,68,69
 2077 1258 2077 1258 2077 1388.5 c 128,-1,70
 2077 1519 2077 1519 2026 1589 c 1,71,72
 2067 1624 2067 1624 2101.5 1624 c 128,-1,73
 2136 1624 2136 1624 2159.5 1607.5 c 128,-1,74
 2183 1591 2183 1591 2198 1564 c 0,75,76
 2227 1513 2227 1513 2227 1429 c 128,-1,77
 2227 1345 2227 1345 2203 1231 c 128,-1,78
 2179 1117 2179 1117 2135.5 996 c 128,-1,79
 2092 875 2092 875 2032.5 751.5 c 128,-1,80
 1973 628 1973 628 1901.5 514 c 128,-1,81
 1830 400 1830 400 1749.5 301 c 128,-1,82
 1669 202 1669 202 1584 128 c 0,83,84
 1402 -30 1402 -30 1246 -30 c 0,0,1
EndSplineSet
EndChar

StartChar: X
Encoding: 88 88 81
Width: 1628
GlyphClass: 2
Flags: W
LayerCount: 2
Fore
SplineSet
472 1492 m 1,0,1
 477 1574 477 1574 533 1574 c 0,2,3
 761 1574 761 1574 922 1360 c 0,4,5
 1014 1238 1014 1238 1067 1110.5 c 128,-1,6
 1120 983 1120 983 1151 901 c 1,7,8
 1384 1165 1384 1165 1473 1412 c 0,9,10
 1501 1489 1501 1489 1505 1553 c 1,11,12
 1562 1564 1562 1564 1577 1554 c 0,13,14
 1606 1535 1606 1535 1606 1480 c 128,-1,15
 1606 1425 1606 1425 1592.5 1356 c 128,-1,16
 1579 1287 1579 1287 1530 1174 c 0,17,18
 1426 938 1426 938 1229 686 c 1,19,20
 1292 509 1292 509 1333 440.5 c 128,-1,21
 1374 372 1374 372 1408 343.5 c 128,-1,22
 1442 315 1442 315 1481.5 315 c 128,-1,23
 1521 315 1521 315 1566.5 333.5 c 128,-1,24
 1612 352 1612 352 1657 383 c 0,25,26
 1753 449 1753 449 1811 536 c 1,27,28
 1856 539 1856 539 1856 499 c 0,29,30
 1856 483 1856 483 1831.5 424 c 128,-1,31
 1807 365 1807 365 1740.5 277 c 128,-1,32
 1674 189 1674 189 1590 120 c 0,33,34
 1404 -30 1404 -30 1206 -30 c 0,35,36
 1013 -30 1013 -30 924 180 c 0,37,38
 896 245 896 245 877 321 c 1,39,40
 498 1 498 1 154 1 c 0,41,42
 24 1 24 1 24 170 c 0,43,44
 24 273 24 273 73 417 c 1,45,46
 175 377 175 377 262 377 c 128,-1,47
 349 377 349 377 417 393 c 128,-1,48
 485 409 485 409 554 438 c 0,49,50
 689 496 689 496 828 600 c 1,51,52
 815 701 815 701 804 804 c 128,-1,53
 793 907 793 907 777.5 1003.5 c 128,-1,54
 762 1100 762 1100 739.5 1185 c 128,-1,55
 717 1270 717 1270 682 1336 c 0,56,57
 606 1477 606 1477 472 1492 c 1,0,1
EndSplineSet
EndChar

StartChar: Y
Encoding: 89 89 82
Width: 1361
GlyphClass: 2
Flags: W
LayerCount: 2
Fore
SplineSet
309 1336 m 1,0,1
 255 1365 255 1365 272 1421 c 0,2,3
 288 1474 288 1474 360 1514 c 0,4,5
 442 1559 442 1559 543 1559 c 128,-1,6
 644 1559 644 1559 724.5 1508 c 128,-1,7
 805 1457 805 1457 866 1364 c 0,8,9
 992 1175 992 1175 1025 861 c 1,10,11
 1079 940 1079 940 1133.5 1021 c 128,-1,12
 1188 1102 1188 1102 1244 1179 c 128,-1,13
 1300 1256 1300 1256 1357.5 1326 c 128,-1,14
 1415 1396 1415 1396 1474 1454 c 0,15,16
 1603 1579 1603 1579 1724 1624 c 0,17,18
 1729 1626 1729 1626 1734.5 1626 c 128,-1,19
 1740 1626 1740 1626 1748 1623.5 c 128,-1,20
 1756 1621 1756 1621 1766 1613 c 0,21,22
 1789 1595 1789 1595 1795 1572 c 1,23,24
 1567 1419 1567 1419 1380 1030 c 0,25,26
 1326 918 1326 918 1276 803.5 c 128,-1,27
 1226 689 1226 689 1176.5 576 c 128,-1,28
 1127 463 1127 463 1074.5 360.5 c 128,-1,29
 1022 258 1022 258 963 170.5 c 128,-1,30
 904 83 904 83 834 18 c 0,31,32
 685 -119 685 -119 495 -119 c 0,33,34
 290 -119 290 -119 165 72 c 0,35,36
 98 174 98 174 80.5 254.5 c 128,-1,37
 63 335 63 335 63 358 c 128,-1,38
 63 381 63 381 71.5 390 c 128,-1,39
 80 399 80 399 92 407 c 0,40,41
 113 421 113 421 143 429 c 1,42,43
 170 374 170 374 244 332 c 0,44,45
 323 286 323 286 402 286 c 0,46,47
 540 286 540 286 689 429 c 1,48,49
 784 650 784 650 784 917 c 0,50,51
 784 1129 784 1129 722 1274 c 0,52,53
 646 1450 646 1450 518.5 1450 c 128,-1,54
 391 1450 391 1450 309 1336 c 1,0,1
EndSplineSet
EndChar

StartChar: Z
Encoding: 90 90 83
Width: 1477
GlyphClass: 2
Flags: W
LayerCount: 2
Fore
SplineSet
1335 55 m 1,0,1
 1238 88 1238 88 1023 88 c 0,2,3
 663 88 663 88 312 19 c 0,4,5
 206 -2 206 -2 156 -17.5 c 128,-1,6
 106 -33 106 -33 87.5 -33 c 128,-1,7
 69 -33 69 -33 45 -20.5 c 128,-1,8
 21 -8 21 -8 0 24 c 0,9,10
 -44 93 -44 93 -44 198 c 0,11,12
 -44 289 -44 289 -8 329 c 0,13,14
 21 360 21 360 145 419 c 128,-1,15
 269 478 269 478 366 523 c 128,-1,16
 463 568 463 568 569 618 c 128,-1,17
 675 668 675 668 784.5 723.5 c 128,-1,18
 894 779 894 779 997 837.5 c 128,-1,19
 1100 896 1100 896 1190 957 c 128,-1,20
 1280 1018 1280 1018 1348 1080 c 0,21,22
 1493 1212 1493 1212 1493 1322 c 0,23,24
 1493 1392 1493 1392 1434 1417 c 0,25,26
 1370 1444 1370 1444 1249.5 1444 c 128,-1,27
 1129 1444 1129 1444 1051.5 1437.5 c 128,-1,28
 974 1431 974 1431 900.5 1418 c 128,-1,29
 827 1405 827 1405 761.5 1386 c 128,-1,30
 696 1367 696 1367 647 1342 c 0,31,32
 540 1289 540 1289 540 1226.5 c 128,-1,33
 540 1164 540 1164 607 1129 c 1,34,35
 576 1084 576 1084 550 1084 c 128,-1,36
 524 1084 524 1084 491 1091.5 c 128,-1,37
 458 1099 458 1099 428 1114 c 0,38,39
 352 1153 352 1153 352 1208 c 128,-1,40
 352 1263 352 1263 388 1312 c 128,-1,41
 424 1361 424 1361 488 1400.5 c 128,-1,42
 552 1440 552 1440 639 1470 c 128,-1,43
 726 1500 726 1500 828 1520 c 0,44,45
 1030 1561 1030 1561 1205 1561 c 128,-1,46
 1380 1561 1380 1561 1461.5 1540.5 c 128,-1,47
 1543 1520 1543 1520 1597 1482 c 0,48,49
 1704 1408 1704 1408 1704 1279 c 0,50,51
 1704 1043 1704 1043 1170 675 c 0,52,53
 935 513 935 513 637 354 c 1,54,55
 1078 389 1078 389 1290 322 c 1,56,57
 1483 256 1483 256 1366 96 c 0,58,59
 1349 74 1349 74 1335 55 c 1,0,1
EndSplineSet
EndChar

StartChar: bracketleft
Encoding: 91 91 84
Width: 988
GlyphClass: 2
Flags: W
LayerCount: 2
Fore
SplineSet
118 -234 m 0,0,1
 118 -24 118 -24 338 460 c 0,2,3
 528 880 528 880 763 1260 c 0,4,5
 905 1489 905 1489 987 1562 c 0,6,7
 1008 1580 1008 1580 1067.5 1580 c 128,-1,8
 1127 1580 1127 1580 1158.5 1578.5 c 128,-1,9
 1190 1577 1190 1577 1224 1572 c 0,10,11
 1327 1559 1327 1559 1327 1541 c 0,12,13
 1327 1511 1327 1511 1295 1463 c 1,14,15
 1177 1479 1177 1479 1072 1474 c 1,16,17
 956 1363 956 1363 668 572 c 0,18,19
 518 159 518 159 455 -111 c 1,20,21
 507 -127 507 -127 582 -133 c 128,-1,22
 657 -139 657 -139 680 -137 c 1,23,24
 629 -331 629 -331 593 -335 c 1,25,26
 569 -339 569 -339 525 -339 c 128,-1,27
 481 -339 481 -339 428 -335.5 c 128,-1,28
 375 -332 375 -332 320 -323.5 c 128,-1,29
 265 -315 265 -315 220 -302 c 0,30,31
 118 -274 118 -274 118 -234 c 0,0,1
EndSplineSet
EndChar

StartChar: backslash
Encoding: 92 92 85
Width: 1016
GlyphClass: 2
Flags: W
LayerCount: 2
Fore
SplineSet
260 1650 m 1,0,1
 305 1666 305 1666 334 1666 c 0,2,3
 394 1666 394 1666 564 842 c 0,4,5
 679 282 679 282 718 -46 c 0,6,7
 726 -117 726 -117 726 -145.5 c 128,-1,8
 726 -174 726 -174 716.5 -191.5 c 128,-1,9
 707 -209 707 -209 684 -221 c 0,10,11
 638 -245 638 -245 524 -247 c 1,12,13
 526 -221 526 -221 526 -182 c 128,-1,14
 526 -143 526 -143 521.5 -63 c 128,-1,15
 517 17 517 17 503.5 149 c 128,-1,16
 490 281 490 281 471 433.5 c 128,-1,17
 452 586 452 586 429.5 740 c 128,-1,18
 407 894 407 894 383 1041.5 c 128,-1,19
 359 1189 359 1189 336 1312 c 0,20,21
 285 1581 285 1581 260 1650 c 1,0,1
EndSplineSet
EndChar

StartChar: bracketright
Encoding: 93 93 86
Width: 1149
GlyphClass: 2
Flags: W
LayerCount: 2
Fore
SplineSet
72.5 -348.5 m 128,-1,1
 41 -342 41 -342 35.5 -333.5 c 128,-1,2
 30 -325 30 -325 30 -259.5 c 128,-1,3
 30 -194 30 -194 55 -126 c 1,4,5
 177 -134 177 -134 243 -124 c 1,6,7
 329 -13 329 -13 598 554 c 0,8,9
 893 1178 893 1178 976 1460 c 1,10,11
 923 1471 923 1471 738 1477 c 1,12,13
 742 1529 742 1529 760 1553 c 128,-1,14
 778 1577 778 1577 796.5 1580.5 c 128,-1,15
 815 1584 815 1584 846 1585 c 128,-1,16
 877 1586 877 1586 913.5 1586 c 128,-1,17
 950 1586 950 1586 988 1584 c 0,18,19
 1122 1575 1122 1575 1122 1550 c 128,-1,20
 1122 1525 1122 1525 1094 1398 c 128,-1,21
 1066 1271 1066 1271 1036 1158 c 128,-1,22
 1006 1045 1006 1045 969.5 923 c 128,-1,23
 933 801 933 801 893.5 677.5 c 128,-1,24
 854 554 854 554 812.5 433 c 128,-1,25
 771 312 771 312 730.5 202 c 128,-1,26
 690 92 690 92 652.5 -3.5 c 128,-1,27
 615 -99 615 -99 582 -172 c 0,28,29
 514 -326 514 -326 483 -349 c 0,30,31
 458 -368 458 -368 374.5 -368 c 128,-1,32
 291 -368 291 -368 243.5 -366 c 128,-1,33
 196 -364 196 -364 150 -359.5 c 128,-1,0
 104 -355 104 -355 72.5 -348.5 c 128,-1,1
EndSplineSet
EndChar

StartChar: asciicircum
Encoding: 94 94 87
Width: 1200
GlyphClass: 2
Flags: W
LayerCount: 2
Fore
SplineSet
328.5 347.5 m 128,-1,1
 281 325 281 325 265.5 325 c 128,-1,2
 250 325 250 325 235.5 333 c 128,-1,3
 221 341 221 341 206 353 c 0,4,5
 170 381 170 381 161 400 c 1,6,7
 251 462 251 462 369 562.5 c 128,-1,8
 487 663 487 663 537 711 c 0,9,10
 651 821 651 821 669 872 c 1,11,12
 743 864 743 864 757 852 c 1,13,14
 811 695 811 695 921 515 c 0,15,16
 975 426 975 426 1013 400 c 1,17,18
 997 365 997 365 970 346 c 128,-1,19
 943 327 943 327 923 327 c 128,-1,20
 903 327 903 327 866 349 c 128,-1,21
 829 371 829 371 792 406 c 0,22,23
 722 471 722 471 661 567 c 1,24,25
 565 487 565 487 470.5 428.5 c 128,-1,0
 376 370 376 370 328.5 347.5 c 128,-1,1
EndSplineSet
EndChar

StartChar: underscore
Encoding: 95 95 88
Width: 1279
GlyphClass: 2
Flags: W
LayerCount: 2
Fore
SplineSet
0 124 m 1,0,-1
 1278 124 l 1,1,-1
 1240 0 l 1,2,-1
 -38 0 l 1,3,-1
 0 124 l 1,0,-1
EndSplineSet
Substitution2: "Single Substitution lookup 1 subtable" .notdef
EndChar

StartChar: grave
Encoding: 96 96 89
Width: 1200
GlyphClass: 2
Flags: W
LayerCount: 2
Fore
SplineSet
839.5 1041 m 128,-1,1
 823 1041 823 1041 790.5 1055 c 128,-1,2
 758 1069 758 1069 724.5 1092.5 c 128,-1,3
 691 1116 691 1116 659 1146.5 c 128,-1,4
 627 1177 627 1177 602 1210 c 1,5,6
 548 1285 548 1285 548 1342 c 0,7,8
 548 1379 548 1379 606 1422 c 0,9,10
 660 1462 660 1462 697 1462 c 1,11,12
 736 1345 736 1345 838 1194 c 0,13,14
 886 1122 886 1122 915 1102 c 1,15,16
 904 1072 904 1072 880 1056.5 c 128,-1,0
 856 1041 856 1041 839.5 1041 c 128,-1,1
EndSplineSet
EndChar

StartChar: a
Encoding: 97 97 90
Width: 1177
GlyphClass: 2
Flags: W
LayerCount: 2
Fore
SplineSet
646 160 m 1,0,1
 509 0 509 0 312 0 c 0,2,3
 187 0 187 0 112 75 c 0,4,5
 38 149 38 149 38 270 c 0,6,7
 38 423 38 423 158 567 c 0,8,9
 274 707 274 707 462 795 c 0,10,11
 657 886 657 886 865 886 c 0,12,13
 944 886 944 886 978 861 c 1,14,15
 1005 893 1005 893 1026.5 898.5 c 128,-1,16
 1048 904 1048 904 1060 904 c 0,17,18
 1098 904 1098 904 1141 893 c 1,19,20
 1137 880 1137 880 1124 848.5 c 128,-1,21
 1111 817 1111 817 1095 774 c 128,-1,22
 1079 731 1079 731 1061 680 c 0,23,24
 996 498 996 498 996 407.5 c 128,-1,25
 996 317 996 317 1053 317 c 0,26,27
 1127 317 1127 317 1218 384 c 1,28,29
 1299 445 1299 445 1360 536 c 1,30,31
 1405 539 1405 539 1405 499 c 0,32,33
 1405 465 1405 465 1363.5 395 c 128,-1,34
 1322 325 1322 325 1283 274 c 128,-1,35
 1244 223 1244 223 1196 174 c 128,-1,36
 1148 125 1148 125 1094 86 c 0,37,38
 973 0 973 0 858 0 c 0,39,40
 712 0 712 0 662 88 c 0,41,42
 646 115 646 115 646 135.5 c 128,-1,43
 646 156 646 156 646 160 c 1,0,1
360 433 m 0,44,45
 360 317 360 317 457 317 c 0,46,47
 564 317 564 317 709 490 c 0,48,49
 786 582 786 582 843.5 666 c 128,-1,50
 901 750 901 750 931 794 c 1,51,52
 681 792 681 792 516 680 c 0,53,54
 360 574 360 574 360 433 c 0,44,45
EndSplineSet
EndChar

StartChar: b
Encoding: 98 98 91
Width: 1070
GlyphClass: 2
Flags: W
LayerCount: 2
Fore
SplineSet
499 806 m 1,0,1
 633 885 633 885 760 885 c 0,2,3
 962 885 962 885 1014 731 c 0,4,5
 1030 684 1030 684 1030 614 c 0,6,7
 1030 462 1030 462 918 301 c 1,8,9
 1012 314 1012 314 1100 375.5 c 128,-1,10
 1188 437 1188 437 1253 536 c 1,11,12
 1298 539 1298 539 1298 499 c 0,13,14
 1298 483 1298 483 1288 460 c 0,15,16
 1098 -1 1098 -1 365 -1 c 2,17,-1
 363 -1 l 2,18,19
 228 -1 228 -1 140 78 c 0,20,21
 44 165 44 165 44 321 c 0,22,23
 44 513 44 513 394 1015 c 0,24,25
 542 1229 542 1229 647 1349 c 0,26,27
 676 1382 676 1382 725 1382 c 0,28,29
 779 1382 779 1382 804 1342 c 1,30,31
 598 1019 598 1019 499 806 c 1,0,1
396 529 m 1,32,33
 383 466 383 466 383 423 c 128,-1,34
 383 380 383 380 409 350.5 c 128,-1,35
 435 321 435 321 476.5 321 c 128,-1,36
 518 321 518 321 561 335.5 c 128,-1,37
 604 350 604 350 645 375 c 128,-1,38
 686 400 686 400 723 433.5 c 128,-1,39
 760 467 760 467 788 506 c 0,40,41
 848 590 848 590 848 665 c 0,42,43
 848 713 848 713 824 738 c 0,44,45
 784 780 784 780 734.5 780 c 128,-1,46
 685 780 685 780 634 759.5 c 128,-1,47
 583 739 583 739 538 704 c 0,48,49
 441 631 441 631 396 529 c 1,32,33
EndSplineSet
EndChar

StartChar: c
Encoding: 99 99 92
Width: 851
GlyphClass: 2
Flags: W
LayerCount: 2
Fore
SplineSet
820 726 m 1,0,1
 744 766 744 766 685.5 766 c 128,-1,2
 627 766 627 766 579.5 739.5 c 128,-1,3
 532 713 532 713 496 670 c 0,4,5
 420 579 420 579 420 468 c 0,6,7
 420 384 420 384 480 336 c 1,8,9
 535 290 535 290 642 290 c 128,-1,10
 749 290 749 290 852.5 353.5 c 128,-1,11
 956 417 956 417 1034 536 c 1,12,13
 1079 539 1079 539 1079 499 c 0,14,15
 1079 483 1079 483 1054.5 424.5 c 128,-1,16
 1030 366 1030 366 966 280 c 128,-1,17
 902 194 902 194 818 128 c 0,18,19
 636 -15 636 -15 422 -15 c 0,20,21
 249 -15 249 -15 150 74 c 0,22,23
 50 164 50 164 50 333 c 0,24,25
 50 465 50 465 154 598 c 0,26,27
 251 723 251 723 399 803 c 0,28,29
 550 885 550 885 681 885 c 0,30,31
 752 885 752 885 791 861 c 0,32,33
 859 819 859 819 859 781 c 0,34,35
 859 740 859 740 820 726 c 1,0,1
EndSplineSet
EndChar

StartChar: d
Encoding: 100 100 93
Width: 1197
GlyphClass: 2
Flags: W
LayerCount: 2
Fore
SplineSet
1073 317 m 0,0,1
 1147 317 1147 317 1238 384 c 1,2,3
 1319 445 1319 445 1380 536 c 1,4,5
 1426 540 1426 540 1424 497 c 0,6,7
 1423 463 1423 463 1382.5 394 c 128,-1,8
 1342 325 1342 325 1303 274 c 128,-1,9
 1264 223 1264 223 1216 174 c 128,-1,10
 1168 125 1168 125 1114 86 c 0,11,12
 993 0 993 0 878 0 c 0,13,14
 731 0 731 0 682 88 c 0,15,16
 665 118 665 118 666 160 c 1,17,18
 581 57 581 57 424 16 c 0,19,20
 371 2 371 2 310 2 c 128,-1,21
 249 2 249 2 198.5 21.5 c 128,-1,22
 148 41 148 41 112 76 c 0,23,24
 38 149 38 149 38 271 c 0,25,26
 38 409 38 409 155 554 c 0,27,28
 270 698 270 698 450 790 c 0,29,30
 642 887 642 887 842 887 c 0,31,32
 931 887 931 887 921 808 c 1,33,34
 691 808 691 808 520 684 c 0,35,36
 445 629 445 629 402.5 563 c 128,-1,37
 360 497 360 497 360 435 c 0,38,39
 360 319 360 319 458 319 c 0,40,41
 599 319 599 319 742 495 c 0,42,43
 792 557 792 557 858.5 668.5 c 128,-1,44
 925 780 925 780 967.5 850.5 c 128,-1,45
 1010 921 1010 921 1054.5 994.5 c 128,-1,46
 1099 1068 1099 1068 1140 1135 c 0,47,48
 1241 1300 1241 1300 1265 1333 c 0,49,50
 1301 1383 1301 1383 1350 1383 c 0,51,52
 1407 1383 1407 1383 1433 1342 c 1,53,54
 1323 1169 1323 1169 1228 975 c 128,-1,55
 1133 781 1133 781 1096 692 c 0,56,57
 1012 490 1012 490 1012 403.5 c 128,-1,58
 1012 317 1012 317 1073 317 c 0,0,1
EndSplineSet
EndChar

StartChar: e
Encoding: 101 101 94
Width: 951
GlyphClass: 2
Flags: W
LayerCount: 2
Fore
SplineSet
435 393 m 1,0,1
 493 289 493 289 698 289 c 0,2,3
 826 289 826 289 939.5 351.5 c 128,-1,4
 1053 414 1053 414 1134 536 c 1,5,6
 1179 539 1179 539 1179 499 c 0,7,8
 1179 454 1179 454 1125.5 369.5 c 128,-1,9
 1072 285 1072 285 1025.5 233 c 128,-1,10
 979 181 979 181 921.5 136.5 c 128,-1,11
 864 92 864 92 798 60 c 0,12,13
 655 -10 655 -10 497 -10 c 0,14,15
 179 -10 179 -10 84 166 c 0,16,17
 50 230 50 230 50 312.5 c 128,-1,18
 50 395 50 395 78.5 464 c 128,-1,19
 107 533 107 533 157 595.5 c 128,-1,20
 207 658 207 658 276 711 c 128,-1,21
 345 764 345 764 426 802 c 0,22,23
 598 885 598 885 777 885 c 0,24,25
 906 885 906 885 954 804 c 0,26,27
 971 776 971 776 971 729.5 c 128,-1,28
 971 683 971 683 947.5 638 c 128,-1,29
 924 593 924 593 884 556.5 c 128,-1,30
 844 520 844 520 791 492.5 c 128,-1,31
 738 465 738 465 678 445 c 0,32,33
 572 409 572 409 435 393 c 1,0,1
421 486 m 1,34,35
 549 501 549 501 641 557 c 0,36,37
 738 617 738 617 738 697.5 c 128,-1,38
 738 778 738 778 664 778 c 0,39,40
 568 778 568 778 497 686 c 0,41,42
 429 598 429 598 421 486 c 1,34,35
EndSplineSet
EndChar

StartChar: f
Encoding: 102 102 95
Width: 882
GlyphClass: 2
Flags: W
LayerCount: 2
Fore
SplineSet
110 339 m 1,0,1
 46 419 46 419 46 480 c 0,2,3
 46 508 46 508 64.5 525.5 c 128,-1,4
 83 543 83 543 112 560 c 0,5,6
 165 592 165 592 251 625 c 1,7,8
 422 934 422 934 625 1162 c 0,9,10
 833 1396 833 1396 950 1396 c 0,11,12
 1001 1396 1001 1396 1035 1348 c 0,13,14
 1069 1301 1069 1301 1069 1235 c 128,-1,15
 1069 1169 1069 1169 1048 1110.5 c 128,-1,16
 1027 1052 1027 1052 990 996.5 c 128,-1,17
 953 941 953 941 901.5 889.5 c 128,-1,18
 850 838 850 838 789 796 c 0,19,20
 662 707 662 707 522 671 c 1,21,22
 634 631 634 631 662 432 c 0,23,24
 669 377 669 377 669 343.5 c 128,-1,25
 669 310 669 310 669 303 c 1,26,27
 694 296 694 296 732.5 296 c 128,-1,28
 771 296 771 296 819 316 c 128,-1,29
 867 336 867 336 912 369 c 0,30,31
 996 432 996 432 1065 536 c 1,32,33
 1110 539 1110 539 1110 499 c 0,34,35
 1110 470 1110 470 1072 398 c 128,-1,36
 1034 326 1034 326 1001.5 277.5 c 128,-1,37
 969 229 969 229 930.5 183 c 128,-1,38
 892 137 892 137 850 101 c 0,39,40
 756 22 756 22 667 22 c 0,41,42
 652 22 652 22 633 25 c 1,43,44
 581 -196 581 -196 474 -340 c 0,45,46
 353 -501 353 -501 205 -501 c 0,47,48
 95 -501 95 -501 40 -384 c 0,49,50
 -8 -282 -8 -282 -8 -110 c 128,-1,51
 -8 62 -8 62 110 339 c 1,0,1
930 1193 m 0,52,53
 930 1250 930 1250 896.5 1250 c 128,-1,54
 863 1250 863 1250 823 1215 c 128,-1,55
 783 1180 783 1180 740 1118 c 0,56,57
 650 990 650 990 564 790 c 1,58,59
 705 832 705 832 817 954 c 0,60,61
 930 1077 930 1077 930 1193 c 0,52,53
481 570 m 1,62,-1
 449 470 l 1,63,64
 489 410 489 410 552 361 c 1,65,66
 547 538 547 538 481 570 c 1,62,-1
378 128 m 1,67,68
 369 48 369 48 369 -26 c 128,-1,69
 369 -100 369 -100 375.5 -143.5 c 128,-1,70
 382 -187 382 -187 406 -187 c 0,71,72
 437 -187 437 -187 470 -115 c 1,73,74
 499 -55 499 -55 523 58 c 1,75,76
 453 86 453 86 378 128 c 1,67,68
EndSplineSet
EndChar

StartChar: g
Encoding: 103 103 96
Width: 1099
GlyphClass: 2
Flags: W
LayerCount: 2
Fore
SplineSet
971 866 m 1,0,1
 1014 915 1014 915 1070 915 c 0,2,3
 1103 915 1103 915 1126 896 c 1,4,5
 1027 738 1027 738 922 426 c 0,6,7
 893 340 893 340 864 254 c 1,8,9
 1038 278 1038 278 1200 436 c 0,10,11
 1248 484 1248 484 1282 536 c 1,12,13
 1327 539 1327 539 1327 499 c 0,14,15
 1327 483 1327 483 1303 426 c 128,-1,16
 1279 369 1279 369 1221.5 295 c 128,-1,17
 1164 221 1164 221 1093 164 c 0,18,19
 953 53 953 53 779 15 c 1,20,21
 685 -227 685 -227 574 -350 c 0,22,23
 439 -500 439 -500 251 -500 c 0,24,25
 117 -500 117 -500 16 -423 c 0,26,27
 -92 -340 -92 -340 -92 -220 c 0,28,29
 -92 -170 -92 -170 -44 -120 c 0,30,31
 5 -69 5 -69 59 -57 c 1,32,33
 102 -112 102 -112 238 -147 c 0,34,35
 273 -156 273 -156 305.5 -156 c 128,-1,36
 338 -156 338 -156 376.5 -132.5 c 128,-1,37
 415 -109 415 -109 453 -68 c 0,38,39
 523 9 523 9 601 150 c 1,40,41
 457 0 457 0 283 0 c 0,42,43
 177 0 177 0 108 75 c 0,44,45
 38 151 38 151 38 270 c 0,46,47
 38 423 38 423 158 567 c 0,48,49
 274 707 274 707 462 795 c 0,50,51
 657 886 657 886 865 886 c 0,52,53
 936 886 936 886 971 866 c 1,0,1
360 433 m 0,54,55
 360 317 360 317 457 317 c 0,56,57
 595 317 595 317 820 634 c 0,58,59
 854 681 854 681 884 725 c 1,60,61
 896 747 896 747 922 794 c 1,62,63
 673 788 673 788 514 678 c 1,64,65
 360 573 360 573 360 433 c 0,54,55
EndSplineSet
EndChar

StartChar: h
Encoding: 104 104 97
Width: 1224
GlyphClass: 2
Flags: W
LayerCount: 2
Fore
SplineSet
268 0 m 0,0,1
 50 0 50 0 50 249 c 0,2,3
 50 460 50 460 283 789 c 0,4,5
 488 1078 488 1078 727 1273 c 0,6,7
 878 1396 878 1396 950 1396 c 0,8,9
 1003 1396 1003 1396 1044 1347 c 1,10,11
 1089 1295 1089 1295 1089 1240.5 c 128,-1,12
 1089 1186 1089 1186 1065.5 1142.5 c 128,-1,13
 1042 1099 1042 1099 1002.5 1055 c 128,-1,14
 963 1011 963 1011 909.5 968 c 128,-1,15
 856 925 856 925 796 887 c 0,16,17
 672 807 672 807 553 767 c 1,18,19
 510 672 510 672 468 556 c 1,20,21
 670 738 670 738 939 810 c 0,22,23
 1025 833 1025 833 1084 833 c 128,-1,24
 1143 833 1143 833 1155 812.5 c 128,-1,25
 1167 792 1167 792 1159.5 758 c 128,-1,26
 1152 724 1152 724 1131 681 c 128,-1,27
 1110 638 1110 638 1088 592 c 0,28,29
 1033 473 1033 473 1033 422 c 0,30,31
 1033 317 1033 317 1100 317 c 0,32,33
 1174 317 1174 317 1265 384 c 1,34,35
 1346 445 1346 445 1407 536 c 1,36,37
 1452 539 1452 539 1452 499 c 0,38,39
 1452 467 1452 467 1410.5 395.5 c 128,-1,40
 1369 324 1369 324 1329 272 c 128,-1,41
 1289 220 1289 220 1239 169.5 c 128,-1,42
 1189 119 1189 119 1132 80 c 0,43,44
 1004 -9 1004 -9 886 -9 c 128,-1,45
 768 -9 768 -9 718.5 51.5 c 128,-1,46
 669 112 669 112 669 225 c 0,47,48
 669 370 669 370 844 588 c 0,49,50
 898 655 898 655 891 655 c 0,51,52
 811 655 811 655 648 555 c 0,53,54
 475 449 475 449 404 347 c 1,55,56
 363 186 363 186 355 40 c 1,57,58
 355 0 355 0 268 0 c 0,0,1
609 883 m 1,59,60
 738 942 738 942 831 1024 c 1,61,62
 924 1108 924 1108 924 1169 c 0,63,64
 924 1199 924 1199 912.5 1224.5 c 128,-1,65
 901 1250 901 1250 882.5 1250 c 128,-1,66
 864 1250 864 1250 835 1223 c 128,-1,67
 806 1196 806 1196 770 1148 c 0,68,69
 694 1048 694 1048 609 883 c 1,59,60
EndSplineSet
EndChar

StartChar: i
Encoding: 105 105 98
Width: 670
GlyphClass: 2
Flags: W
LayerCount: 2
Fore
SplineSet
751.5 1072.5 m 128,-1,1
 704 1062 704 1062 669 1062 c 128,-1,2
 634 1062 634 1062 606 1070.5 c 128,-1,3
 578 1079 578 1079 556 1095 c 0,4,5
 508 1130 508 1130 508 1179 c 128,-1,6
 508 1228 508 1228 525.5 1262 c 128,-1,7
 543 1296 543 1296 576 1320 c 0,8,9
 647 1372 647 1372 746.5 1372 c 128,-1,10
 846 1372 846 1372 891.5 1331 c 128,-1,11
 937 1290 937 1290 937 1237 c 128,-1,12
 937 1184 937 1184 909 1154 c 128,-1,13
 881 1124 881 1124 840 1103.5 c 128,-1,0
 799 1083 799 1083 751.5 1072.5 c 128,-1,1
70 116 m 0,14,15
 49 161 49 161 49 226.5 c 128,-1,16
 49 292 49 292 77.5 365 c 128,-1,17
 106 438 106 438 150.5 510.5 c 128,-1,18
 195 583 195 583 250 650.5 c 128,-1,19
 305 718 305 718 359 770 c 0,20,21
 478 883 478 883 534 883 c 0,22,23
 558 883 558 883 587.5 862.5 c 128,-1,24
 617 842 617 842 625 832 c 1,25,26
 474 670 474 670 434 519 c 0,27,28
 421 473 421 473 421 429.5 c 128,-1,29
 421 386 421 386 454 351.5 c 128,-1,30
 487 317 487 317 536 317 c 128,-1,31
 585 317 585 317 627.5 335.5 c 128,-1,32
 670 354 670 354 711 384 c 0,33,34
 792 445 792 445 853 536 c 1,35,36
 898 539 898 539 898 499 c 0,37,38
 898 466 898 466 856.5 395 c 128,-1,39
 815 324 815 324 774 272.5 c 128,-1,40
 733 221 733 221 680.5 171 c 128,-1,41
 628 121 628 121 566 82 c 0,42,43
 427 -6 427 -6 280 -6 c 0,44,45
 125 -6 125 -6 70 116 c 0,14,15
EndSplineSet
EndChar

StartChar: j
Encoding: 106 106 99
Width: 519
GlyphClass: 2
Flags: W
LayerCount: 2
Fore
SplineSet
571.5 1074 m 128,-1,1
 526 1062 526 1062 491 1062 c 128,-1,2
 456 1062 456 1062 429.5 1070.5 c 128,-1,3
 403 1079 403 1079 382 1095 c 0,4,5
 339 1129 339 1129 339 1178.5 c 128,-1,6
 339 1228 339 1228 355 1262 c 128,-1,7
 371 1296 371 1296 402 1320 c 0,8,9
 467 1372 467 1372 586 1372 c 0,10,11
 700 1372 700 1372 736 1280 c 0,12,13
 747 1254 747 1254 747 1221.5 c 128,-1,14
 747 1189 747 1189 721 1159 c 128,-1,15
 695 1129 695 1129 656 1107.5 c 128,-1,0
 617 1086 617 1086 571.5 1074 c 128,-1,1
179 9 m 1,16,17
 147 -113 147 -113 121 -207.5 c 128,-1,18
 95 -302 95 -302 63.5 -367 c 128,-1,19
 32 -432 32 -432 -11.5 -466 c 128,-1,20
 -55 -500 -55 -500 -109 -500 c 128,-1,21
 -163 -500 -163 -500 -196 -488 c 128,-1,22
 -229 -476 -229 -476 -255 -458 c 0,23,24
 -307 -421 -307 -421 -325 -375 c 1,25,26
 -247 -313 -247 -313 74 326 c 0,27,28
 255 687 255 687 337 832 c 0,29,30
 371 893 371 893 425 893 c 0,31,32
 456 893 456 893 496 872 c 1,33,34
 349 581 349 581 250 258 c 1,35,36
 445 292 445 292 616 440 c 0,37,38
 669 486 669 486 702 536 c 1,39,40
 747 539 747 539 747 499 c 0,41,42
 747 483 747 483 722.5 424 c 128,-1,43
 698 365 698 365 638 288 c 128,-1,44
 578 211 578 211 504 154 c 0,45,46
 358 41 358 41 179 9 c 1,16,17
EndSplineSet
EndChar

StartChar: k
Encoding: 107 107 100
Width: 1024
GlyphClass: 2
Flags: W
LayerCount: 2
Fore
SplineSet
355 40 m 0,0,1
 355 0 355 0 287.5 0 c 128,-1,2
 220 0 220 0 174.5 13.5 c 128,-1,3
 129 27 129 27 102 57 c 0,4,5
 50 113 50 113 50 249 c 0,6,7
 50 467 50 467 274 793 c 0,8,9
 401 977 401 977 514.5 1095 c 128,-1,10
 628 1213 628 1213 692 1268 c 0,11,12
 831 1388 831 1388 888 1388 c 0,13,14
 928 1388 928 1388 964 1352 c 1,15,16
 772 1164 772 1164 617 905 c 0,17,18
 560 810 560 810 512 704 c 1,19,20
 683 835 683 835 864 876 c 0,21,22
 921 889 921 889 971 889 c 0,23,24
 1067 889 1067 889 1067 801 c 0,25,26
 1067 718 1067 718 964 606 c 0,27,28
 875 510 875 510 766 450 c 1,29,30
 788 386 788 386 817 351.5 c 128,-1,31
 846 317 846 317 892.5 317 c 128,-1,32
 939 317 939 317 981.5 335.5 c 128,-1,33
 1024 354 1024 354 1065 384 c 0,34,35
 1146 445 1146 445 1207 536 c 1,36,37
 1252 539 1252 539 1252 499 c 0,38,39
 1252 467 1252 467 1210.5 395.5 c 128,-1,40
 1169 324 1169 324 1129 272 c 128,-1,41
 1089 220 1089 220 1039 169.5 c 128,-1,42
 989 119 989 119 932 80 c 0,43,44
 804 -9 804 -9 681 -9 c 0,45,46
 483 -9 483 -9 472 346 c 0,47,48
 471 395 471 395 470 436 c 1,49,50
 592 482 592 482 684.5 540 c 128,-1,51
 777 598 777 598 815 628 c 0,52,53
 901 698 901 698 901 747 c 0,54,55
 901 769 901 769 877 769 c 128,-1,56
 853 769 853 769 821 758.5 c 128,-1,57
 789 748 789 748 749 729.5 c 128,-1,58
 709 711 709 711 664.5 685 c 128,-1,59
 620 659 620 659 577 628 c 0,60,61
 480 556 480 556 428 486 c 1,62,63
 359 264 359 264 355 40 c 0,0,1
EndSplineSet
EndChar

StartChar: l
Encoding: 108 108 101
Width: 810
GlyphClass: 2
Flags: W
LayerCount: 2
Fore
SplineSet
854 1390 m 0,0,1
 965 1390 965 1390 965 1203 c 0,2,3
 965 956 965 956 665 681 c 0,4,5
 551 576 551 576 425 500 c 1,6,7
 438 346 438 346 538 324 c 0,8,9
 570 317 570 317 613.5 317 c 128,-1,10
 657 317 657 317 707.5 328.5 c 128,-1,11
 758 340 758 340 808 366 c 0,12,13
 919 423 919 423 993 536 c 1,14,15
 1038 539 1038 539 1038 499 c 0,16,17
 1038 483 1038 483 1016.5 432 c 128,-1,18
 995 381 995 381 937 299.5 c 128,-1,19
 879 218 879 218 798 152 c 0,20,21
 612 0 612 0 385 0 c 0,22,23
 123 0 123 0 68 224 c 0,24,25
 50 294 50 294 50 380.5 c 128,-1,26
 50 467 50 467 76 555 c 128,-1,27
 102 643 102 643 146 729.5 c 128,-1,28
 190 816 190 816 248.5 899 c 128,-1,29
 307 982 307 982 372.5 1055 c 128,-1,30
 438 1128 438 1128 506 1189.5 c 128,-1,31
 574 1251 574 1251 638 1296 c 0,32,33
 775 1390 775 1390 854 1390 c 0,0,1
425 621 m 1,34,35
 593 726 593 726 708 873 c 0,36,37
 825 1022 825 1022 825 1136 c 0,38,39
 825 1193 825 1193 801 1218 c 0,40,41
 793 1227 793 1227 773 1227 c 128,-1,42
 753 1227 753 1227 717 1201.5 c 128,-1,43
 681 1176 681 1176 643 1132 c 128,-1,44
 605 1088 605 1088 568.5 1028.5 c 128,-1,45
 532 969 532 969 502 902 c 0,46,47
 436 751 436 751 425 621 c 1,34,35
EndSplineSet
EndChar

StartChar: m
Encoding: 109 109 102
Width: 1747
GlyphClass: 2
Flags: W
LayerCount: 2
Fore
SplineSet
379 40 m 0,0,1
 379 0 379 0 312 0 c 0,2,3
 214 0 214 0 140 60 c 0,4,5
 50 132 50 132 50 259 c 0,6,7
 50 429 50 429 194 626 c 0,8,9
 327 809 327 809 471 879 c 0,10,11
 495 890 495 890 514.5 890 c 128,-1,12
 534 890 534 890 547 889 c 0,13,14
 580 886 580 886 596 864 c 1,15,16
 536 740 536 740 491 614 c 1,17,18
 611 725 611 725 784 805 c 0,19,20
 964 888 964 888 1109 888 c 0,21,22
 1175 888 1175 888 1175 808 c 0,23,24
 1175 753 1175 753 1147 663 c 1,25,26
 1314 816 1314 816 1516 870 c 0,27,28
 1584 888 1584 888 1639 888 c 128,-1,29
 1694 888 1694 888 1714 872.5 c 128,-1,30
 1734 857 1734 857 1737 830.5 c 128,-1,31
 1740 804 1740 804 1729.5 768.5 c 128,-1,32
 1719 733 1719 733 1701 693 c 128,-1,33
 1683 653 1683 653 1661 611 c 128,-1,34
 1639 569 1639 569 1620 530 c 0,35,36
 1575 436 1575 436 1575 392 c 0,37,38
 1575 310 1575 310 1664 310 c 0,39,40
 1770 310 1770 310 1872 453 c 0,41,42
 1902 494 1902 494 1930 536 c 1,43,44
 1956 538 1956 538 1965.5 526 c 128,-1,45
 1975 514 1975 514 1975 499.5 c 128,-1,46
 1975 485 1975 485 1962.5 454 c 128,-1,47
 1950 423 1950 423 1925.5 374 c 128,-1,48
 1901 325 1901 325 1867 273 c 128,-1,49
 1833 221 1833 221 1789 170.5 c 128,-1,50
 1745 120 1745 120 1690 80 c 0,51,52
 1567 -7 1567 -7 1419 -7 c 0,53,54
 1260 -7 1260 -7 1205 108 c 0,55,56
 1187 145 1187 145 1187 199 c 128,-1,57
 1187 253 1187 253 1208.5 314 c 128,-1,58
 1230 375 1230 375 1261 431.5 c 128,-1,59
 1292 488 1292 488 1326.5 537 c 128,-1,60
 1361 586 1361 586 1387 622 c 128,-1,61
 1413 658 1413 658 1424 679 c 128,-1,62
 1435 700 1435 700 1419 700 c 0,63,64
 1349 700 1349 700 1240 614 c 1,65,66
 1133 532 1133 532 1062 428 c 1,67,68
 959 157 959 157 959 67 c 0,69,70
 959 49 959 49 960.5 36 c 128,-1,71
 962 23 962 23 955 15.5 c 128,-1,72
 948 8 948 8 936 4 c 0,73,74
 888 -15 888 -15 823.5 -1 c 128,-1,75
 759 13 759 13 724 38 c 0,76,77
 645 94 645 94 645 221 c 0,78,79
 645 394 645 394 832 634 c 0,80,81
 888 707 888 707 882 707 c 0,82,83
 805 707 805 707 654 610 c 0,84,85
 497 509 497 509 428 405 c 1,86,87
 383 225 383 225 379 40 c 0,0,1
EndSplineSet
EndChar

StartChar: n
Encoding: 110 110 103
Width: 1182
GlyphClass: 2
Flags: W
LayerCount: 2
Fore
SplineSet
379 38 m 0,0,1
 379 -2 379 -2 312 -2 c 0,2,3
 146 -2 146 -2 76 130 c 0,4,5
 50 177 50 177 50 242 c 128,-1,6
 50 307 50 307 69 371.5 c 128,-1,7
 88 436 88 436 120 499 c 128,-1,8
 152 562 152 562 194 621 c 128,-1,9
 236 680 236 680 283 730 c 0,10,11
 382 836 382 836 471 879 c 0,12,13
 495 890 495 890 514.5 890 c 128,-1,14
 534 890 534 890 547 889 c 0,15,16
 580 886 580 886 596 864 c 1,17,18
 535 735 535 735 496 628 c 1,19,20
 674 803 674 803 910 867 c 0,21,22
 987 888 987 888 1044.5 888 c 128,-1,23
 1102 888 1102 888 1111 866.5 c 128,-1,24
 1120 845 1120 845 1120 827 c 128,-1,25
 1120 809 1120 809 1115 778.5 c 128,-1,26
 1110 748 1110 748 1089 694 c 128,-1,27
 1068 640 1068 640 1046 585 c 0,28,29
 990 445 990 445 990 394 c 0,30,31
 990 306 990 306 1053 306 c 0,32,33
 1161 306 1161 306 1291 448 c 0,34,35
 1329 489 1329 489 1360 536 c 1,36,37
 1405 539 1405 539 1405 499 c 0,38,39
 1405 467 1405 467 1364 393.5 c 128,-1,40
 1323 320 1323 320 1285.5 266.5 c 128,-1,41
 1248 213 1248 213 1201 162 c 128,-1,42
 1154 111 1154 111 1098 70 c 0,43,44
 976 -19 976 -19 860 -19 c 128,-1,45
 744 -19 744 -19 684 42 c 128,-1,46
 624 103 624 103 624 220 c 0,47,48
 624 393 624 393 804 634 c 0,49,50
 859 707 859 707 852 707 c 0,51,52
 776 707 776 707 638 611 c 0,53,54
 501 515 501 515 429 407 c 1,55,56
 383 220 383 220 379 38 c 0,0,1
EndSplineSet
EndChar

StartChar: o
Encoding: 111 111 104
Width: 1040
GlyphClass: 2
Flags: W
LayerCount: 2
Fore
SplineSet
377 -5 m 1,0,-1
 357 -6 l 1,1,2
 199 -6 199 -6 116 72 c 0,3,4
 38 145 38 145 38 270 c 0,5,6
 38 442 38 442 175 599 c 0,7,8
 308 751 308 751 498 812 c 1,9,10
 492 857 492 857 531 886 c 0,11,12
 559 907 559 907 623.5 907 c 128,-1,13
 688 907 688 907 748 895 c 128,-1,14
 808 883 808 883 869 842 c 0,15,16
 1001 755 1001 755 1001 608 c 0,17,18
 1001 449 1001 449 922 306 c 1,19,20
 1094 343 1094 343 1223 536 c 1,21,22
 1268 539 1268 539 1268 499 c 0,23,24
 1268 483 1268 483 1258 460 c 0,25,26
 1122 137 1122 137 714 32 c 0,27,28
 568 -6 568 -6 382 -6 c 1,29,-1
 377 -5 l 1,0,-1
360 433 m 0,30,31
 360 317 360 317 457 317 c 0,32,33
 539 317 539 317 622 416 c 0,34,35
 709 519 709 519 709 625 c 0,36,37
 709 733 709 733 605 768 c 1,38,39
 426 718 426 718 376 544 c 0,40,41
 360 491 360 491 360 433 c 0,30,31
EndSplineSet
EndChar

StartChar: p
Encoding: 112 112 105
Width: 1136
GlyphClass: 2
Flags: W
LayerCount: 2
Fore
SplineSet
119 -459 m 0,0,1
 119 -499 119 -499 52 -499 c 0,2,3
 -103 -499 -103 -499 -157 -371 c 0,4,5
 -177 -324 -177 -324 -177 -266.5 c 128,-1,6
 -177 -209 -177 -209 -158.5 -140.5 c 128,-1,7
 -140 -72 -140 -72 -107.5 9.5 c 128,-1,8
 -75 91 -75 91 -31 181.5 c 128,-1,9
 13 272 13 272 63 362 c 128,-1,10
 113 452 113 452 167.5 536 c 128,-1,11
 222 620 222 620 276 690 c 0,12,13
 420 877 420 877 504 888 c 0,14,15
 516 890 516 890 525 890 c 128,-1,16
 534 890 534 890 547 889 c 0,17,18
 580 886 580 886 596 864 c 1,19,20
 579 827 579 827 555.5 777.5 c 128,-1,21
 532 728 532 728 506 668 c 1,22,23
 702 818 702 818 922 870 c 0,24,25
 994 888 994 888 1059 888 c 0,26,27
 1189 888 1189 888 1126 768 c 0,28,29
 1096 710 1096 710 1044 639.5 c 128,-1,30
 992 569 992 569 966 530 c 0,31,32
 904 438 904 438 904 392 c 0,33,34
 904 310 904 310 993 310 c 0,35,36
 1071 310 1071 310 1169 380 c 0,37,38
 1258 444 1258 444 1319 536 c 1,39,40
 1345 538 1345 538 1354.5 526 c 128,-1,41
 1364 514 1364 514 1364 499.5 c 128,-1,42
 1364 485 1364 485 1351 454 c 128,-1,43
 1338 423 1338 423 1309.5 374 c 128,-1,44
 1281 325 1281 325 1240.5 273 c 128,-1,45
 1200 221 1200 221 1148 170.5 c 128,-1,46
 1096 120 1096 120 1034 80 c 0,47,48
 897 -7 897 -7 748 -7 c 0,49,50
 589 -7 589 -7 534 108 c 0,51,52
 516 145 516 145 516 199 c 128,-1,53
 516 253 516 253 546.5 314 c 128,-1,54
 577 375 577 375 620 431.5 c 128,-1,55
 663 488 663 488 710 537 c 128,-1,56
 757 586 757 586 789.5 622 c 128,-1,57
 822 658 822 658 831 679 c 128,-1,58
 840 700 840 700 807 700 c 128,-1,59
 774 700 774 700 722.5 678.5 c 128,-1,60
 671 657 671 657 615 622 c 0,61,62
 489 544 489 544 409 447 c 1,63,64
 122 -225 122 -225 119 -459 c 0,0,1
EndSplineSet
EndChar

StartChar: q
Encoding: 113 113 106
Width: 1099
GlyphClass: 2
Flags: W
LayerCount: 2
Fore
SplineSet
488 74 m 1,0,1
 391 0 391 0 283 0 c 0,2,3
 177 0 177 0 108 75 c 0,4,5
 38 151 38 151 38 270 c 0,6,7
 38 423 38 423 158 567 c 0,8,9
 274 707 274 707 462 795 c 0,10,11
 657 886 657 886 865 886 c 0,12,13
 980 886 980 886 1005 837 c 1,14,15
 1055 887 1055 887 1075 890.5 c 128,-1,16
 1095 894 1095 894 1104 894 c 128,-1,17
 1113 894 1113 894 1126 892 c 0,18,19
 1161 887 1161 887 1178 864 c 1,20,21
 1091 746 1091 746 956 446 c 0,22,23
 915 353 915 353 876 255 c 1,24,25
 1047 286 1047 286 1202 438 c 0,26,27
 1249 485 1249 485 1282 536 c 1,28,29
 1327 539 1327 539 1327 499 c 0,30,31
 1327 483 1327 483 1303.5 426.5 c 128,-1,32
 1280 370 1280 370 1223 296.5 c 128,-1,33
 1166 223 1166 223 1096 166 c 0,34,35
 956 54 956 54 786 16 c 1,36,37
 678 -298 678 -298 674 -459 c 0,38,39
 674 -499 674 -499 607 -499 c 0,40,41
 497 -499 497 -499 440.5 -435 c 128,-1,42
 384 -371 384 -371 384 -261 c 0,43,44
 384 -143 384 -143 488 74 c 1,0,1
360 433 m 0,45,46
 360 317 360 317 457 317 c 0,47,48
 569 317 569 317 762 556 c 0,49,50
 812 618 812 618 859 671 c 1,51,52
 913 740 913 740 962 794 c 1,53,54
 958 794 958 794 953 794 c 0,55,56
 700 794 700 794 528 684 c 0,57,58
 448 634 448 634 404 568 c 128,-1,59
 360 502 360 502 360 433 c 0,45,46
EndSplineSet
EndChar

StartChar: r
Encoding: 114 114 107
Width: 855
GlyphClass: 2
Flags: W
LayerCount: 2
Fore
SplineSet
535 600 m 1,0,1
 415 606 415 606 331 625 c 1,2,3
 228 446 228 446 129 306 c 1,4,5
 116 285 116 285 70 295 c 0,6,7
 -12 313 -12 313 -24 337 c 1,8,9
 154 462 154 462 226 658 c 1,10,11
 121 706 121 706 121 794 c 0,12,13
 121 848 121 848 192 932 c 1,14,15
 259 1014 259 1014 291 1014 c 0,16,17
 389 1014 389 1014 440 964 c 0,18,19
 460 945 460 945 460 913.5 c 128,-1,20
 460 882 460 882 426 808 c 1,21,22
 580 733 580 733 814 720 c 1,23,24
 807 651 807 651 756 608 c 0,25,26
 742 595 742 595 728 595 c 1,27,28
 657 531 657 531 628 456 c 0,29,30
 619 432 619 432 619 410 c 0,31,32
 619 317 619 317 730 317 c 0,33,34
 805 317 805 317 896 384 c 1,35,36
 977 445 977 445 1038 536 c 1,37,38
 1083 539 1083 539 1083 499 c 0,39,40
 1083 465 1083 465 1041.5 395 c 128,-1,41
 1000 325 1000 325 961 274 c 128,-1,42
 922 223 922 223 874 174 c 128,-1,43
 826 125 826 125 772 86 c 0,44,45
 651 0 651 0 535 0 c 0,46,47
 338 0 338 0 271 122 c 0,48,49
 248 163 248 163 248 217.5 c 128,-1,50
 248 272 248 272 270.5 325 c 128,-1,51
 293 378 293 378 332 428 c 0,52,53
 412 532 412 532 535 600 c 1,0,1
EndSplineSet
EndChar

StartChar: s
Encoding: 115 115 108
Width: 1003
GlyphClass: 2
Flags: W
LayerCount: 2
Fore
SplineSet
903 826 m 1,0,1
 848 830 848 830 796 824 c 1,2,3
 796 814 796 814 796 789 c 128,-1,4
 796 764 796 764 803 714 c 128,-1,5
 810 664 810 664 820 604 c 0,6,7
 848 434 848 434 848 374 c 128,-1,8
 848 314 848 314 840 276 c 1,9,10
 991 314 991 314 1117 450 c 0,11,12
 1155 491 1155 491 1185 536 c 1,13,14
 1214 538 1214 538 1222 525.5 c 128,-1,15
 1230 513 1230 513 1230 499 c 128,-1,16
 1230 485 1230 485 1207 431 c 128,-1,17
 1184 377 1184 377 1119.5 295 c 128,-1,18
 1055 213 1055 213 959 147 c 0,19,20
 742 -2 742 -2 437 -4 c 1,21,22
 409 -6 409 -6 356 -6 c 128,-1,23
 303 -6 303 -6 239 23.5 c 128,-1,24
 175 53 175 53 130 104 c 0,25,26
 37 209 37 209 37 373 c 0,27,28
 37 441 37 441 140 526 c 0,29,30
 169 550 169 550 198 568 c 1,31,32
 298 718 298 718 482.5 828 c 128,-1,33
 667 938 667 938 828 938 c 0,34,35
 886 938 886 938 908 906 c 0,36,37
 932 872 932 872 903 826 c 1,0,1
400 361 m 0,38,39
 422 344 422 344 449 344 c 128,-1,40
 476 344 476 344 502 365 c 128,-1,41
 528 386 528 386 549.5 421 c 128,-1,42
 571 456 571 456 587.5 502 c 128,-1,43
 604 548 604 548 617 598 c 0,44,45
 639 682 639 682 661 797 c 1,46,47
 492 745 492 745 362 632 c 0,48,49
 323 597 323 597 294 561 c 1,50,51
 329 417 329 417 400 361 c 0,38,39
EndSplineSet
EndChar

StartChar: t
Encoding: 116 116 109
Width: 827
GlyphClass: 2
Flags: W
LayerCount: 2
Fore
SplineSet
396 -1 m 0,0,1
 77 -1 77 -1 77 270 c 0,2,3
 77 459 77 459 328 794 c 1,4,5
 303 802 303 802 282 808 c 128,-1,6
 261 814 261 814 248 818.5 c 128,-1,7
 235 823 235 823 232 833 c 128,-1,8
 229 843 229 843 230 856 c 0,9,10
 234 886 234 886 244 904 c 1,11,-1
 395 879 l 1,12,13
 572 1094 572 1094 700 1174 c 0,14,15
 739 1198 739 1198 755 1198 c 128,-1,16
 771 1198 771 1198 783.5 1193.5 c 128,-1,17
 796 1189 796 1189 809 1182 c 0,18,19
 837 1167 837 1167 853 1147 c 1,20,21
 718 1015 718 1015 600 844 c 1,22,23
 829 804 829 804 880 801 c 1,24,25
 853 694 853 694 818 694 c 0,26,27
 732 694 732 694 535 741 c 1,28,29
 436 576 436 576 436 467 c 0,30,31
 436 317 436 317 638 317 c 0,32,33
 864 317 864 317 1010 536 c 1,34,35
 1055 539 1055 539 1055 499 c 0,36,37
 1055 464 1055 464 1013 394.5 c 128,-1,38
 971 325 971 325 929 274 c 128,-1,39
 887 223 887 223 832 173.5 c 128,-1,40
 777 124 777 124 710 85 c 0,41,42
 564 -1 564 -1 396 -1 c 0,0,1
EndSplineSet
EndChar

StartChar: u
Encoding: 117 117 110
Width: 1177
GlyphClass: 2
Flags: W
LayerCount: 2
Fore
SplineSet
968 437 m 0,0,1
 968 317 968 317 1053 317 c 0,2,3
 1127 317 1127 317 1218 384 c 1,4,5
 1299 445 1299 445 1360 536 c 1,6,7
 1405 539 1405 539 1405 499 c 0,8,9
 1405 465 1405 465 1363.5 395 c 128,-1,10
 1322 325 1322 325 1283 274 c 128,-1,11
 1244 223 1244 223 1196 174 c 128,-1,12
 1148 125 1148 125 1094 86 c 0,13,14
 973 0 973 0 858 0 c 0,15,16
 684 0 684 0 626 124 c 1,17,18
 516 42 516 42 394 11 c 0,19,20
 352 0 352 0 300.5 0 c 128,-1,21
 249 0 249 0 198.5 18.5 c 128,-1,22
 148 37 148 37 112 72 c 0,23,24
 38 144 38 144 38 270 c 0,25,26
 38 411 38 411 134 566 c 0,27,28
 214 695 214 695 338 794 c 0,29,30
 452 884 452 884 522 884 c 0,31,32
 560 884 560 884 608 824 c 1,33,34
 510 755 510 755 439 648 c 0,35,36
 360 529 360 529 360 433 c 0,37,38
 360 317 360 317 457 317 c 0,39,40
 553 317 553 317 608 350 c 1,41,42
 647 506 647 506 783 672 c 0,43,44
 918 837 918 837 1030 879 c 0,45,46
 1066 892 1066 892 1128 845 c 0,47,48
 1143 834 1143 834 1151 826 c 1,49,50
 1066 753 1066 753 1013 628 c 0,51,52
 968 522 968 522 968 437 c 0,0,1
EndSplineSet
EndChar

StartChar: v
Encoding: 118 118 111
Width: 1237
GlyphClass: 2
Flags: W
LayerCount: 2
Fore
SplineSet
343 -36 m 0,0,1
 194 -36 194 -36 194 82 c 0,2,3
 194 135 194 135 208 220 c 0,4,5
 231 369 231 369 231 396 c 128,-1,6
 231 423 231 423 231 429 c 1,7,8
 221 429 221 429 182 377.5 c 128,-1,9
 143 326 143 326 133 311 c 1,10,11
 103 309 103 309 92 338 c 0,12,13
 88 347 88 347 88 356 c 0,14,15
 88 386 88 386 121 440 c 128,-1,16
 154 494 154 494 207.5 572 c 128,-1,17
 261 650 261 650 316 712 c 1,18,19
 438 853 438 853 524 853 c 0,20,21
 598 853 598 853 598 705 c 0,22,23
 598 618 598 618 577.5 502.5 c 128,-1,24
 557 387 557 387 550 344 c 0,25,26
 534 250 534 250 548 250 c 0,27,28
 627 250 627 250 770 371 c 1,29,30
 761 407 761 407 761 436 c 128,-1,31
 761 465 761 465 765 494.5 c 128,-1,32
 769 524 769 524 776 558 c 128,-1,33
 783 592 783 592 791 628 c 128,-1,34
 799 664 799 664 808 696 c 0,35,36
 828 767 828 767 838 785.5 c 128,-1,37
 848 804 848 804 867 826.5 c 128,-1,38
 886 849 886 849 912 870 c 0,39,40
 972 918 972 918 1012 918 c 128,-1,41
 1052 918 1052 918 1071 897.5 c 128,-1,42
 1090 877 1090 877 1102 844 c 0,43,44
 1126 776 1126 776 1126 684.5 c 128,-1,45
 1126 593 1126 593 1054 477 c 1,46,47
 1126 348 1126 348 1177 348 c 0,48,49
 1259 348 1259 348 1362 461 c 0,50,51
 1393 495 1393 495 1420 536 c 1,52,53
 1465 539 1465 539 1465 499 c 0,54,55
 1465 441 1465 441 1368 308 c 0,56,57
 1274 180 1274 180 1176 137 c 0,58,59
 1143 122 1143 122 1112 122 c 0,60,61
 946 122 946 122 844 233 c 1,62,63
 638 47 638 47 453 -16 c 0,64,65
 392 -36 392 -36 343 -36 c 0,0,1
EndSplineSet
EndChar

StartChar: w
Encoding: 119 119 112
Width: 1673
GlyphClass: 2
Flags: W
LayerCount: 2
Fore
SplineSet
745 250 m 1,0,1
 482 -23 482 -23 298 -23 c 0,2,3
 211 -23 211 -23 154 87 c 1,4,5
 104 186 104 186 104 303 c 0,6,7
 104 442 104 442 222 618 c 0,8,9
 324 771 324 771 444 860 c 0,10,11
 479 886 479 886 509 886 c 1,12,-1
 510 887 l 1,13,14
 540 887 540 887 579 861 c 1,15,16
 474 732 474 732 446 526 c 0,17,18
 438 473 438 473 438 434 c 0,19,20
 438 317 438 317 492 317 c 0,21,22
 533 317 533 317 599 353.5 c 128,-1,23
 665 390 665 390 736 455 c 1,24,25
 752 619 752 619 798 756 c 0,26,27
 812 797 812 797 824.5 809.5 c 128,-1,28
 837 822 837 822 855.5 834 c 128,-1,29
 874 846 874 846 894 856 c 0,30,31
 942 881 942 881 963 881 c 128,-1,32
 984 881 984 881 998 869.5 c 128,-1,33
 1012 858 1012 858 1023 841 c 0,34,35
 1047 804 1047 804 1047 770 c 0,36,37
 1047 684 1047 684 968 543 c 1,38,39
 987 389 987 389 1042 334 c 0,40,41
 1059 317 1059 317 1084 317 c 0,42,43
 1138 317 1138 317 1232 411 c 1,44,45
 1231 418 1231 418 1231 424 c 2,46,-1
 1231 439 l 2,47,48
 1231 529 1231 529 1246 620 c 0,49,50
 1267 746 1267 746 1277.5 766.5 c 128,-1,51
 1288 787 1288 787 1305 810.5 c 128,-1,52
 1322 834 1322 834 1345 856 c 0,53,54
 1400 907 1400 907 1439 907 c 128,-1,55
 1478 907 1478 907 1493.5 890 c 128,-1,56
 1509 873 1509 873 1518 844 c 0,57,58
 1532 795 1532 795 1532 694.5 c 128,-1,59
 1532 594 1532 594 1478 469 c 1,60,61
 1547 348 1547 348 1613 348 c 0,62,63
 1695 348 1695 348 1798 461 c 0,64,65
 1829 495 1829 495 1856 536 c 1,66,67
 1901 539 1901 539 1901 499 c 0,68,69
 1901 441 1901 441 1804 308 c 0,70,71
 1710 180 1710 180 1612 137 c 0,72,73
 1579 122 1579 122 1548 122 c 0,74,75
 1406 122 1406 122 1318 208 c 1,76,77
 1186 46 1186 46 1046 -6 c 0,78,79
 999 -23 999 -23 953 -23 c 128,-1,80
 907 -23 907 -23 872 0 c 128,-1,81
 837 23 837 23 812 61 c 0,82,83
 765 130 765 130 745 250 c 1,0,1
EndSplineSet
EndChar

StartChar: x
Encoding: 120 120 113
Width: 1199
GlyphClass: 2
Flags: W
LayerCount: 2
Fore
SplineSet
808 500 m 1,0,1
 914 317 914 317 1035 317 c 0,2,3
 1167 317 1167 317 1306 446 c 0,4,5
 1349 486 1349 486 1382 536 c 1,6,7
 1427 539 1427 539 1427 499 c 0,8,9
 1427 455 1427 455 1376.5 375 c 128,-1,10
 1326 295 1326 295 1282.5 243.5 c 128,-1,11
 1239 192 1239 192 1187.5 147.5 c 128,-1,12
 1136 103 1136 103 1080 70 c 0,13,14
 957 0 957 0 840 0 c 0,15,16
 710 0 710 0 656 152 c 0,17,18
 640 198 640 198 628 254 c 1,19,20
 535 131 535 131 478 86 c 0,21,22
 371 1 371 1 277 1 c 0,23,24
 169 1 169 1 113 74 c 0,25,26
 65 136 65 136 65 220 c 128,-1,27
 65 304 65 304 78 362 c 128,-1,28
 91 420 91 420 109 462 c 0,29,30
 160 582 160 582 225 610 c 0,31,32
 253 623 253 623 288 627 c 1,33,34
 287 608 287 608 287 581.5 c 128,-1,35
 287 555 287 555 291.5 510 c 128,-1,36
 296 465 296 465 308 421 c 0,37,38
 337 321 337 321 383 321 c 0,39,40
 422 321 422 321 474.5 362.5 c 128,-1,41
 527 404 527 404 590 468 c 1,42,43
 573 568 573 568 550 669.5 c 128,-1,44
 527 771 527 771 482 865 c 1,45,46
 536 889 536 889 593 889 c 0,47,48
 632 889 632 889 700 727 c 0,49,50
 719 680 719 680 742 630 c 1,51,52
 873 769 873 769 936 818 c 0,53,54
 1069 924 1069 924 1147 924 c 2,55,-1
 1152 924 l 1,56,57
 1205 915 1205 915 1224 838 c 0,58,59
 1240 769 1240 769 1226 724 c 1,60,61
 1219 695 1219 695 1156 669 c 0,62,63
 1035 619 1035 619 904 617 c 1,64,65
 859 567 859 567 808 500 c 1,0,1
EndSplineSet
EndChar

StartChar: y
Encoding: 121 121 114
Width: 1059
GlyphClass: 2
Flags: W
LayerCount: 2
Fore
SplineSet
658 191 m 1,0,1
 482 26 482 26 326 26 c 0,2,3
 224 26 224 26 155 88 c 0,4,5
 81 154 81 154 81 275 c 0,6,7
 81 414 81 414 178 567 c 0,8,9
 260 696 260 696 378 794 c 0,10,11
 488 885 488 885 543 885 c 0,12,13
 578 885 578 885 600 855 c 1,14,15
 533 804 533 804 482 722 c 0,16,17
 386 566 386 566 386 487 c 0,18,19
 386 322 386 322 476 322 c 0,20,21
 569 322 569 322 697 452 c 0,22,23
 828 585 828 585 879 748 c 1,24,25
 887 802 887 802 892 871 c 1,26,27
 976 902 976 902 1011 860 c 0,28,29
 1024 844 1024 844 1024 807.5 c 128,-1,30
 1024 771 1024 771 1015.5 713 c 128,-1,31
 1007 655 1007 655 988 582 c 1,32,33
 950 427 950 427 880 258 c 1,34,35
 1023 297 1023 297 1167 444 c 0,36,37
 1211 489 1211 489 1242 536 c 1,38,39
 1287 539 1287 539 1287 499 c 0,40,41
 1287 483 1287 483 1263 425.5 c 128,-1,42
 1239 368 1239 368 1184.5 292.5 c 128,-1,43
 1130 217 1130 217 1064 160 c 0,44,45
 929 44 929 44 765 12 c 1,46,47
 572 -342 572 -342 362 -454 c 0,48,49
 286 -495 286 -495 217 -495 c 128,-1,50
 148 -495 148 -495 89 -475 c 128,-1,51
 30 -455 30 -455 -17 -420 c 0,52,53
 -123 -339 -123 -339 -123 -227 c 0,54,55
 -123 -184 -123 -184 -94 -138 c 0,56,57
 -40 -52 -40 -52 22 -28 c 1,58,59
 138 -106 138 -106 220 -125 c 0,60,61
 256 -133 256 -133 296 -133 c 128,-1,62
 336 -133 336 -133 380.5 -109 c 128,-1,63
 425 -85 425 -85 472 -42 c 0,64,65
 570 49 570 49 658 191 c 1,0,1
EndSplineSet
EndChar

StartChar: z
Encoding: 122 122 115
Width: 918
GlyphClass: 2
Flags: W
LayerCount: 2
Fore
SplineSet
329 115 m 1,0,1
 173 0 173 0 118 0 c 0,2,3
 61 0 61 0 28 64 c 0,4,5
 0 120 0 120 0 188.5 c 128,-1,6
 0 257 0 257 20.5 319.5 c 128,-1,7
 41 382 41 382 74 432 c 0,8,9
 149 545 149 545 233 545 c 0,10,11
 264 545 264 545 333.5 507.5 c 128,-1,12
 403 470 403 470 438 452 c 1,13,14
 768 649 768 649 803 769 c 1,15,16
 780 775 780 775 745.5 775 c 128,-1,17
 711 775 711 775 677.5 773 c 128,-1,18
 644 771 644 771 600.5 766 c 128,-1,19
 557 761 557 761 513 754 c 0,20,21
 418 737 418 737 356 718 c 1,22,23
 341 740 341 740 341 778 c 0,24,25
 341 850 341 850 368 857 c 0,26,27
 504 890 504 890 625 890 c 0,28,29
 900 890 900 890 922 846 c 0,30,31
 935 819 935 819 935 779 c 0,32,33
 935 659 935 659 622 361 c 1,34,35
 728 317 728 317 780.5 317 c 128,-1,36
 833 317 833 317 875.5 335.5 c 128,-1,37
 918 354 918 354 959 384 c 0,38,39
 1040 445 1040 445 1101 536 c 1,40,41
 1128 538 1128 538 1137 526 c 128,-1,42
 1146 514 1146 514 1146 500 c 128,-1,43
 1146 486 1146 486 1133 454 c 128,-1,44
 1120 422 1120 422 1091.5 373.5 c 128,-1,45
 1063 325 1063 325 1024 274 c 128,-1,46
 985 223 985 223 937 174 c 128,-1,47
 889 125 889 125 834 86 c 0,48,49
 714 0 714 0 591.5 0 c 128,-1,50
 469 0 469 0 329 115 c 1,0,1
EndSplineSet
EndChar

StartChar: braceleft
Encoding: 123 123 116
Width: 911
GlyphClass: 2
Flags: W
LayerCount: 2
Fore
SplineSet
469.5 177.5 m 128,-1,1
 446 104 446 104 434.5 37 c 128,-1,2
 423 -30 423 -30 423 -106 c 128,-1,3
 423 -182 423 -182 453 -262 c 1,4,5
 393 -313 393 -313 307 -338 c 0,6,7
 278 -347 278 -347 255.5 -347 c 128,-1,8
 233 -347 233 -347 211 -333 c 128,-1,9
 189 -319 189 -319 171 -292 c 0,10,11
 130 -230 130 -230 130 -139 c 128,-1,12
 130 -48 130 -48 160.5 39.5 c 128,-1,13
 191 127 191 127 234 213 c 128,-1,14
 277 299 277 299 322 382 c 0,15,16
 437 589 437 589 437 697 c 0,17,18
 437 751 437 751 406 795 c 1,19,20
 416 810 416 810 425 825.5 c 128,-1,21
 434 841 434 841 444 853 c 0,22,23
 468 879 468 879 512 883.5 c 128,-1,24
 556 888 556 888 599.5 921 c 128,-1,25
 643 954 643 954 679.5 1004.5 c 128,-1,26
 716 1055 716 1055 748 1118.5 c 128,-1,27
 780 1182 780 1182 812.5 1247 c 128,-1,28
 845 1312 845 1312 880.5 1374 c 128,-1,29
 916 1436 916 1436 960 1484 c 0,30,31
 1056 1592 1056 1592 1181 1592 c 0,32,33
 1227 1592 1227 1592 1244 1572.5 c 128,-1,34
 1261 1553 1261 1553 1261 1536 c 128,-1,35
 1261 1519 1261 1519 1250 1499 c 1,36,37
 1222 1504 1222 1504 1208 1504 c 0,38,39
 1047 1504 1047 1504 950 1289 c 0,40,41
 922 1227 922 1227 896 1161.5 c 128,-1,42
 870 1096 870 1096 842.5 1030.5 c 128,-1,43
 815 965 815 965 780 910 c 0,44,45
 701 788 701 788 591 765 c 1,46,47
 618 727 618 727 618 677.5 c 128,-1,48
 618 628 618 628 605 574 c 128,-1,49
 592 520 592 520 568.5 455.5 c 128,-1,50
 545 391 545 391 519 321 c 128,-1,0
 493 251 493 251 469.5 177.5 c 128,-1,1
EndSplineSet
EndChar

StartChar: bar
Encoding: 124 124 117
Width: 1016
GlyphClass: 2
Flags: W
LayerCount: 2
Fore
SplineSet
1026 1613 m 1,0,1
 1108 1586 1108 1586 1108 1567 c 0,2,3
 1108 1490 1108 1490 974 1104 c 0,4,5
 788 567 788 567 590 141 c 0,6,7
 427 -208 427 -208 373 -208 c 0,8,9
 343 -208 343 -208 297 -186 c 0,10,11
 213 -147 213 -147 194 -121 c 1,12,13
 310 -19 310 -19 656 724 c 0,14,15
 982 1422 982 1422 1026 1613 c 1,0,1
EndSplineSet
EndChar

StartChar: braceright
Encoding: 125 125 118
Width: 1171
GlyphClass: 2
Flags: W
LayerCount: 2
Fore
SplineSet
1006 1361 m 128,-1,1
 1027 1421 1027 1421 1027 1470.5 c 128,-1,2
 1027 1520 1027 1520 995 1589 c 1,3,4
 1019 1607 1019 1607 1030.5 1607 c 128,-1,5
 1042 1607 1042 1607 1054.5 1606 c 128,-1,6
 1067 1605 1067 1605 1084 1585 c 0,7,8
 1121 1541 1121 1541 1121 1436 c 0,9,10
 1121 1360 1121 1360 1082.5 1253.5 c 128,-1,11
 1044 1147 1044 1147 1021 1088 c 0,12,13
 975 969 975 969 975 903 c 0,14,15
 975 855 975 855 1006 837 c 1,16,17
 1030 788 1030 788 982 746 c 0,18,19
 970 736 970 736 961 732 c 0,20,21
 855 694 855 694 778 511 c 0,22,23
 744 430 744 430 715 333.5 c 128,-1,24
 686 237 686 237 656 140 c 128,-1,25
 626 43 626 43 590.5 -48 c 128,-1,26
 555 -139 555 -139 506 -209 c 0,27,28
 400 -363 400 -363 239 -363 c 0,29,30
 162 -363 162 -363 116 -285 c 0,31,32
 83 -231 83 -231 80 -176 c 1,33,34
 261 -141 261 -141 391 140 c 0,35,36
 428 220 428 220 463 304 c 128,-1,37
 498 388 498 388 535.5 470.5 c 128,-1,38
 573 553 573 553 618 624 c 1,39,40
 721 782 721 782 854 826 c 1,41,42
 825 859 825 859 825 904.5 c 128,-1,43
 825 950 825 950 845 1005.5 c 128,-1,44
 865 1061 865 1061 896 1120.5 c 128,-1,45
 927 1180 927 1180 956 1240.5 c 128,-1,0
 985 1301 985 1301 1006 1361 c 128,-1,1
EndSplineSet
EndChar

StartChar: asciitilde
Encoding: 126 126 119
Width: 1200
GlyphClass: 2
Flags: W
LayerCount: 2
Fore
SplineSet
1010 729 m 1,0,1
 1089 684 1089 684 1089 659 c 128,-1,2
 1089 634 1089 634 1077 604.5 c 128,-1,3
 1065 575 1065 575 1044 545 c 128,-1,4
 1023 515 1023 515 994.5 487 c 128,-1,5
 966 459 966 459 933 438 c 0,6,7
 860 390 860 390 802.5 390 c 128,-1,8
 745 390 745 390 712 403.5 c 128,-1,9
 679 417 679 417 653.5 438 c 128,-1,10
 628 459 628 459 607 482.5 c 128,-1,11
 586 506 586 506 566 527 c 0,12,13
 519 575 519 575 476 575 c 0,14,15
 378 575 378 575 251 452 c 1,16,17
 174 516 174 516 174 540 c 256,18,19
 174 564 174 564 221.5 623 c 128,-1,20
 269 682 269 682 314 716 c 0,21,22
 414 793 414 793 516 793 c 0,23,24
 590 793 590 793 639 766.5 c 128,-1,25
 688 740 688 740 713.5 722 c 128,-1,26
 739 704 739 704 764 688 c 0,27,28
 822 651 822 651 880.5 651 c 128,-1,29
 939 651 939 651 1010 729 c 1,0,1
EndSplineSet
EndChar

StartChar: cent
Encoding: 162 162 123
Width: 1368
GlyphClass: 2
Flags: W
LayerCount: 2
Fore
SplineSet
1046 509 m 1,0,1
 1081 482 1081 482 1081 461 c 128,-1,2
 1081 440 1081 440 1063.5 412 c 128,-1,3
 1046 384 1046 384 1016 354.5 c 128,-1,4
 986 325 986 325 947 297 c 128,-1,5
 908 269 908 269 864 246 c 0,6,7
 769 196 769 196 690 188 c 1,8,9
 478 -255 478 -255 415 -255 c 0,10,11
 356 -255 356 -255 291 -168 c 1,12,13
 364 -107 364 -107 525 207 c 1,14,15
 415 241 415 241 352 328 c 128,-1,16
 289 415 289 415 289 549 c 0,17,18
 289 673 289 673 397 805 c 0,19,20
 552 994 552 994 804 1090 c 0,21,22
 881 1120 881 1120 954 1131 c 1,23,24
 1037 1332 1037 1332 1054 1407 c 1,25,26
 1136 1380 1136 1380 1136 1362 c 0,27,28
 1136 1308 1136 1308 1077 1133 c 1,29,30
 1180 1117 1180 1117 1216 1062 c 0,31,32
 1228 1044 1228 1044 1228 1026 c 0,33,34
 1228 991 1228 991 1189 963 c 1,35,36
 1135 1014 1135 1014 1036 1018 c 1,37,38
 949 775 949 775 813 461 c 1,39,40
 821 459 821 459 829 459 c 128,-1,41
 837 459 837 459 845 459 c 0,42,43
 939 459 939 459 1046 509 c 1,0,1
684 525 m 1,44,45
 791 746 791 746 893 986 c 1,46,47
 788 939 788 939 712 844 c 1,48,49
 636 747 636 747 636 651 c 0,50,51
 636 577 636 577 684 525 c 1,44,45
EndSplineSet
EndChar

StartChar: sterling
Encoding: 163 163 124
Width: 1460
GlyphClass: 2
Flags: W
LayerCount: 2
Fore
SplineSet
284 142 m 1,0,1
 184 117 184 117 144.5 117 c 128,-1,2
 105 117 105 117 81 125 c 128,-1,3
 57 133 57 133 39 148 c 0,4,5
 -1 183 -1 183 -1 228 c 128,-1,6
 -1 273 -1 273 9.5 304.5 c 128,-1,7
 20 336 20 336 41 359 c 0,8,9
 86 408 86 408 148 408 c 128,-1,10
 210 408 210 408 254 402 c 1,11,12
 381 489 381 489 492 673 c 1,13,14
 349 721 349 721 243 721 c 0,15,16
 223 721 223 721 203 720 c 1,17,18
 212 788 212 788 229 805 c 0,19,20
 260 836 260 836 330 836 c 0,21,22
 390 836 390 836 556 790 c 1,23,24
 594 863 594 863 631 936.5 c 128,-1,25
 668 1010 668 1010 707 1077.5 c 128,-1,26
 746 1145 746 1145 790.5 1203 c 128,-1,27
 835 1261 835 1261 889 1304 c 0,28,29
 1004 1397 1004 1397 1159 1397 c 0,30,31
 1281 1397 1281 1397 1360 1320 c 0,32,33
 1440 1241 1440 1241 1440 1111 c 0,34,35
 1440 927 1440 927 1332 855 c 0,36,37
 1298 832 1298 832 1266 832 c 128,-1,38
 1234 832 1234 832 1216 842 c 128,-1,39
 1198 852 1198 852 1183 868 c 0,40,41
 1156 896 1156 896 1141 940 c 1,42,43
 1201 959 1201 959 1248 1014 c 0,44,45
 1295 1070 1295 1070 1295 1137.5 c 128,-1,46
 1295 1205 1295 1205 1251.5 1246 c 128,-1,47
 1208 1287 1208 1287 1143.5 1287 c 128,-1,48
 1079 1287 1079 1287 1038 1264 c 128,-1,49
 997 1241 997 1241 965 1201 c 128,-1,50
 933 1161 933 1161 909 1107 c 128,-1,51
 885 1053 885 1053 864.5 991 c 128,-1,52
 844 929 844 929 825.5 861.5 c 128,-1,53
 807 794 807 794 787 727 c 1,54,55
 1000 674 1000 674 1110 674 c 0,56,57
 1148 674 1148 674 1180 680 c 1,58,59
 1181 668 1181 668 1181 652 c 128,-1,60
 1181 636 1181 636 1176.5 610.5 c 128,-1,61
 1172 585 1172 585 1158 560 c 0,62,63
 1127 505 1127 505 1068 505 c 0,64,65
 922 505 922 505 736 576 c 1,66,67
 663 392 663 392 554 332 c 1,68,69
 707 284 707 284 934 260 c 0,70,71
 996 254 996 254 1036 254 c 128,-1,72
 1076 254 1076 254 1109.5 261 c 128,-1,73
 1143 268 1143 268 1170 282 c 1,74,75
 1231 311 1231 311 1252 355 c 1,76,77
 1322 336 1322 336 1322 290 c 0,78,79
 1322 146 1322 146 1232 49 c 0,80,81
 1137 -54 1137 -54 988 -54 c 0,82,83
 867 -54 867 -54 774 -21 c 128,-1,84
 681 12 681 12 628 36 c 128,-1,85
 575 60 575 60 520 82 c 0,86,87
 392 132 392 132 284 142 c 1,0,1
EndSplineSet
EndChar

StartChar: currency
Encoding: 164 164 125
Width: 1373
GlyphClass: 2
Flags: W
LayerCount: 2
Fore
SplineSet
491 332 m 1,0,1
 318 164 318 164 297.5 164 c 128,-1,2
 277 164 277 164 259.5 175.5 c 128,-1,3
 242 187 242 187 228 202 c 0,4,5
 196 236 196 236 189 263 c 1,6,7
 329 362 329 362 414 427 c 1,8,9
 401 466 401 466 401 507 c 0,10,11
 401 597 401 597 470 694 c 1,12,13
 399 792 399 792 375 882 c 0,14,15
 368 909 368 909 368 923 c 128,-1,16
 368 937 368 937 373.5 946.5 c 128,-1,17
 379 956 379 956 388 966 c 0,18,19
 408 986 408 986 429 998 c 1,20,21
 476 903 476 903 573 797 c 1,22,23
 694 887 694 887 830 887 c 0,24,25
 907 887 907 887 960 851 c 1,26,27
 1107 952 1107 952 1155 996 c 1,28,29
 1200 958 1200 958 1200 937.5 c 128,-1,30
 1200 917 1200 917 1184 894.5 c 128,-1,31
 1168 872 1168 872 1143 848 c 0,32,33
 1093 800 1093 800 1027 756 c 1,34,35
 1035 726 1035 726 1035 695 c 0,36,37
 1035 570 1035 570 943 458 c 1,38,39
 992 408 992 408 1043.5 369.5 c 128,-1,40
 1095 331 1095 331 1130 303 c 1,41,42
 1085 233 1085 233 1055.5 211.5 c 128,-1,43
 1026 190 1026 190 1011.5 190 c 128,-1,44
 997 190 997 190 974 208 c 128,-1,45
 951 226 951 226 927.5 252.5 c 128,-1,46
 904 279 904 279 881 309.5 c 128,-1,47
 858 340 858 340 839 364 c 1,48,49
 735 296 735 296 642 296 c 128,-1,50
 549 296 549 296 491 332 c 1,0,1
627 594 m 0,51,52
 627 562 627 562 651 542 c 128,-1,53
 675 522 675 522 712.5 522 c 128,-1,54
 750 522 750 522 780.5 537 c 128,-1,55
 811 552 811 552 835 575 c 0,56,57
 889 627 889 627 889 672 c 0,58,59
 889 759 889 759 806 759 c 0,60,61
 738 759 738 759 682 708 c 0,62,63
 627 659 627 659 627 594 c 0,51,52
EndSplineSet
EndChar

StartChar: yen
Encoding: 165 165 126
Width: 1405
GlyphClass: 2
Flags: W
LayerCount: 2
Fore
SplineSet
623 -29 m 1,0,1
 560 -51 560 -51 504.5 -51 c 128,-1,2
 449 -51 449 -51 406.5 -38.5 c 128,-1,3
 364 -26 364 -26 333.5 4 c 128,-1,4
 303 34 303 34 303 82 c 0,5,6
 303 217 303 217 420 411 c 1,7,8
 278 422 278 422 278 524 c 0,9,10
 278 559 278 559 291 606 c 1,11,12
 353 588 353 588 538 581 c 1,13,14
 549 603 549 603 567 663 c 1,15,-1
 543 663 l 2,16,17
 362 663 362 663 362 766 c 0,18,19
 362 800 362 800 375 847 c 1,20,21
 434 829 434 829 609 822 c 1,22,23
 631 937 631 937 631 1010.5 c 128,-1,24
 631 1084 631 1084 623 1134.5 c 128,-1,25
 615 1185 615 1185 590.5 1219.5 c 128,-1,26
 566 1254 566 1254 531 1254 c 128,-1,27
 496 1254 496 1254 466.5 1243 c 128,-1,28
 437 1232 437 1232 410 1215 c 0,29,30
 354 1180 354 1180 320 1137 c 1,31,32
 276 1151 276 1151 276 1188 c 0,33,34
 276 1227 276 1227 316.5 1265 c 128,-1,35
 357 1303 357 1303 396 1326 c 0,36,37
 486 1378 486 1378 573.5 1378 c 128,-1,38
 661 1378 661 1378 715 1342 c 0,39,40
 838 1258 838 1258 838 1002 c 0,41,42
 838 957 838 957 835 910 c 1,43,44
 1102 1171 1102 1171 1370 1352 c 0,45,46
 1518 1453 1518 1453 1559 1453 c 0,47,48
 1590 1453 1590 1453 1608.5 1440.5 c 128,-1,49
 1627 1428 1627 1428 1631 1413 c 1,50,51
 1274 1132 1274 1132 1020 825 c 1,52,53
 1160 831 1160 831 1248 845 c 1,54,55
 1252 829 1252 829 1252 811 c 0,56,57
 1252 761 1252 761 1203 739 c 0,58,59
 1116 700 1116 700 909 680 c 1,60,61
 873 630 873 630 841 580 c 1,62,63
 1048 587 1048 587 1164 604 c 1,64,65
 1168 587 1168 587 1168 568.5 c 128,-1,66
 1168 550 1168 550 1157 522.5 c 128,-1,67
 1146 495 1146 495 1114 484 c 0,68,69
 979 437 979 437 748 419 c 1,70,71
 623 175 623 175 623 -29 c 1,0,1
EndSplineSet
EndChar

StartChar: brokenbar
Encoding: 166 166 127
Width: 1016
GlyphClass: 2
Flags: W
LayerCount: 2
Fore
SplineSet
1026 1613 m 1,0,1
 1108 1591 1108 1591 1108 1565 c 0,2,3
 1108 1496 1108 1496 998 1174 c 0,4,5
 887 852 887 852 860 852 c 0,6,7
 812 852 812 852 739 901 c 1,8,9
 896 1219 896 1219 1008 1551 c 0,10,11
 1022 1594 1022 1594 1026 1613 c 1,0,1
200 -123 m 1,12,13
 276 -44 276 -44 485 370 c 0,14,15
 548 494 548 494 611 627 c 1,16,17
 680 603 680 603 712 581.5 c 128,-1,18
 744 560 744 560 744 547 c 128,-1,19
 744 534 744 534 731 494 c 128,-1,20
 718 454 718 454 696.5 398 c 128,-1,21
 675 342 675 342 646.5 275.5 c 128,-1,22
 618 209 618 209 586.5 141.5 c 128,-1,23
 555 74 555 74 523 11 c 128,-1,24
 491 -52 491 -52 462 -100 c 0,25,26
 399 -208 399 -208 373 -208 c 0,27,28
 327 -208 327 -208 232 -146 c 0,29,30
 209 -132 209 -132 200 -123 c 1,12,13
EndSplineSet
EndChar

StartChar: section
Encoding: 167 167 128
Width: 1558
GlyphClass: 2
Flags: W
LayerCount: 2
Fore
SplineSet
172 421 m 0,0,1
 172 508 172 508 184 518.5 c 128,-1,2
 196 529 196 529 207 535 c 0,3,4
 232 549 232 549 249 553 c 1,5,6
 280 454 280 454 382 385 c 0,7,8
 487 313 487 313 614 313 c 0,9,10
 685 313 685 313 722 340 c 0,11,12
 788 388 788 388 788 431.5 c 128,-1,13
 788 475 788 475 773 509 c 128,-1,14
 758 543 758 543 735 578 c 128,-1,15
 712 613 712 613 685.5 647.5 c 128,-1,16
 659 682 659 682 636 717 c 0,17,18
 583 798 583 798 583 856 c 0,19,20
 583 961 583 961 695 1039 c 0,21,22
 728 1062 728 1062 764 1076 c 1,23,-1
 764 1087 l 2,24,25
 764 1210 764 1210 910 1295 c 0,26,27
 1049 1376 1049 1376 1220 1376 c 0,28,29
 1324 1376 1324 1376 1383.5 1350.5 c 128,-1,30
 1443 1325 1443 1325 1466.5 1301.5 c 128,-1,31
 1490 1278 1490 1278 1490 1251.5 c 128,-1,32
 1490 1225 1490 1225 1477 1206.5 c 128,-1,33
 1464 1188 1464 1188 1445 1174 c 0,34,35
 1411 1148 1411 1148 1363 1130 c 1,36,37
 1330 1213 1330 1213 1208 1249 c 0,38,39
 1171 1260 1171 1260 1131.5 1260 c 128,-1,40
 1092 1260 1092 1260 1052 1251 c 128,-1,41
 1012 1242 1012 1242 980 1222 c 0,42,43
 906 1178 906 1178 906 1093 c 0,44,45
 906 1046 906 1046 995 955 c 0,46,47
 1033 916 1033 916 1078 873 c 128,-1,48
 1123 830 1123 830 1161 784 c 0,49,50
 1250 676 1250 676 1250 587.5 c 128,-1,51
 1250 499 1250 499 1199.5 426 c 128,-1,52
 1149 353 1149 353 1050 316 c 1,53,54
 1025 188 1025 188 900 98 c 0,55,56
 769 4 769 4 589 4 c 0,57,58
 403 4 403 4 286 124 c 1,59,60
 172 243 172 243 172 421 c 0,0,1
797 988 m 1,61,62
 729 950 729 950 729 893 c 0,63,64
 729 844 729 844 818 762 c 0,65,66
 857 726 857 726 900.5 684.5 c 128,-1,67
 944 643 944 643 980 593 c 1,68,69
 1032 618 1032 618 1032 655.5 c 128,-1,70
 1032 693 1032 693 1005.5 732 c 128,-1,71
 979 771 979 771 941.5 813 c 128,-1,72
 904 855 904 855 864 899.5 c 128,-1,73
 824 944 824 944 797 988 c 1,61,62
EndSplineSet
EndChar

StartChar: dieresis
Encoding: 168 168 129
Width: 1200
GlyphClass: 2
Flags: W
LayerCount: 2
Fore
SplineSet
1146 1094.5 m 128,-1,1
 1119 1074 1119 1074 1093 1074 c 128,-1,2
 1067 1074 1067 1074 1044 1084.5 c 128,-1,3
 1021 1095 1021 1095 1004 1112 c 0,4,5
 964 1150 964 1150 964 1182.5 c 128,-1,6
 964 1215 964 1215 983.5 1243.5 c 128,-1,7
 1003 1272 1003 1272 1030 1296 c 0,8,9
 1092 1354 1092 1354 1117.5 1354 c 128,-1,10
 1143 1354 1143 1354 1164 1341.5 c 128,-1,11
 1185 1329 1185 1329 1202 1311 c 0,12,13
 1241 1270 1241 1270 1241 1247 c 128,-1,14
 1241 1224 1241 1224 1228 1196.5 c 128,-1,15
 1215 1169 1215 1169 1194 1142 c 128,-1,0
 1173 1115 1173 1115 1146 1094.5 c 128,-1,1
757.5 1091 m 128,-1,17
 729 1074 729 1074 705 1074 c 128,-1,18
 681 1074 681 1074 661 1081 c 128,-1,19
 641 1088 641 1088 624 1100 c 0,20,21
 588 1128 588 1128 588 1158.5 c 128,-1,22
 588 1189 588 1189 605.5 1222 c 128,-1,23
 623 1255 623 1255 646 1284 c 0,24,25
 703 1354 703 1354 723.5 1354 c 128,-1,26
 744 1354 744 1354 766.5 1342.5 c 128,-1,27
 789 1331 789 1331 810 1314 c 0,28,29
 860 1274 860 1274 860 1246 c 128,-1,30
 860 1218 860 1218 846 1188.5 c 128,-1,31
 832 1159 832 1159 809 1133.5 c 128,-1,16
 786 1108 786 1108 757.5 1091 c 128,-1,17
EndSplineSet
EndChar

StartChar: copyright
Encoding: 169 169 130
Width: 1557
GlyphClass: 2
Flags: W
LayerCount: 2
Fore
SplineSet
31 230 m 0,0,1
 31 328 31 328 73 421.5 c 128,-1,2
 115 515 115 515 187.5 601 c 128,-1,3
 260 687 260 687 358 761.5 c 128,-1,4
 456 836 456 836 568 891 c 0,5,6
 810 1009 810 1009 1045 1009 c 0,7,8
 1362 1009 1362 1009 1456 796 c 0,9,10
 1486 727 1486 727 1486 632 c 128,-1,11
 1486 537 1486 537 1451.5 436.5 c 128,-1,12
 1417 336 1417 336 1353.5 244 c 128,-1,13
 1290 152 1290 152 1201.5 72.5 c 128,-1,14
 1113 -7 1113 -7 1006 -66 c 0,15,16
 776 -192 776 -192 518 -192 c 0,17,18
 306 -192 306 -192 173 -83 c 0,19,20
 31 33 31 33 31 230 c 0,0,1
205 288 m 256,21,22
 205 126 205 126 332 40 c 0,23,24
 446 -38 446 -38 630 -38 c 0,25,26
 805 -38 805 -38 976 60 c 1,27,28
 1143 157 1143 157 1247 312 c 1,29,30
 1357 474 1357 474 1357 645 c 0,31,32
 1357 776 1357 776 1271 852 c 0,33,34
 1183 931 1183 931 1027 931 c 0,35,36
 857 931 857 931 664 840 c 1,37,38
 469 746 469 746 344 606 c 0,39,40
 205 450 205 450 205 288 c 256,21,22
1026 409 m 1,41,42
 1055 391 1055 391 1055 369 c 128,-1,43
 1055 347 1055 347 1034 318.5 c 128,-1,44
 1013 290 1013 290 978.5 260 c 128,-1,45
 944 230 944 230 900 201 c 128,-1,46
 856 172 856 172 810 150 c 0,47,48
 709 100 709 100 650.5 100 c 128,-1,49
 592 100 592 100 549.5 114.5 c 128,-1,50
 507 129 507 129 475 156 c 0,51,52
 407 215 407 215 407 312 c 0,53,54
 407 421 407 421 490 528 c 0,55,56
 611 683 611 683 812 738 c 0,57,58
 874 755 874 755 923 755 c 0,59,60
 1019 755 1019 755 1072 710 c 1,61,62
 1098 686 1098 686 1098 660.5 c 128,-1,63
 1098 635 1098 635 1070 611 c 1,64,65
 1016 655 1016 655 948.5 655 c 128,-1,66
 881 655 881 655 835.5 634 c 128,-1,67
 790 613 790 613 756 578 c 0,68,69
 683 504 683 504 683 410 c 0,70,71
 683 370 683 370 707 343 c 128,-1,72
 731 316 731 316 764 316 c 128,-1,73
 797 316 797 316 834.5 322.5 c 128,-1,74
 872 329 872 329 908 342 c 0,75,76
 990 370 990 370 1026 409 c 1,41,42
EndSplineSet
EndChar

StartChar: ordfeminine
Encoding: 170 170 131
Width: 846
GlyphClass: 2
Flags: W
LayerCount: 2
Fore
SplineSet
618 1080 m 1,0,1
 522 990 522 990 417 990 c 0,2,3
 303 990 303 990 264 1078 c 0,4,5
 253 1105 253 1105 253 1144 c 128,-1,6
 253 1183 253 1183 273.5 1225 c 128,-1,7
 294 1267 294 1267 330 1301 c 128,-1,8
 366 1335 366 1335 414 1362 c 128,-1,9
 462 1389 462 1389 517 1407 c 0,10,11
 630 1444 630 1444 747 1444 c 0,12,13
 785 1444 785 1444 806 1421 c 1,14,-1
 821 1438 l 2,15,16
 835 1453 835 1453 858 1453 c 0,17,18
 900 1453 900 1453 933 1448 c 1,19,20
 929 1439 929 1439 917.5 1415 c 128,-1,21
 906 1391 906 1391 892 1359 c 128,-1,22
 878 1327 878 1327 865.5 1292.5 c 128,-1,23
 853 1258 853 1258 848 1229 c 0,24,25
 838 1162 838 1162 881 1162 c 0,26,27
 935 1162 935 1162 1007 1219 c 1,28,29
 1042 1219 1042 1219 1042 1194 c 0,30,31
 1042 1175 1042 1175 1000 1132 c 128,-1,32
 958 1089 958 1089 918 1060 c 0,33,34
 821 990 821 990 745 990 c 0,35,36
 658 990 658 990 627 1042 c 0,37,38
 617 1059 617 1059 618 1080 c 1,0,1
503 1164 m 0,39,40
 583 1164 583 1164 703 1299 c 0,41,42
 735 1335 735 1335 762 1368 c 1,43,44
 632 1364 632 1364 544 1316 c 0,45,46
 463 1271 463 1271 463 1217.5 c 128,-1,47
 463 1164 463 1164 503 1164 c 0,39,40
EndSplineSet
EndChar

StartChar: guillemotleft
Encoding: 171 171 132
Width: 1483
GlyphClass: 2
Flags: W
LayerCount: 2
Fore
SplineSet
465.5 367.5 m 128,-1,1
 450 408 450 408 450 434.5 c 128,-1,2
 450 461 450 461 470.5 490 c 128,-1,3
 491 519 491 519 525 552 c 128,-1,4
 559 585 559 585 603 620 c 128,-1,5
 647 655 647 655 695 688 c 128,-1,6
 743 721 743 721 791 751 c 128,-1,7
 839 781 839 781 881 804 c 0,8,9
 972 852 972 852 992 852 c 128,-1,10
 1012 852 1012 852 1024.5 845 c 128,-1,11
 1037 838 1037 838 1048 828 c 0,12,13
 1070 806 1070 806 1075 785 c 1,14,15
 1033 771 1033 771 924 687.5 c 128,-1,16
 815 604 815 604 776 570 c 0,17,18
 686 492 686 492 687.5 471.5 c 128,-1,19
 689 451 689 451 702.5 423.5 c 128,-1,20
 716 396 716 396 736.5 366.5 c 128,-1,21
 757 337 757 337 781.5 308 c 128,-1,22
 806 279 806 279 828 256 c 0,23,24
 873 207 873 207 890 196 c 1,25,26
 886 171 886 171 843 134 c 0,27,28
 764 66 764 66 741.5 66 c 128,-1,29
 719 66 719 66 689 84.5 c 128,-1,30
 659 103 659 103 626.5 134 c 128,-1,31
 594 165 594 165 562.5 204.5 c 128,-1,32
 531 244 531 244 506 285.5 c 128,-1,0
 481 327 481 327 465.5 367.5 c 128,-1,1
881 402 m 128,-1,34
 868 431 868 431 868 452 c 128,-1,35
 868 473 868 473 902 508 c 128,-1,36
 936 543 936 543 988 583 c 128,-1,37
 1040 623 1040 623 1102 663 c 128,-1,38
 1164 703 1164 703 1220 736 c 0,39,40
 1348 809 1348 809 1367 809 c 128,-1,41
 1386 809 1386 809 1397.5 802 c 128,-1,42
 1409 795 1409 795 1418 785 c 0,43,44
 1438 764 1438 764 1443 742 c 1,45,46
 1328 675 1328 675 1232.5 596.5 c 128,-1,47
 1137 518 1137 518 1116 497 c 128,-1,48
 1095 476 1095 476 1096 465 c 128,-1,49
 1097 454 1097 454 1107.5 436 c 128,-1,50
 1118 418 1118 418 1134.5 398.5 c 128,-1,51
 1151 379 1151 379 1170.5 359.5 c 128,-1,52
 1190 340 1190 340 1208 323.5 c 128,-1,53
 1226 307 1226 307 1240.5 294.5 c 128,-1,54
 1255 282 1255 282 1261 276 c 1,55,56
 1225 218 1225 218 1142 170 c 0,57,58
 1120 157 1120 157 1105 157 c 128,-1,59
 1090 157 1090 157 1065.5 173.5 c 128,-1,60
 1041 190 1041 190 1014.5 216 c 128,-1,61
 988 242 988 242 961.5 274.5 c 128,-1,62
 935 307 935 307 914.5 340 c 128,-1,33
 894 373 894 373 881 402 c 128,-1,34
EndSplineSet
EndChar

StartChar: logicalnot
Encoding: 172 172 133
Width: 1436
GlyphClass: 2
Flags: W
LayerCount: 2
Fore
SplineSet
930 477 m 1,0,1
 790 463 790 463 474 463 c 0,2,3
 293 463 293 463 293 584 c 0,4,5
 293 622 293 622 306 669 c 1,6,7
 399 643 399 643 661 643 c 128,-1,8
 923 643 923 643 1166 654 c 1,9,10
 1166 510 1166 510 1038 256 c 0,11,12
 985 152 985 152 963 127 c 0,13,14
 926 85 926 85 861 85 c 0,15,16
 824 85 824 85 795 94 c 1,17,18
 854 231 854 231 889 338.5 c 128,-1,19
 924 446 924 446 930 477 c 1,0,1
EndSplineSet
EndChar

StartChar: registered
Encoding: 174 174 135
Width: 1557
GlyphClass: 2
Flags: W
LayerCount: 2
Fore
SplineSet
23 230 m 0,0,1
 23 328 23 328 65 421.5 c 128,-1,2
 107 515 107 515 179.5 601 c 128,-1,3
 252 687 252 687 350 761.5 c 128,-1,4
 448 836 448 836 560 891 c 0,5,6
 802 1009 802 1009 1037 1009 c 0,7,8
 1354 1009 1354 1009 1448 796 c 0,9,10
 1478 727 1478 727 1478 632 c 128,-1,11
 1478 537 1478 537 1443.5 436.5 c 128,-1,12
 1409 336 1409 336 1345.5 244 c 128,-1,13
 1282 152 1282 152 1193.5 72.5 c 128,-1,14
 1105 -7 1105 -7 998 -66 c 0,15,16
 768 -192 768 -192 510 -192 c 0,17,18
 298 -192 298 -192 165 -83 c 0,19,20
 23 33 23 33 23 230 c 0,0,1
197 288 m 256,21,22
 197 126 197 126 324 40 c 0,23,24
 438 -38 438 -38 622 -38 c 0,25,26
 797 -38 797 -38 968 60 c 1,27,28
 1135 157 1135 157 1239 312 c 1,29,30
 1349 474 1349 474 1349 645 c 0,31,32
 1349 776 1349 776 1263 852 c 0,33,34
 1175 931 1175 931 1019 931 c 0,35,36
 849 931 849 931 656 840 c 1,37,38
 461 746 461 746 336 606 c 0,39,40
 197 450 197 450 197 288 c 256,21,22
575 149 m 0,41,42
 575 122 575 122 537.5 122 c 128,-1,43
 500 122 500 122 468.5 131 c 128,-1,44
 437 140 437 140 410 160 c 0,45,46
 348 206 348 206 348 281 c 128,-1,47
 348 356 348 356 372.5 419 c 128,-1,48
 397 482 397 482 438.5 539.5 c 128,-1,49
 480 597 480 597 534.5 647 c 128,-1,50
 589 697 589 697 650 734 c 0,51,52
 780 812 780 812 875.5 812 c 128,-1,53
 971 812 971 812 1016.5 777 c 128,-1,54
 1062 742 1062 742 1062 688 c 0,55,56
 1062 552 1062 552 841 434 c 1,57,58
 875 332 875 332 946 332 c 0,59,60
 1004 332 1004 332 1074 392 c 0,61,62
 1092 408 1092 408 1103 423 c 1,63,64
 1130 411 1130 411 1130 388.5 c 128,-1,65
 1130 366 1130 366 1114.5 338.5 c 128,-1,66
 1099 311 1099 311 1072.5 280.5 c 128,-1,67
 1046 250 1046 250 1011.5 219 c 128,-1,68
 977 188 977 188 938 164 c 0,69,70
 851 108 851 108 795.5 108 c 128,-1,71
 740 108 740 108 713 137 c 0,72,73
 651 204 651 204 651 361 c 0,74,75
 651 394 651 394 654 428 c 1,76,77
 780 487 780 487 825 519 c 0,78,79
 920 587 920 587 920 652 c 128,-1,80
 920 717 920 717 853 717 c 0,81,82
 749 717 749 717 660 514 c 0,83,84
 578 325 578 325 575 149 c 0,41,42
EndSplineSet
EndChar

StartChar: macron
Encoding: 175 175 136
Width: 1200
GlyphClass: 2
Flags: W
LayerCount: 2
Fore
SplineSet
1112 1352 m 1,0,1
 1119 1341 1119 1341 1119 1324.5 c 128,-1,2
 1119 1308 1119 1308 1116 1294 c 0,3,4
 1108 1255 1108 1255 1077.5 1241 c 128,-1,5
 1047 1227 1047 1227 991 1215.5 c 128,-1,6
 935 1204 935 1204 864 1196 c 0,7,8
 726 1179 726 1179 547 1179 c 128,-1,9
 368 1179 368 1179 368 1283 c 0,10,11
 368 1316 368 1316 383 1360 c 1,12,13
 500 1331 500 1331 760 1331 c 1,14,-1
 854 1332 l 1,15,16
 1018 1337 1018 1337 1112 1352 c 1,0,1
EndSplineSet
EndChar

StartChar: degree
Encoding: 176 176 137
Width: 796
GlyphClass: 2
Flags: W
LayerCount: 2
Fore
SplineSet
619 981.5 m 128,-1,1
 558 954 558 954 508 954 c 128,-1,2
 458 954 458 954 424.5 965.5 c 128,-1,3
 391 977 391 977 365 999 c 0,4,5
 308 1047 308 1047 308 1114.5 c 128,-1,6
 308 1182 308 1182 337.5 1237.5 c 128,-1,7
 367 1293 367 1293 416 1338 c 0,8,9
 528 1441 528 1441 664 1441 c 0,10,11
 786 1441 786 1441 822 1344 c 0,12,13
 832 1316 832 1316 832 1268 c 128,-1,14
 832 1220 832 1220 803 1160 c 128,-1,15
 774 1100 774 1100 727 1054.5 c 128,-1,0
 680 1009 680 1009 619 981.5 c 128,-1,1
693 1255 m 0,16,17
 693 1320 693 1320 624 1320 c 0,18,19
 561 1320 561 1320 515 1278 c 256,20,21
 469 1236 469 1236 469 1195 c 0,22,23
 469 1118 469 1118 549 1118 c 0,24,25
 602 1118 602 1118 648 1164 c 0,26,27
 693 1209 693 1209 693 1255 c 0,16,17
EndSplineSet
EndChar

StartChar: plusminus
Encoding: 177 177 138
Width: 1436
GlyphClass: 2
Flags: W
LayerCount: 2
Fore
SplineSet
910 803 m 1,0,1
 1119 807 1119 807 1239 827 c 1,2,3
 1243 812 1243 812 1243 801.5 c 128,-1,4
 1243 791 1243 791 1242 778 c 128,-1,5
 1241 765 1241 765 1234 746 c 0,6,7
 1219 707 1219 707 1189 693 c 0,8,9
 1097 653 1097 653 856 635 c 1,10,11
 806 493 806 493 772 431 c 128,-1,12
 738 369 738 369 726 355.5 c 128,-1,13
 714 342 714 342 693.5 333 c 128,-1,14
 673 324 673 324 652 320 c 0,15,16
 604 313 604 313 588 324 c 1,17,18
 625 409 625 409 683 625 c 1,19,20
 644 623 644 623 606 623 c 2,21,-1
 534 623 l 2,22,23
 353 623 353 623 353 744 c 0,24,25
 353 782 353 782 366 829 c 1,26,27
 452 806 452 806 729 801 c 1,28,29
 786 1038 786 1038 786 1094 c 1,30,31
 798 1094 798 1094 817 1094 c 128,-1,32
 836 1094 836 1094 862 1092 c 128,-1,33
 888 1090 888 1090 908 1080 c 0,34,35
 946 1060 946 1060 946 993 c 128,-1,36
 946 926 946 926 910 803 c 1,0,1
357 -19 m 0,37,38
 176 -19 176 -19 176 102 c 0,39,40
 176 140 176 140 189 187 c 1,41,42
 289 159 289 159 596 159 c 128,-1,43
 903 159 903 159 1062 185 c 1,44,45
 1066 170 1066 170 1066 159.5 c 128,-1,46
 1066 149 1066 149 1065 136 c 128,-1,47
 1064 123 1064 123 1057 104 c 0,48,49
 1042 65 1042 65 1012 51 c 0,50,51
 894 0 894 0 537 -15 c 0,52,53
 441 -19 441 -19 357 -19 c 0,37,38
EndSplineSet
EndChar

StartChar: twosuperior
Encoding: 178 178 139
Width: 1060
GlyphClass: 2
Flags: W
LayerCount: 2
Fore
SplineSet
1035 784 m 1,0,1
 960 809 960 809 871 809 c 128,-1,2
 782 809 782 809 714 805 c 0,3,4
 546 795 546 795 378 743 c 0,5,6
 364 739 364 739 352.5 739 c 128,-1,7
 341 739 341 739 325 745 c 0,8,9
 292 758 292 758 279.5 800 c 128,-1,10
 267 842 267 842 267 867 c 0,11,12
 267 924 267 924 290.5 950 c 128,-1,13
 314 976 314 976 357.5 1003 c 128,-1,14
 401 1030 401 1030 456.5 1059 c 128,-1,15
 512 1088 512 1088 575.5 1118.5 c 128,-1,16
 639 1149 639 1149 701.5 1182 c 128,-1,17
 764 1215 764 1215 822 1249.5 c 128,-1,18
 880 1284 880 1284 924 1320 c 0,19,20
 1021 1401 1021 1401 1021 1473 c 0,21,22
 1021 1555 1021 1555 898 1555 c 0,23,24
 810 1555 810 1555 757 1528 c 0,25,26
 662 1480 662 1480 662 1438.5 c 128,-1,27
 662 1397 662 1397 706 1375 c 1,28,29
 673 1329 673 1329 639.5 1329 c 128,-1,30
 606 1329 606 1329 581.5 1335 c 128,-1,31
 557 1341 557 1341 536 1352 c 0,32,33
 489 1379 489 1379 489 1414.5 c 128,-1,34
 489 1450 489 1450 511.5 1482.5 c 128,-1,35
 534 1515 534 1515 572 1543 c 128,-1,36
 610 1571 610 1571 659.5 1594.5 c 128,-1,37
 709 1618 709 1618 762 1634 c 0,38,39
 876 1670 876 1670 982 1670 c 128,-1,40
 1088 1670 1088 1670 1151.5 1625 c 128,-1,41
 1215 1580 1215 1580 1215 1494 c 0,42,43
 1215 1330 1215 1330 924 1152 c 1,44,45
 796 1075 796 1075 633 1011 c 1,46,47
 676 1013 676 1013 711.5 1013 c 128,-1,48
 747 1013 747 1013 776 1012 c 128,-1,49
 805 1011 805 1011 837.5 1009 c 128,-1,50
 870 1007 870 1007 903 1003 c 0,51,52
 1047 986 1047 986 1071 944 c 0,53,54
 1108 880 1108 880 1035 784 c 1,0,1
EndSplineSet
EndChar

StartChar: threesuperior
Encoding: 179 179 140
Width: 1021
GlyphClass: 2
Flags: W
LayerCount: 2
Fore
SplineSet
984 1254 m 1,0,1
 1063 1186 1063 1186 1063 1086 c 0,2,3
 1063 992 1063 992 1001.5 914.5 c 128,-1,4
 940 837 940 837 858 788 c 0,5,6
 678 678 678 678 410 678 c 0,7,8
 328 678 328 678 288 758 c 0,9,10
 265 805 265 805 265 845.5 c 128,-1,11
 265 886 265 886 269 907 c 1,12,13
 299 905 299 905 338 905 c 128,-1,14
 377 905 377 905 439 910.5 c 128,-1,15
 501 916 501 916 569.5 931.5 c 128,-1,16
 638 947 638 947 694 972 c 0,17,18
 848 1039 848 1039 848 1135 c 0,19,20
 848 1154 848 1154 842 1173 c 1,21,22
 739 1128 739 1128 679 1128 c 0,23,24
 650 1128 650 1128 628 1186 c 0,25,26
 610 1234 610 1234 610 1265 c 1,27,28
 739 1281 739 1281 868 1349 c 0,29,30
 1004 1420 1004 1420 1004 1490 c 0,31,32
 1004 1524 1004 1524 970 1543 c 128,-1,33
 936 1562 936 1562 886.5 1562 c 128,-1,34
 837 1562 837 1562 785.5 1545 c 128,-1,35
 734 1528 734 1528 694 1502 c 0,36,37
 602 1444 602 1444 614 1394 c 1,38,39
 603 1380 603 1380 570.5 1369.5 c 128,-1,40
 538 1359 538 1359 530 1359 c 128,-1,41
 522 1359 522 1359 509.5 1367 c 128,-1,42
 497 1375 497 1375 486 1387 c 0,43,44
 459 1415 459 1415 459 1443.5 c 128,-1,45
 459 1472 459 1472 483.5 1499.5 c 128,-1,46
 508 1527 508 1527 548.5 1552.5 c 128,-1,47
 589 1578 589 1578 640 1599.5 c 128,-1,48
 691 1621 691 1621 744 1637 c 0,49,50
 855 1671 855 1671 951 1671 c 128,-1,51
 1047 1671 1047 1671 1109.5 1627.5 c 128,-1,52
 1172 1584 1172 1584 1172 1509 c 0,53,54
 1172 1384 1172 1384 984 1254 c 1,0,1
EndSplineSet
EndChar

StartChar: acute
Encoding: 180 180 141
Width: 1200
GlyphClass: 2
Flags: W
LayerCount: 2
Fore
SplineSet
588 1056.5 m 128,-1,1
 548 1040 548 1040 535 1040 c 128,-1,2
 522 1040 522 1040 510 1046.5 c 128,-1,3
 498 1053 498 1053 485 1063 c 0,4,5
 454 1087 454 1087 448 1102 c 1,6,7
 514 1148 514 1148 597.5 1226 c 128,-1,8
 681 1304 681 1304 716 1341 c 0,9,10
 796 1425 796 1425 810 1468 c 1,11,12
 869 1455 869 1455 938 1386 c 0,13,14
 955 1369 955 1369 955 1350.5 c 128,-1,15
 955 1332 955 1332 929 1299 c 128,-1,16
 903 1266 903 1266 862.5 1231 c 128,-1,17
 822 1196 822 1196 772.5 1161.5 c 128,-1,18
 723 1127 723 1127 675.5 1100 c 128,-1,0
 628 1073 628 1073 588 1056.5 c 128,-1,1
EndSplineSet
EndChar

StartChar: mu
Encoding: 181 181 142
Width: 1494
GlyphClass: 2
Flags: W
LayerCount: 2
Fore
SplineSet
218 -377 m 0,0,1
 5 -377 5 -377 5 -213 c 0,2,3
 5 80 5 80 113 349 c 0,4,5
 209 587 209 587 356 738 c 0,6,7
 497 884 497 884 611 884 c 0,8,9
 640 884 640 884 688 824 c 1,10,11
 590 755 590 755 519 648 c 0,12,13
 440 529 440 529 440 433 c 0,14,15
 440 317 440 317 537 317 c 0,16,17
 633 317 633 317 688 350 c 1,18,19
 727 506 727 506 863 672 c 0,20,21
 998 837 998 837 1110 879 c 0,22,23
 1146 892 1146 892 1208 845 c 0,24,25
 1223 834 1223 834 1231 826 c 1,26,27
 1146 753 1146 753 1093 628 c 0,28,29
 1048 522 1048 522 1048 437 c 0,30,31
 1048 317 1048 317 1133 317 c 0,32,33
 1207 317 1207 317 1298 384 c 1,34,35
 1379 445 1379 445 1440 536 c 1,36,37
 1485 539 1485 539 1485 499 c 0,38,39
 1485 463 1485 463 1443.5 394 c 128,-1,40
 1402 325 1402 325 1363 274 c 128,-1,41
 1324 223 1324 223 1276 174 c 128,-1,42
 1228 125 1228 125 1174 86 c 0,43,44
 1053 0 1053 0 938 0 c 0,45,46
 764 0 764 0 706 124 c 1,47,48
 596 42 596 42 474 11 c 0,49,50
 432 0 432 0 392 0 c 256,51,52
 352 0 352 0 320 7 c 1,53,54
 302 -182 302 -182 302 -371 c 1,55,56
 258 -377 258 -377 218 -377 c 0,0,1
EndSplineSet
EndChar

StartChar: paragraph
Encoding: 182 182 143
Width: 1740
GlyphClass: 2
Flags: W
LayerCount: 2
Fore
SplineSet
1436 1318 m 1,0,1
 1312 1360 1312 1360 1294 1365 c 1,2,3
 1134 789 1134 789 868 164 c 0,4,5
 770 -67 770 -67 721.5 -137.5 c 128,-1,6
 673 -208 673 -208 653 -208 c 0,7,8
 623 -208 623 -208 577 -186 c 0,9,10
 493 -147 493 -147 474 -121 c 1,11,12
 569 -37 569 -37 849 583 c 1,13,14
 724 475 724 475 584 475 c 0,15,16
 441 475 441 475 364 568 c 1,17,18
 295 654 295 654 295 797 c 0,19,20
 295 956 295 956 379 1122 c 0,21,22
 467 1296 467 1296 614 1406 c 0,23,24
 777 1528 777 1528 972 1528 c 0,25,26
 1077 1528 1077 1528 1218 1491 c 1,27,28
 1244 1566 1244 1566 1256 1613 c 1,29,30
 1338 1586 1338 1586 1338 1567 c 0,31,32
 1338 1536 1338 1536 1320 1464 c 1,33,34
 1442 1430 1442 1430 1469 1423 c 1,35,36
 1514 1575 1514 1575 1522 1613 c 1,37,38
 1604 1586 1604 1586 1604 1567 c 0,39,40
 1604 1531 1604 1531 1574 1396 c 1,41,42
 1760 1354 1760 1354 1900 1354 c 0,43,44
 1941 1354 1941 1354 1984 1357 c 1,45,46
 1980 1282 1980 1282 1954.5 1252 c 128,-1,47
 1929 1222 1929 1222 1900 1222 c 0,48,49
 1749 1222 1749 1222 1547 1283 c 1,50,51
 1380 621 1380 621 1178 78 c 0,52,53
 1095 -144 1095 -144 1052.5 -210.5 c 128,-1,54
 1010 -277 1010 -277 993 -277 c 128,-1,55
 976 -277 976 -277 952.5 -269.5 c 128,-1,56
 929 -262 929 -262 906 -250 c 0,57,58
 853 -224 853 -224 834 -199 c 1,59,60
 962 -87 962 -87 1295 888 c 0,61,62
 1374 1118 1374 1118 1436 1318 c 1,0,1
536 1030 m 0,63,64
 536 851 536 851 692 851 c 0,65,66
 799 851 799 851 934 1001 c 0,67,68
 1050 1130 1050 1130 1169 1355 c 1,69,-1
 1184 1396 l 1,70,71
 1072 1423 1072 1423 992.5 1423 c 128,-1,72
 913 1423 913 1423 849.5 1405.5 c 128,-1,73
 786 1388 786 1388 735.5 1358.5 c 128,-1,74
 685 1329 685 1329 647.5 1289.5 c 128,-1,75
 610 1250 610 1250 586 1206 c 1,76,77
 536 1119 536 1119 536 1030 c 0,63,64
EndSplineSet
EndChar

StartChar: periodcentered
Encoding: 183 183 144
Width: 857
GlyphClass: 2
Flags: W
LayerCount: 2
Fore
SplineSet
388.5 453.5 m 128,-1,1
 375 478 375 478 375 510 c 128,-1,2
 375 542 375 542 399.5 577 c 128,-1,3
 424 612 424 612 460 640 c 0,4,5
 540 705 540 705 598 705 c 0,6,7
 640 705 640 705 681 675 c 0,8,9
 757 618 757 618 757 567 c 0,10,11
 757 505 757 505 681 439.5 c 128,-1,12
 605 374 605 374 534 374 c 0,13,14
 471 374 471 374 436.5 401.5 c 128,-1,0
 402 429 402 429 388.5 453.5 c 128,-1,1
EndSplineSet
EndChar

StartChar: cedilla
Encoding: 184 184 145
Width: 1200
GlyphClass: 2
Flags: W
LayerCount: 2
Fore
SplineSet
399 -262 m 1,0,1
 445 -295 445 -295 487 -291 c 0,2,3
 564 -284 564 -284 564 -240 c 0,4,5
 564 -201 564 -201 520 -138 c 0,6,7
 511 -126 511 -126 511 -109 c 128,-1,8
 511 -92 511 -92 535.5 -66 c 128,-1,9
 560 -40 560 -40 594 -16 c 0,10,11
 648 23 648 23 727 62 c 1,12,-1
 871 44 l 1,13,14
 793 5 793 5 748 -32 c 0,15,16
 681 -87 681 -87 681 -98.5 c 128,-1,17
 681 -110 681 -110 700 -125 c 128,-1,18
 719 -140 719 -140 742 -163 c 0,19,20
 803 -224 803 -224 803 -286 c 128,-1,21
 803 -348 803 -348 777 -384.5 c 128,-1,22
 751 -421 751 -421 711 -444 c 0,23,24
 632 -491 632 -491 533 -491 c 0,25,26
 468 -491 468 -491 425 -464 c 0,27,28
 350 -416 350 -416 334 -358 c 0,29,30
 333 -355 333 -355 333 -349.5 c 128,-1,31
 333 -344 333 -344 338.5 -331.5 c 128,-1,32
 344 -319 344 -319 354 -304 c 0,33,34
 379 -269 379 -269 399 -262 c 1,0,1
EndSplineSet
EndChar

StartChar: onesuperior
Encoding: 185 185 146
Width: 784
GlyphClass: 2
Flags: W
LayerCount: 2
Fore
SplineSet
339 1445 m 1,0,1
 759 1576 759 1576 910 1673 c 1,2,3
 949 1662 949 1662 978 1613 c 0,4,5
 985 1600 985 1600 985 1580.5 c 128,-1,6
 985 1561 985 1561 957 1514.5 c 128,-1,7
 929 1468 929 1468 886.5 1407.5 c 128,-1,8
 844 1347 844 1347 794 1272.5 c 128,-1,9
 744 1198 744 1198 701 1114 c 0,10,11
 601 916 601 916 597 741 c 1,12,13
 570 738 570 738 543.5 738 c 128,-1,14
 517 738 517 738 478.5 741.5 c 128,-1,15
 440 745 440 745 398 763 c 0,16,17
 304 803 304 803 304 896 c 0,18,19
 304 1004 304 1004 526 1225 c 0,20,21
 586 1284 586 1284 640 1337 c 0,22,23
 775 1468 775 1468 795 1505 c 1,24,25
 704 1440 704 1440 510 1362 c 0,26,27
 437 1332 437 1332 419 1332 c 128,-1,28
 401 1332 401 1332 389 1342.5 c 128,-1,29
 377 1353 377 1353 367 1370 c 0,30,31
 345 1405 345 1405 339 1445 c 1,0,1
EndSplineSet
EndChar

StartChar: ordmasculine
Encoding: 186 186 147
Width: 764
GlyphClass: 2
Flags: W
LayerCount: 2
Fore
SplineSet
641.5 1011.5 m 128,-1,1
 564 987 564 987 494.5 987 c 128,-1,2
 425 987 425 987 389 999 c 128,-1,3
 353 1011 353 1011 330 1031 c 0,4,5
 283 1071 283 1071 283 1125.5 c 128,-1,6
 283 1180 283 1180 308 1224 c 128,-1,7
 333 1268 333 1268 375 1306 c 0,8,9
 464 1386 464 1386 585 1417 c 1,10,11
 598 1462 598 1462 621.5 1466 c 128,-1,12
 645 1470 645 1470 671.5 1470 c 128,-1,13
 698 1470 698 1470 737 1461.5 c 128,-1,14
 776 1453 776 1453 815 1430 c 0,15,16
 901 1379 901 1379 901 1308 c 128,-1,17
 901 1237 901 1237 868 1179 c 128,-1,18
 835 1121 835 1121 777 1078.5 c 128,-1,0
 719 1036 719 1036 641.5 1011.5 c 128,-1,1
539 1308 m 128,-1,20
 496 1269 496 1269 496 1217 c 128,-1,21
 496 1165 496 1165 538 1165 c 0,22,23
 603 1165 603 1165 654 1214 c 0,24,25
 703 1261 703 1261 703 1307 c 0,26,27
 703 1349 703 1349 658 1364 c 1,28,19
 582 1347 582 1347 539 1308 c 128,-1,20
EndSplineSet
EndChar

StartChar: guillemotright
Encoding: 187 187 148
Width: 1483
GlyphClass: 2
Flags: W
LayerCount: 2
Fore
SplineSet
877 767 m 1,0,1
 918 823 918 823 956 823 c 0,2,3
 1009 823 1009 823 1152 713 c 0,4,5
 1301 599 1301 599 1301 538 c 0,6,7
 1301 471 1301 471 1120 268 c 0,8,9
 1021 156 1021 156 963.5 112 c 128,-1,10
 906 68 906 68 886 68 c 128,-1,11
 866 68 866 68 836.5 83 c 128,-1,12
 807 98 807 98 780 119 c 0,13,14
 716 168 716 168 705 200 c 1,15,16
 798 254 798 254 1000 456 c 0,17,18
 1081 537 1081 537 1081 552.5 c 128,-1,19
 1081 568 1081 568 1068 586.5 c 128,-1,20
 1055 605 1055 605 1035.5 625.5 c 128,-1,21
 1016 646 1016 646 992 668 c 128,-1,22
 968 690 968 690 945 709.5 c 128,-1,23
 922 729 922 729 903.5 744 c 128,-1,24
 885 759 885 759 877 767 c 1,0,1
314 292 m 1,25,26
 453 381 453 381 545 453 c 0,27,28
 684 562 684 562 684 575 c 128,-1,29
 684 588 684 588 665.5 611.5 c 128,-1,30
 647 635 647 635 622 661 c 0,31,32
 569 714 569 714 524 752 c 1,33,34
 568 808 568 808 611 808 c 0,35,36
 648 808 648 808 768 708 c 0,37,38
 891 605 891 605 891 558 c 0,39,40
 891 509 891 509 694 332 c 0,41,42
 587 237 587 237 530.5 198.5 c 128,-1,43
 474 160 474 160 462 160 c 0,44,45
 440 160 440 160 396 198 c 0,46,47
 316 269 316 269 314 292 c 1,25,26
EndSplineSet
EndChar

StartChar: onequarter
Encoding: 188 188 149
Width: 2066
GlyphClass: 2
Flags: W
LayerCount: 2
Fore
SplineSet
1496 -415 m 0,0,1
 1283 -415 1283 -415 1283 -285 c 0,2,3
 1283 -205 1283 -205 1366 -85 c 1,4,5
 1275 -100 1275 -100 1213 -113.5 c 128,-1,6
 1151 -127 1151 -127 1128 -127 c 128,-1,7
 1105 -127 1105 -127 1078.5 -108.5 c 128,-1,8
 1052 -90 1052 -90 1028 -62 c 0,9,10
 972 2 972 2 964 54 c 1,11,12
 1254 268 1254 268 1689 480 c 0,13,14
 1761 515 1761 515 1819 539 c 1,15,16
 1841 535 1841 535 1868 515 c 0,17,18
 1916 479 1916 479 1916 456.5 c 128,-1,19
 1916 434 1916 434 1899.5 397 c 128,-1,20
 1883 360 1883 360 1856 312 c 128,-1,21
 1829 264 1829 264 1795 205.5 c 128,-1,22
 1761 147 1761 147 1725 81 c 1,23,24
 1877 77 1877 77 1932 36 c 0,25,26
 1951 22 1951 22 1951 7 c 0,27,28
 1951 -24 1951 -24 1916 -68 c 1,29,30
 1865 -54 1865 -54 1713 -54 c 1,31,-1
 1657 -55 l 1,32,33
 1569 -252 1569 -252 1550 -413 c 1,34,35
 1522 -415 1522 -415 1496 -415 c 0,0,1
1178 47 m 1,36,37
 1188 48 1188 48 1217 50.5 c 128,-1,38
 1246 53 1246 53 1288 57 c 0,39,40
 1390 67 1390 67 1487 72 c 1,41,42
 1527 120 1527 120 1568 166.5 c 128,-1,43
 1609 213 1609 213 1644 255 c 0,44,45
 1727 355 1727 355 1745 395 c 1,46,47
 1629 349 1629 349 1511.5 273 c 128,-1,48
 1394 197 1394 197 1344 164 c 1,49,50
 1294 129 1294 129 1178 47 c 1,36,37
448 1445 m 1,51,52
 868 1576 868 1576 1019 1673 c 1,53,54
 1058 1662 1058 1662 1086 1613 c 0,55,56
 1094 1600 1094 1600 1094 1580.5 c 128,-1,57
 1094 1561 1094 1561 1066 1514.5 c 128,-1,58
 1038 1468 1038 1468 995.5 1407.5 c 128,-1,59
 953 1347 953 1347 903 1272.5 c 128,-1,60
 853 1198 853 1198 810 1114 c 0,61,62
 710 916 710 916 706 741 c 1,63,64
 679 738 679 738 652.5 738 c 128,-1,65
 626 738 626 738 587.5 741.5 c 128,-1,66
 549 745 549 745 507 763 c 0,67,68
 413 803 413 803 413 896 c 0,69,70
 413 1004 413 1004 636 1225 c 0,71,72
 695 1284 695 1284 750 1337 c 0,73,74
 884 1468 884 1468 904 1505 c 1,75,76
 813 1440 813 1440 620 1362 c 0,77,78
 546 1332 546 1332 528 1332 c 128,-1,79
 510 1332 510 1332 498 1342.5 c 128,-1,80
 486 1353 486 1353 476 1370 c 0,81,82
 454 1405 454 1405 448 1445 c 1,51,52
40 -210 m 1,83,84
 216 -84 216 -84 678 376 c 0,85,86
 1488 1182 1488 1182 1830 1680 c 1,87,88
 1866 1668 1866 1668 1882 1650 c 128,-1,89
 1898 1632 1898 1632 1898 1613 c 128,-1,90
 1898 1594 1898 1594 1855.5 1519.5 c 128,-1,91
 1813 1445 1813 1445 1739.5 1341 c 128,-1,92
 1666 1237 1666 1237 1567 1110 c 128,-1,93
 1468 983 1468 983 1354.5 845.5 c 128,-1,94
 1241 708 1241 708 1119 567 c 128,-1,95
 997 426 997 426 877 295 c 128,-1,96
 757 164 757 164 644.5 49 c 128,-1,97
 532 -66 532 -66 439 -151 c 0,98,99
 238 -335 238 -335 176 -335 c 0,100,101
 145 -335 145 -335 111 -302 c 0,102,103
 52 -245 52 -245 40 -210 c 1,83,84
EndSplineSet
EndChar

StartChar: threequarters
Encoding: 190 190 151
Width: 2166
GlyphClass: 2
Flags: W
LayerCount: 2
Fore
SplineSet
1596 -415 m 0,0,1
 1383 -415 1383 -415 1383 -285 c 0,2,3
 1383 -205 1383 -205 1466 -85 c 1,4,5
 1375 -100 1375 -100 1313 -113.5 c 128,-1,6
 1251 -127 1251 -127 1228 -127 c 128,-1,7
 1205 -127 1205 -127 1178.5 -108.5 c 128,-1,8
 1152 -90 1152 -90 1128 -62 c 0,9,10
 1072 2 1072 2 1064 54 c 1,11,12
 1354 268 1354 268 1789 480 c 0,13,14
 1861 515 1861 515 1919 539 c 1,15,16
 1941 535 1941 535 1968 515 c 0,17,18
 2016 479 2016 479 2016 456.5 c 128,-1,19
 2016 434 2016 434 1999.5 397 c 128,-1,20
 1983 360 1983 360 1956 312 c 128,-1,21
 1929 264 1929 264 1895 205.5 c 128,-1,22
 1861 147 1861 147 1825 81 c 1,23,24
 1977 77 1977 77 2032 36 c 0,25,26
 2051 22 2051 22 2051 7 c 0,27,28
 2051 -24 2051 -24 2016 -68 c 1,29,30
 1965 -54 1965 -54 1813 -54 c 1,31,-1
 1757 -55 l 1,32,33
 1669 -252 1669 -252 1650 -413 c 1,34,35
 1622 -415 1622 -415 1596 -415 c 0,0,1
1278 47 m 1,36,37
 1288 48 1288 48 1317 50.5 c 128,-1,38
 1346 53 1346 53 1388 57 c 0,39,40
 1490 67 1490 67 1587 72 c 1,41,42
 1627 120 1627 120 1668 166.5 c 128,-1,43
 1709 213 1709 213 1744 255 c 0,44,45
 1827 355 1827 355 1845 395 c 1,46,47
 1734 352 1734 352 1614 274.5 c 128,-1,48
 1494 197 1494 197 1444 164 c 1,49,50
 1394 129 1394 129 1278 47 c 1,36,37
140 -210 m 1,51,52
 316 -84 316 -84 778 376 c 0,53,54
 1588 1182 1588 1182 1930 1680 c 1,55,56
 1966 1668 1966 1668 1982 1650 c 128,-1,57
 1998 1632 1998 1632 1998 1613 c 128,-1,58
 1998 1594 1998 1594 1955.5 1519.5 c 128,-1,59
 1913 1445 1913 1445 1839.5 1341 c 128,-1,60
 1766 1237 1766 1237 1667 1110 c 128,-1,61
 1568 983 1568 983 1454.5 845.5 c 128,-1,62
 1341 708 1341 708 1219 567 c 128,-1,63
 1097 426 1097 426 977 295 c 128,-1,64
 857 164 857 164 744.5 49 c 128,-1,65
 632 -66 632 -66 539 -151 c 0,66,67
 338 -335 338 -335 276 -335 c 0,68,69
 245 -335 245 -335 211 -302 c 0,70,71
 152 -245 152 -245 140 -210 c 1,51,52
963 1254 m 1,72,73
 1042 1186 1042 1186 1042 1086 c 0,74,75
 1042 992 1042 992 980.5 914.5 c 128,-1,76
 919 837 919 837 838 788 c 0,77,78
 657 678 657 678 389 678 c 0,79,80
 307 678 307 678 267 758 c 0,81,82
 244 805 244 805 244 845.5 c 128,-1,83
 244 886 244 886 248 907 c 1,84,85
 278 905 278 905 317 905 c 128,-1,86
 356 905 356 905 418 910.5 c 128,-1,87
 480 916 480 916 548.5 931.5 c 128,-1,88
 617 947 617 947 673 972 c 0,89,90
 827 1039 827 1039 827 1135 c 0,91,92
 827 1154 827 1154 821 1173 c 1,93,94
 718 1128 718 1128 658 1128 c 0,95,96
 629 1128 629 1128 607 1186 c 0,97,98
 589 1234 589 1234 589 1265 c 1,99,100
 717 1281 717 1281 847 1349 c 0,101,102
 983 1420 983 1420 983 1490 c 0,103,104
 983 1524 983 1524 949 1543 c 128,-1,105
 915 1562 915 1562 865.5 1562 c 128,-1,106
 816 1562 816 1562 764.5 1545 c 128,-1,107
 713 1528 713 1528 673 1502 c 0,108,109
 581 1444 581 1444 593 1394 c 1,110,111
 582 1380 582 1380 549.5 1369.5 c 128,-1,112
 517 1359 517 1359 509 1359 c 128,-1,113
 501 1359 501 1359 488.5 1367 c 128,-1,114
 476 1375 476 1375 464 1387 c 0,115,116
 438 1415 438 1415 438 1443.5 c 128,-1,117
 438 1472 438 1472 462.5 1499.5 c 128,-1,118
 487 1527 487 1527 527.5 1552.5 c 128,-1,119
 568 1578 568 1578 619 1599.5 c 128,-1,120
 670 1621 670 1621 722 1637 c 0,121,122
 834 1671 834 1671 930 1671 c 128,-1,123
 1026 1671 1026 1671 1088.5 1627.5 c 128,-1,124
 1151 1584 1151 1584 1151 1509 c 0,125,126
 1151 1384 1151 1384 963 1254 c 1,72,73
EndSplineSet
EndChar

StartChar: questiondown
Encoding: 191 191 152
Width: 1130
GlyphClass: 2
Flags: W
LayerCount: 2
Fore
SplineSet
854 976 m 0,0,1
 887 983 887 983 915.5 983 c 128,-1,2
 944 983 944 983 972 974.5 c 128,-1,3
 1000 966 1000 966 1022 950 c 0,4,5
 1070 915 1070 915 1070 866 c 128,-1,6
 1070 817 1070 817 1046 778 c 128,-1,7
 1022 739 1022 739 982 708 c 0,8,9
 891 639 891 639 792 639 c 128,-1,10
 693 639 693 639 647.5 680 c 128,-1,11
 602 721 602 721 602 778 c 128,-1,12
 602 835 602 835 669 893 c 128,-1,13
 736 951 736 951 854 976 c 0,0,1
792 388 m 0,14,15
 792 471 792 471 700.5 471 c 128,-1,16
 609 471 609 471 531 416 c 1,17,18
 504 420 504 420 506 450 c 0,19,20
 508 470 508 470 547 493 c 128,-1,21
 586 516 586 516 616 527 c 0,22,23
 679 550 679 550 731 550 c 128,-1,24
 783 550 783 550 821 537.5 c 128,-1,25
 859 525 859 525 886 502 c 0,26,27
 943 455 943 455 943 393 c 128,-1,28
 943 331 943 331 914.5 284.5 c 128,-1,29
 886 238 886 238 839 194 c 128,-1,30
 792 150 792 150 732 108 c 128,-1,31
 672 66 672 66 609 26.5 c 128,-1,32
 546 -13 546 -13 486 -51.5 c 128,-1,33
 426 -90 426 -90 379 -126 c 0,34,35
 275 -207 275 -207 275 -266 c 128,-1,36
 275 -325 275 -325 309.5 -354 c 128,-1,37
 344 -383 344 -383 400 -383 c 128,-1,38
 456 -383 456 -383 512.5 -363.5 c 128,-1,39
 569 -344 569 -344 611.5 -316.5 c 128,-1,40
 654 -289 654 -289 679 -259 c 128,-1,41
 704 -229 704 -229 704 -209.5 c 128,-1,42
 704 -190 704 -190 698 -181 c 128,-1,43
 692 -172 692 -172 681 -170 c 0,44,45
 666 -166 666 -166 624 -176 c 1,46,47
 597 -128 597 -128 640 -106 c 0,48,49
 672 -90 672 -90 731 -90 c 0,50,51
 845 -90 845 -90 880 -186 c 0,52,53
 890 -215 890 -215 890 -241 c 128,-1,54
 890 -267 890 -267 886 -302.5 c 128,-1,55
 882 -338 882 -338 853 -395.5 c 128,-1,56
 824 -453 824 -453 773 -508 c 128,-1,57
 722 -563 722 -563 648 -606 c 0,58,59
 483 -701 483 -701 262 -701 c 0,60,61
 91 -701 91 -701 -12 -628 c 0,62,63
 -110 -559 -110 -559 -110 -459.5 c 128,-1,64
 -110 -360 -110 -360 -71 -287.5 c 128,-1,65
 -32 -215 -32 -215 31 -155 c 128,-1,66
 94 -95 94 -95 175 -46 c 128,-1,67
 256 3 256 3 341 46.5 c 128,-1,68
 426 90 426 90 507 130 c 128,-1,69
 588 170 588 170 651 210 c 0,70,71
 792 300 792 300 792 388 c 0,14,15
EndSplineSet
EndChar

StartChar: AE
Encoding: 198 198 159
Width: 2601
GlyphClass: 2
Flags: W
LayerCount: 2
Fore
SplineSet
1388 762 m 1,0,1
 1224 840 1224 840 1105 876 c 1,2,3
 848 567 848 567 801 276 c 0,4,5
 793 227 793 227 793 179 c 128,-1,6
 793 131 793 131 802 84 c 1,7,8
 774 52 774 52 706 20 c 0,9,10
 580 -39 580 -39 546.5 -39 c 128,-1,11
 513 -39 513 -39 488.5 -27 c 128,-1,12
 464 -15 464 -15 444 10 c 1,13,14
 396 66 396 66 396 159.5 c 128,-1,15
 396 253 396 253 429.5 348 c 128,-1,16
 463 443 463 443 522 540 c 0,17,18
 635 726 635 726 843 921 c 1,19,20
 785 925 785 925 701.5 925 c 128,-1,21
 618 925 618 925 530 904 c 0,22,23
 344 860 344 860 308 736 c 0,24,25
 301 714 301 714 301 678.5 c 128,-1,26
 301 643 301 643 325 587 c 1,27,28
 305 550 305 550 232 557 c 0,29,30
 156 564 156 564 113 598 c 0,31,32
 32 662 32 662 32 739 c 0,33,34
 32 889 32 889 242 980 c 0,35,36
 437 1065 437 1065 717 1065 c 0,37,38
 844 1065 844 1065 975 1037 c 1,39,40
 1358 1352 1358 1352 1740 1490 c 0,41,42
 1932 1560 1932 1560 2076 1560 c 0,43,44
 2140 1560 2140 1560 2173.5 1532.5 c 128,-1,45
 2207 1505 2207 1505 2210 1461 c 1,46,47
 2446 1564 2446 1564 2711 1564 c 0,48,49
 2886 1564 2886 1564 2944 1462 c 0,50,51
 2964 1428 2964 1428 2964 1389 c 128,-1,52
 2964 1350 2964 1350 2953.5 1315.5 c 128,-1,53
 2943 1281 2943 1281 2924 1253 c 0,54,55
 2883 1190 2883 1190 2827 1190 c 0,56,57
 2792 1190 2792 1190 2744 1230 c 0,58,59
 2732 1240 2732 1240 2726 1247 c 1,60,61
 2770 1299 2770 1299 2770 1371 c 0,62,63
 2770 1454 2770 1454 2658 1454 c 0,64,65
 2533 1454 2533 1454 2377 1406 c 0,66,67
 2267 1372 2267 1372 2218 1320 c 1,68,69
 2192 1294 2192 1294 2192 1259 c 128,-1,70
 2192 1224 2192 1224 2212 1189.5 c 128,-1,71
 2232 1155 2232 1155 2265.5 1125.5 c 128,-1,72
 2299 1096 2299 1096 2344 1071 c 128,-1,73
 2389 1046 2389 1046 2438 1026 c 1,74,75
 2534 989 2534 989 2639 967 c 1,76,77
 2622 887 2622 887 2585 832 c 0,78,79
 2573 814 2573 814 2563 816 c 0,80,81
 2438 844 2438 844 2344 844 c 128,-1,82
 2250 844 2250 844 2178 834 c 1,83,84
 2030 811 2030 811 1926 731 c 1,85,86
 1879 590 1879 590 1879 515 c 128,-1,87
 1879 440 1879 440 1906 400 c 128,-1,88
 1933 360 1933 360 1972 338 c 1,89,90
 2037 299 2037 299 2121 299 c 0,91,92
 2313 299 2313 299 2499 435 c 1,93,94
 2522 419 2522 419 2535 399.5 c 128,-1,95
 2548 380 2548 380 2548 361.5 c 128,-1,96
 2548 343 2548 343 2525.5 302 c 128,-1,97
 2503 261 2503 261 2463 216.5 c 128,-1,98
 2423 172 2423 172 2368.5 128.5 c 128,-1,99
 2314 85 2314 85 2249 50 c 0,100,101
 2103 -27 2103 -27 1968.5 -27 c 128,-1,102
 1834 -27 1834 -27 1733.5 9 c 128,-1,103
 1633 45 1633 45 1564 106 c 1,104,105
 1425 232 1425 232 1425 420 c 0,106,107
 1425 632 1425 632 1628 888 c 0,108,109
 1733 1020 1733 1020 1827.5 1117 c 128,-1,110
 1922 1214 1922 1214 1967 1264 c 0,111,112
 2067 1377 2067 1377 2067 1423 c 0,113,114
 2067 1446 2067 1446 2025 1446 c 0,115,116
 1845 1446 1845 1446 1613 1312 c 0,117,118
 1392 1184 1392 1184 1193 975 c 1,119,120
 1370 908 1370 908 1401 866 c 0,121,122
 1440 814 1440 814 1388 762 c 1,0,1
2024 970 m 1,123,124
 2100 985 2100 985 2179 988 c 1,125,126
 2115 1025 2115 1025 2072 1073 c 1,127,-1
 2024 970 l 1,123,124
EndSplineSet
EndChar

StartChar: Ccedilla
Encoding: 199 199 160
Width: 1361
GlyphClass: 2
Flags: W
LayerCount: 2
Fore
SplineSet
1286 1264 m 1,0,1
 1340 1329 1340 1329 1340 1384 c 0,2,3
 1340 1425 1340 1425 1311.5 1443.5 c 128,-1,4
 1283 1462 1283 1462 1219 1462 c 128,-1,5
 1155 1462 1155 1462 1063 1429.5 c 128,-1,6
 971 1397 971 1397 886.5 1341 c 128,-1,7
 802 1285 802 1285 728.5 1209.5 c 128,-1,8
 655 1134 655 1134 601 1047 c 0,9,10
 485 860 485 860 485 682 c 0,11,12
 485 503 485 503 610 386 c 0,13,14
 755 250 755 250 989 250 c 0,15,16
 1229 250 1229 250 1412 394 c 0,17,18
 1486 453 1486 453 1540 536 c 1,19,20
 1585 539 1585 539 1585 499 c 0,21,22
 1585 483 1585 483 1575 460 c 0,23,24
 1488 254 1488 254 1284 116 c 0,25,26
 1093 -12 1093 -12 860 -44 c 1,27,28
 751 -84 751 -84 692 -133 c 0,29,30
 674 -148 674 -148 674 -158 c 256,31,32
 674 -168 674 -168 693 -183 c 128,-1,33
 712 -198 712 -198 735 -221 c 0,34,35
 796 -282 796 -282 796 -344 c 128,-1,36
 796 -406 796 -406 770 -442.5 c 128,-1,37
 744 -479 744 -479 704 -502 c 0,38,39
 625 -549 625 -549 526 -549 c 0,40,41
 461 -549 461 -549 418 -522 c 0,42,43
 343 -474 343 -474 327 -416 c 1,44,45
 321 -399 321 -399 340 -373 c 0,46,47
 372 -327 372 -327 392 -320 c 1,48,49
 438 -353 438 -353 480 -349 c 0,50,51
 557 -342 557 -342 557 -298 c 0,52,53
 557 -259 557 -259 512 -196 c 0,54,55
 504 -184 504 -184 504 -170.5 c 128,-1,56
 504 -157 504 -157 516 -140 c 128,-1,57
 528 -123 528 -123 548 -107 c 0,58,59
 587 -76 587 -76 647 -50 c 1,60,61
 410 -29 410 -29 265 112 c 1,62,63
 105 266 105 266 105 530 c 0,64,65
 105 816 105 816 340 1090 c 0,66,67
 563 1350 563 1350 880 1482 c 1,68,69
 1093 1572 1093 1572 1285 1572 c 0,70,71
 1480 1572 1480 1572 1550 1462 c 0,72,73
 1575 1424 1575 1424 1575 1376 c 128,-1,74
 1575 1328 1575 1328 1560 1293.5 c 128,-1,75
 1545 1259 1545 1259 1522 1234 c 0,76,77
 1474 1182 1474 1182 1431 1182 c 0,78,79
 1391 1182 1391 1182 1310 1243 c 0,80,81
 1292 1257 1292 1257 1286 1264 c 1,0,1
EndSplineSet
EndChar

StartChar: Eth
Encoding: 208 208 169
Width: 1954
GlyphClass: 2
Flags: W
LayerCount: 2
Fore
SplineSet
1091 1588 m 0,0,1
 1920 1588 1920 1588 1920 981 c 0,2,3
 1920 745 1920 745 1782 514 c 0,4,5
 1639 276 1639 276 1399 131 c 0,6,7
 1137 -28 1137 -28 821 -28 c 0,8,9
 545 -28 545 -28 334 104 c 0,10,11
 103 248 103 248 57 503 c 0,12,13
 56 510 56 510 56 519 c 128,-1,14
 56 528 56 528 60 539 c 128,-1,15
 64 550 64 550 75 560 c 0,16,17
 94 576 94 576 133 585 c 1,18,19
 232 449 232 449 414 381 c 1,20,21
 489 477 489 477 594 627 c 1,22,23
 487 654 487 654 487 760 c 0,24,25
 487 812 487 812 514 858 c 1,26,27
 603 842 603 842 740 836 c 1,28,29
 928 1101 928 1101 1009 1193 c 128,-1,30
 1090 1285 1090 1285 1117.5 1311 c 128,-1,31
 1145 1337 1145 1337 1161 1339.5 c 128,-1,32
 1177 1342 1177 1342 1194 1339 c 0,33,34
 1230 1333 1230 1333 1252 1313 c 1,35,36
 1141 1199 1141 1199 950 831 c 1,37,38
 1129 833 1129 833 1190.5 843 c 128,-1,39
 1252 853 1252 853 1259.5 846 c 128,-1,40
 1267 839 1267 839 1267 822 c 128,-1,41
 1267 805 1267 805 1249.5 785 c 128,-1,42
 1232 765 1232 765 1201.5 747 c 128,-1,43
 1171 729 1171 729 1130.5 713 c 128,-1,44
 1090 697 1090 697 1044 683 c 0,45,46
 957 657 957 657 849 639 c 1,47,48
 721 401 721 401 673 326 c 1,49,50
 721 322 721 322 801.5 322 c 128,-1,51
 882 322 882 322 992 356 c 128,-1,52
 1102 390 1102 390 1202 448.5 c 128,-1,53
 1302 507 1302 507 1388 585 c 128,-1,54
 1474 663 1474 663 1537 752 c 0,55,56
 1672 941 1672 941 1672 1119 c 0,57,58
 1672 1482 1672 1482 1068 1482 c 0,59,60
 868 1482 868 1482 698 1414 c 0,61,62
 502 1335 502 1335 502 1214 c 0,63,64
 502 1101 502 1101 586 1024 c 1,65,66
 495 927 495 927 441 927 c 0,67,68
 381 927 381 927 334 1004 c 0,69,70
 288 1080 288 1080 288 1164.5 c 128,-1,71
 288 1249 288 1249 325 1309.5 c 128,-1,72
 362 1370 362 1370 424.5 1416.5 c 128,-1,73
 487 1463 487 1463 568.5 1495.5 c 128,-1,74
 650 1528 650 1528 739 1548 c 0,75,76
 910 1588 910 1588 1091 1588 c 0,0,1
EndSplineSet
EndChar

StartChar: Ntilde
Encoding: 209 209 170
Width: 1766
GlyphClass: 2
Flags: W
LayerCount: 2
Fore
SplineSet
1084 1735 m 0,0,1
 1011 1735 1011 1735 916 1662 c 1,2,3
 864 1688 864 1688 874.5 1714 c 128,-1,4
 885 1740 885 1740 911.5 1766 c 128,-1,5
 938 1792 938 1792 972 1811 c 0,6,7
 1047 1852 1047 1852 1113 1852 c 128,-1,8
 1179 1852 1179 1852 1220.5 1840 c 128,-1,9
 1262 1828 1262 1828 1298 1813 c 0,10,11
 1392 1774 1392 1774 1449.5 1774 c 128,-1,12
 1507 1774 1507 1774 1590 1846 c 1,13,14
 1635 1818 1635 1818 1630.5 1796.5 c 128,-1,15
 1626 1775 1626 1775 1606.5 1748 c 128,-1,16
 1587 1721 1587 1721 1556 1698 c 0,17,18
 1487 1647 1487 1647 1415.5 1647 c 128,-1,19
 1344 1647 1344 1647 1303.5 1660.5 c 128,-1,20
 1263 1674 1263 1674 1227.5 1690.5 c 128,-1,21
 1192 1707 1192 1707 1158.5 1721 c 128,-1,22
 1125 1735 1125 1735 1084 1735 c 0,0,1
1551 294 m 0,23,24
 1574 287 1574 287 1602.5 287 c 128,-1,25
 1631 287 1631 287 1667 302 c 1,26,27
 1686 289 1686 289 1698 267.5 c 128,-1,28
 1710 246 1710 246 1710 230 c 128,-1,29
 1710 214 1710 214 1697.5 184 c 128,-1,30
 1685 154 1685 154 1662 123.5 c 128,-1,31
 1639 93 1639 93 1606.5 65 c 128,-1,32
 1574 37 1574 37 1535 15 c 0,33,34
 1389 -68 1389 -68 1219 -10 c 1,35,36
 1078 37 1078 37 1018 184 c 0,37,38
 988 260 988 260 988 347 c 128,-1,39
 988 434 988 434 1012 500 c 128,-1,40
 1036 566 1036 566 1075.5 630 c 128,-1,41
 1115 694 1115 694 1165 754.5 c 128,-1,42
 1215 815 1215 815 1267.5 872.5 c 128,-1,43
 1320 930 1320 930 1370.5 984 c 128,-1,44
 1421 1038 1421 1038 1460 1088 c 0,45,46
 1548 1200 1548 1200 1548 1272 c 0,47,48
 1548 1376 1548 1376 1456 1404 c 0,49,50
 1429 1413 1429 1413 1374 1413 c 128,-1,51
 1319 1413 1319 1413 1239 1376 c 128,-1,52
 1159 1339 1159 1339 1081 1274.5 c 128,-1,53
 1003 1210 1003 1210 929.5 1122.5 c 128,-1,54
 856 1035 856 1035 791.5 934.5 c 128,-1,55
 727 834 727 834 674 724 c 0,56,57
 522 407 522 407 522 162 c 0,58,59
 522 132 522 132 525 104 c 1,60,61
 496 71 496 71 424 36 c 0,62,63
 291 -27 291 -27 256.5 -27 c 128,-1,64
 222 -27 222 -27 198 -13.5 c 128,-1,65
 174 0 174 0 154 27 c 0,66,67
 107 88 107 88 107 182.5 c 128,-1,68
 107 277 107 277 137.5 379 c 128,-1,69
 168 481 168 481 214 588 c 128,-1,70
 260 695 260 695 313 802.5 c 128,-1,71
 366 910 366 910 412 1010 c 0,72,73
 519 1243 519 1243 519 1354 c 0,74,75
 519 1451 519 1451 506 1484 c 0,76,77
 481 1544 481 1544 434 1546 c 1,78,79
 437 1613 437 1613 506 1613 c 256,80,81
 575 1613 575 1613 623 1562 c 0,82,83
 696 1486 696 1486 696 1330 c 0,84,85
 696 1149 696 1149 601 930 c 1,86,87
 844 1237 844 1237 1006 1368 c 0,88,89
 1217 1537 1217 1537 1423 1537 c 0,90,91
 1623 1537 1623 1537 1683 1379 c 0,92,93
 1703 1326 1703 1326 1703 1252 c 128,-1,94
 1703 1178 1703 1178 1686 1107.5 c 128,-1,95
 1669 1037 1669 1037 1644 969.5 c 128,-1,96
 1619 902 1619 902 1589 836 c 128,-1,97
 1559 770 1559 770 1534 702 c 0,98,99
 1475 543 1475 543 1475 415 c 0,100,101
 1475 319 1475 319 1551 294 c 0,23,24
EndSplineSet
EndChar

StartChar: multiply
Encoding: 215 215 176
Width: 1436
GlyphClass: 2
Flags: W
LayerCount: 2
Fore
SplineSet
1016 274 m 1,0,1
 963 212 963 212 922 212 c 0,2,3
 909 212 909 212 896 218.5 c 128,-1,4
 883 225 883 225 860 246 c 128,-1,5
 837 267 837 267 809 298 c 0,6,7
 746 366 746 366 687 446 c 1,8,9
 381 267 381 267 299 237 c 1,10,11
 264 223 264 223 234 241 c 0,12,13
 184 271 184 271 184 293 c 1,14,15
 403 421 403 421 610 558 c 1,16,17
 508 719 508 719 508 802 c 0,18,19
 508 854 508 854 541.5 883.5 c 128,-1,20
 575 913 575 913 645 936 c 1,21,22
 668 845 668 845 762 661 c 1,23,24
 1000 831 1000 831 1090 936 c 1,25,26
 1167 873 1167 873 1167 822 c 0,27,28
 1167 784 1167 784 1139.5 755 c 128,-1,29
 1112 726 1112 726 1081.5 702 c 128,-1,30
 1051 678 1051 678 1012 651 c 0,31,32
 954 610 954 610 831 533 c 1,33,34
 936 349 936 349 1016 274 c 1,0,1
EndSplineSet
EndChar

StartChar: Oslash
Encoding: 216 216 177
Width: 1568
GlyphClass: 2
Flags: W
LayerCount: 2
Fore
SplineSet
456 -37 m 1,0,1
 301 -246 301 -246 262 -246 c 0,2,3
 208 -246 208 -246 124 -186 c 0,4,5
 102 -171 102 -171 93 -159 c 1,6,7
 149 -111 149 -111 272 41 c 1,8,9
 53 189 53 189 53 486 c 0,10,11
 53 777 53 777 280 1064 c 0,12,13
 495 1337 495 1337 798 1478 c 0,14,15
 1003 1574 1003 1574 1189 1574 c 0,16,17
 1273 1574 1273 1574 1344 1547 c 1,18,19
 1382 1605 1382 1605 1420 1670 c 1,20,21
 1497 1644 1497 1644 1497 1625 c 128,-1,22
 1497 1606 1497 1606 1439 1494 c 1,23,24
 1612 1359 1612 1359 1612 1085 c 0,25,26
 1612 810 1612 810 1495 540 c 0,27,28
 1301 94 1301 94 873 -22 c 0,29,30
 755 -54 755 -54 643.5 -54 c 128,-1,31
 532 -54 532 -54 456 -37 c 1,0,1
549 405 m 1,32,33
 908 891 908 891 1278 1446 c 1,34,35
 1234 1464 1234 1464 1164 1464 c 128,-1,36
 1094 1464 1094 1464 1005.5 1434.5 c 128,-1,37
 917 1405 917 1405 838 1351.5 c 128,-1,38
 759 1298 759 1298 691.5 1223.5 c 128,-1,39
 624 1149 624 1149 575 1060 c 0,40,41
 471 870 471 870 471 655 c 0,42,43
 471 497 471 497 549 405 c 1,32,33
704 313 m 1,44,45
 744 303 744 303 816 303 c 128,-1,46
 888 303 888 303 971 339 c 128,-1,47
 1054 375 1054 375 1124.5 437.5 c 128,-1,48
 1195 500 1195 500 1251.5 583.5 c 128,-1,49
 1308 667 1308 667 1348 762 c 0,50,51
 1431 958 1431 958 1431 1154 c 0,52,53
 1431 1293 1431 1293 1372 1373 c 1,54,55
 1066 844 1066 844 704 313 c 1,44,45
EndSplineSet
EndChar

StartChar: Thorn
Encoding: 222 222 183
Width: 1706
GlyphClass: 2
Flags: W
LayerCount: 2
Fore
SplineSet
557 327 m 1,0,1
 455 -2 455 -2 447 -60 c 1,2,3
 262 -60 262 -60 153 -8 c 0,4,5
 91 22 91 22 91 63.5 c 128,-1,6
 91 105 91 105 116.5 182.5 c 128,-1,7
 142 260 142 260 185 359.5 c 128,-1,8
 228 459 228 459 285.5 574.5 c 128,-1,9
 343 690 343 690 407 809.5 c 128,-1,10
 471 929 471 929 538 1047 c 128,-1,11
 605 1165 605 1165 668 1271 c 0,12,13
 791 1481 791 1481 876 1608 c 0,14,15
 889 1628 889 1628 911 1628 c 128,-1,16
 933 1628 933 1628 946 1627 c 0,17,18
 986 1622 986 1622 1005 1596 c 1,19,20
 954 1484 954 1484 895 1324 c 1,21,22
 1252 1321 1252 1321 1479 1220 c 0,23,24
 1737 1106 1737 1106 1737 882 c 0,25,26
 1737 699 1737 699 1622 542 c 1,27,28
 1515 394 1515 394 1338 306 c 0,29,30
 1159 217 1159 217 967 217 c 0,31,32
 687 217 687 217 569 312 c 0,33,34
 561 318 561 318 557 327 c 1,0,1
850 1205 m 1,35,36
 782 1019 782 1019 671 682 c 1,37,38
 828 619 828 619 996 619 c 0,39,40
 1187 619 1187 619 1336 714 c 0,41,42
 1497 816 1497 816 1497 964 c 0,43,44
 1497 1122 1497 1122 1140 1181 c 0,45,46
 1010 1203 1010 1203 850 1205 c 1,35,36
EndSplineSet
EndChar

StartChar: germandbls
Encoding: 223 223 184
Width: 1162
GlyphClass: 2
Flags: W
LayerCount: 2
Fore
SplineSet
236 -210 m 0,0,1
 8 -210 8 -210 8 -19 c 0,2,3
 8 189 8 189 199 581 c 0,4,5
 318 826 318 826 470 1030 c 0,6,7
 627 1242 627 1242 780 1332 c 0,8,9
 858 1378 858 1378 920 1378 c 128,-1,10
 982 1378 982 1378 1027.5 1358 c 128,-1,11
 1073 1338 1073 1338 1106 1304 c 0,12,13
 1178 1230 1178 1230 1178 1123 c 0,14,15
 1178 985 1178 985 1028 884 c 0,16,17
 933 821 933 821 905 790 c 128,-1,18
 877 759 877 759 877 729.5 c 128,-1,19
 877 700 877 700 895 675.5 c 128,-1,20
 913 651 913 651 940 625.5 c 128,-1,21
 967 600 967 600 999 571.5 c 128,-1,22
 1031 543 1031 543 1058 509 c 0,23,24
 1121 430 1121 430 1121 347.5 c 128,-1,25
 1121 265 1121 265 1088.5 203 c 128,-1,26
 1056 141 1056 141 1000 96 c 0,27,28
 881 0 881 0 708 0 c 0,29,30
 606 0 606 0 532 51 c 0,31,32
 455 104 455 104 455 182 c 0,33,34
 455 247 455 247 545 385 c 1,35,36
 585 359 585 359 632.5 349.5 c 128,-1,37
 680 340 680 340 700 340 c 0,38,39
 736 340 736 340 736 385 c 0,40,41
 736 408 736 408 721.5 439.5 c 128,-1,42
 707 471 707 471 690 508 c 0,43,44
 644 610 644 610 644 672.5 c 128,-1,45
 644 735 644 735 672.5 781.5 c 128,-1,46
 701 828 701 828 743.5 865.5 c 128,-1,47
 786 903 786 903 836 934 c 128,-1,48
 886 965 886 965 928 996 c 0,49,50
 1028 1067 1028 1067 1028 1129 c 128,-1,51
 1028 1191 1028 1191 997 1227 c 128,-1,52
 966 1263 966 1263 912 1263 c 128,-1,53
 858 1263 858 1263 804 1212 c 128,-1,54
 750 1161 750 1161 698 1074.5 c 128,-1,55
 646 988 646 988 596.5 874.5 c 128,-1,56
 547 761 547 761 502.5 637 c 128,-1,57
 458 513 458 513 419 386 c 128,-1,58
 380 259 380 259 348.5 145 c 128,-1,59
 317 31 317 31 293.5 -62 c 128,-1,60
 270 -155 270 -155 256 -210 c 1,61,62
 246 -210 246 -210 236 -210 c 0,0,1
EndSplineSet
EndChar

StartChar: ae
Encoding: 230 230 191
Width: 1577
GlyphClass: 2
Flags: W
LayerCount: 2
Fore
SplineSet
1096 810 m 1,0,1
 1279 891 1279 891 1431 891 c 0,2,3
 1556 891 1556 891 1602 804 c 0,4,5
 1617 776 1617 776 1617 729.5 c 128,-1,6
 1617 683 1617 683 1592.5 638 c 128,-1,7
 1568 593 1568 593 1526 557 c 128,-1,8
 1484 521 1484 521 1428.5 493.5 c 128,-1,9
 1373 466 1373 466 1312 446 c 0,10,11
 1198 409 1198 409 1063 393 c 1,12,13
 1106 307 1106 307 1238 283 c 0,14,15
 1277 276 1277 276 1330 276 c 128,-1,16
 1383 276 1383 276 1448 296.5 c 128,-1,17
 1513 317 1513 317 1570 352 c 0,18,19
 1688 425 1688 425 1760 536 c 1,20,21
 1805 539 1805 539 1805 499 c 0,22,23
 1805 483 1805 483 1781.5 427 c 128,-1,24
 1758 371 1758 371 1694 284 c 128,-1,25
 1630 197 1630 197 1543 127 c 0,26,27
 1349 -29 1349 -29 1114 -29 c 0,28,29
 880 -29 880 -29 764 90 c 0,30,31
 724 131 724 131 702 187 c 1,32,33
 604 73 604 73 430 18 c 0,34,35
 371 0 371 0 310 0 c 128,-1,36
 249 0 249 0 198.5 19.5 c 128,-1,37
 148 39 148 39 112 75 c 0,38,39
 38 149 38 149 38 270 c 0,40,41
 38 421 38 421 153 562 c 0,42,43
 325 775 325 775 638 846 c 0,44,45
 739 869 739 869 832 869 c 128,-1,46
 925 869 925 869 959 844 c 1,47,48
 994 891 994 891 1059 886 c 0,49,50
 1088 884 1088 884 1121 876 c 1,51,52
 1116 862 1116 862 1096 810 c 1,0,1
1310 778 m 0,53,54
 1211 778 1211 778 1132 686 c 1,55,56
 1055 598 1055 598 1047 486 c 1,57,58
 1178 501 1178 501 1276 557 c 0,59,60
 1381 617 1381 617 1381 697.5 c 128,-1,61
 1381 778 1381 778 1310 778 c 0,53,54
360 433 m 0,62,63
 360 317 360 317 457 317 c 0,64,65
 562 317 562 317 700 483 c 0,66,67
 773 571 773 571 828 652.5 c 128,-1,68
 883 734 883 734 912 777 c 1,69,70
 665 777 665 777 508 672 c 1,71,72
 360 575 360 575 360 433 c 0,62,63
EndSplineSet
EndChar

StartChar: ccedilla
Encoding: 231 231 192
Width: 851
GlyphClass: 2
Flags: W
LayerCount: 2
Fore
SplineSet
820 726 m 1,0,1
 744 766 744 766 685.5 766 c 128,-1,2
 627 766 627 766 579.5 739.5 c 128,-1,3
 532 713 532 713 496 670 c 0,4,5
 420 579 420 579 420 468 c 0,6,7
 420 384 420 384 480 336 c 1,8,9
 535 290 535 290 642 290 c 128,-1,10
 749 290 749 290 852.5 353.5 c 128,-1,11
 956 417 956 417 1034 536 c 1,12,13
 1079 539 1079 539 1079 499 c 0,14,15
 1079 483 1079 483 1056.5 429.5 c 128,-1,16
 1034 376 1034 376 979 298 c 128,-1,17
 924 220 924 220 853 158 c 0,18,19
 699 22 699 22 516 -7 c 1,20,21
 450 -50 450 -50 431 -72 c 128,-1,22
 412 -94 412 -94 412 -102 c 128,-1,23
 412 -110 412 -110 431 -125 c 128,-1,24
 450 -140 450 -140 473 -163 c 0,25,26
 534 -224 534 -224 534 -286 c 128,-1,27
 534 -348 534 -348 508 -384.5 c 128,-1,28
 482 -421 482 -421 442 -444 c 0,29,30
 363 -491 363 -491 264 -491 c 0,31,32
 199 -491 199 -491 156 -464 c 0,33,34
 81 -416 81 -416 65 -358 c 1,35,36
 59 -341 59 -341 78 -315 c 0,37,38
 110 -269 110 -269 130 -262 c 1,39,40
 176 -295 176 -295 218 -291 c 0,41,42
 295 -284 295 -284 295 -240 c 0,43,44
 295 -201 295 -201 250 -138 c 0,45,46
 242 -126 242 -126 242 -115 c 0,47,48
 242 -72 242 -72 335 -8 c 1,49,50
 202 12 202 12 126 98 c 128,-1,51
 50 184 50 184 50 333 c 0,52,53
 50 465 50 465 154 598 c 0,54,55
 251 723 251 723 399 803 c 0,56,57
 550 885 550 885 681 885 c 0,58,59
 752 885 752 885 791 861 c 0,60,61
 859 819 859 819 859 781 c 0,62,63
 859 740 859 740 820 726 c 1,0,1
EndSplineSet
EndChar

StartChar: eth
Encoding: 240 240 201
Width: 1044
GlyphClass: 2
Flags: W
LayerCount: 2
Fore
SplineSet
969 1128 m 1,0,1
 1074 951 1074 951 1074 771 c 0,2,3
 1074 559 1074 559 966 374 c 0,4,5
 867 205 867 205 706 102 c 0,6,7
 549 2 549 2 391 2 c 0,8,9
 125 2 125 2 58 162 c 0,10,11
 38 211 38 211 38 275.5 c 128,-1,12
 38 340 38 340 69 412.5 c 128,-1,13
 100 485 100 485 154.5 553.5 c 128,-1,14
 209 622 209 622 284 682.5 c 128,-1,15
 359 743 359 743 448 788 c 0,16,17
 641 887 641 887 838 887 c 1,18,19
 832 973 832 973 807 1062 c 1,20,21
 640 1003 640 1003 606.5 1003 c 128,-1,22
 573 1003 573 1003 557.5 1014.5 c 128,-1,23
 542 1026 542 1026 532 1042 c 0,24,25
 510 1078 510 1078 515 1112 c 1,26,27
 576 1119 576 1119 768 1172 c 1,28,29
 720 1276 720 1276 655 1345 c 1,30,31
 683 1376 683 1376 712.5 1376 c 128,-1,32
 742 1376 742 1376 757 1366 c 0,33,34
 839 1311 839 1311 913 1213 c 1,35,36
 1063 1260 1063 1260 1089 1279 c 1,37,38
 1101 1262 1101 1262 1101 1248 c 0,39,40
 1101 1202 1101 1202 1068 1180 c 1,41,42
 1047 1163 1047 1163 969 1128 c 1,0,1
458 319 m 0,43,44
 601 319 601 319 720 478 c 0,45,46
 834 630 834 630 840 803 c 1,47,48
 638 780 638 780 495 664 c 0,49,50
 360 554 360 554 360 436.5 c 128,-1,51
 360 319 360 319 458 319 c 0,43,44
EndSplineSet
EndChar

StartChar: divide
Encoding: 247 247 208
Width: 1436
GlyphClass: 2
Flags: W
LayerCount: 2
Fore
SplineSet
672 830 m 0,0,1
 661 850 661 850 661 875.5 c 128,-1,2
 661 901 661 901 681 929 c 128,-1,3
 701 957 701 957 729 980 c 0,4,5
 793 1031 793 1031 839 1031 c 0,6,7
 873 1031 873 1031 905 1007 c 0,8,9
 966 961 966 961 966 928.5 c 128,-1,10
 966 896 966 896 949 869 c 128,-1,11
 932 842 932 842 906 820 c 0,12,13
 844 767 844 767 788 767 c 0,14,15
 708 767 708 767 672 830 c 0,0,1
316 669 m 1,16,17
 419 641 419 641 724.5 641 c 128,-1,18
 1030 641 1030 641 1189 667 c 1,19,20
 1193 652 1193 652 1193 641.5 c 128,-1,21
 1193 631 1193 631 1192 618 c 128,-1,22
 1191 605 1191 605 1184 586 c 0,23,24
 1169 547 1169 547 1139 533 c 0,25,26
 1021 482 1021 482 664 467 c 0,27,28
 568 463 568 463 484 463 c 0,29,30
 303 463 303 463 303 584 c 0,31,32
 303 622 303 622 316 669 c 1,16,17
469 126 m 0,33,34
 458 145 458 145 458 170.5 c 128,-1,35
 458 196 458 196 478 224 c 128,-1,36
 498 252 498 252 526 274 c 0,37,38
 590 326 590 326 636 326 c 0,39,40
 670 326 670 326 702 302 c 0,41,42
 763 256 763 256 763 223.5 c 128,-1,43
 763 191 763 191 746 164 c 128,-1,44
 729 137 729 137 702 114 c 0,45,46
 641 62 641 62 585 62 c 0,47,48
 505 62 505 62 469 126 c 0,33,34
EndSplineSet
EndChar

StartChar: oslash
Encoding: 248 248 209
Width: 1040
GlyphClass: 2
Flags: W
LayerCount: 2
Fore
SplineSet
382 -6 m 0,0,1
 316 -6 316 -6 285 -1 c 1,2,3
 267 -27 267 -27 244.5 -60.5 c 128,-1,4
 222 -94 222 -94 200 -124 c 0,5,6
 146 -195 146 -195 126 -195 c 128,-1,7
 106 -195 106 -195 81 -182 c 128,-1,8
 56 -169 56 -169 30 -150 c 0,9,10
 -29 -105 -29 -105 -47 -72 c 1,11,-1
 104 83 l 1,12,13
 38 153 38 153 38 255.5 c 128,-1,14
 38 358 38 358 75 442.5 c 128,-1,15
 112 527 112 527 175 599 c 0,16,17
 308 751 308 751 498 812 c 1,18,19
 492 857 492 857 531 886 c 0,20,21
 559 906 559 906 631.5 906 c 128,-1,22
 704 906 704 906 761 891 c 1,23,24
 783 925 783 925 822 968 c 0,25,26
 892 1046 892 1046 910 1070 c 1,27,28
 949 1057 949 1057 973.5 1032.5 c 128,-1,29
 998 1008 998 1008 998 996 c 128,-1,30
 998 984 998 984 890 827 c 1,31,32
 1001 739 1001 739 1001 608 c 0,33,34
 1001 449 1001 449 922 306 c 1,35,36
 1094 343 1094 343 1223 536 c 1,37,38
 1268 539 1268 539 1268 499 c 0,39,40
 1268 483 1268 483 1258 460 c 0,41,42
 1122 137 1122 137 714 32 c 0,43,44
 568 -6 568 -6 382 -6 c 0,0,1
360 433 m 0,45,46
 360 317 360 317 457 317 c 0,47,48
 539 317 539 317 622 416 c 0,49,50
 709 519 709 519 709 625 c 0,51,52
 709 733 709 733 605 768 c 1,53,54
 426 718 426 718 376 544 c 0,55,56
 360 491 360 491 360 433 c 0,45,46
EndSplineSet
EndChar

